<?xml version="1.0" standalone="no"?>
<!DOCTYPE svg PUBLIC "-//W3C//DTD SVG 20010904//EN"
 "http://www.w3.org/TR/2001/REC-SVG-20010904/DTD/svg10.dtd">
<svg version="1.0" xmlns="http://www.w3.org/2000/svg"
 width="512.000000pt" height="512.000000pt" viewBox="0 0 512.000000 512.000000"
 preserveAspectRatio="xMidYMid meet">
<metadata>
Created by potrace 1.11, written by Peter Selinger 2001-2013
</metadata>
<g transform="translate(0.000000,512.000000) scale(0.100000,-0.100000)"
fill="#000000" stroke="none">
<path d="M540 4903 c0 -4 -44 -7 -99 -5 -114 4 -108 10 -107 -110 1 -43 -3
-78 -8 -78 -6 0 -5 -5 2 -12 16 -16 15 -31 0 -22 -9 5 -9 2 1 -9 16 -20 2 -23
-19 -4 -8 6 -5 0 8 -14 26 -30 29 -47 5 -28 -15 11 -14 10 1 -9 19 -22 19 -22
0 -22 -18 -1 -18 -1 -1 -11 9 -5 17 -14 17 -19 0 -5 -8 -7 -17 -4 -16 5 -16 4
0 -6 18 -11 18 -12 0 -26 -11 -9 -13 -13 -4 -12 7 2 16 -3 19 -11 2 -8 0 -11
-6 -7 -6 3 -14 1 -18 -5 -4 -7 -3 -9 4 -5 6 3 13 2 17 -4 3 -5 1 -10 -6 -10
-10 0 -10 -3 -1 -12 16 -16 15 -31 0 -22 -9 5 -9 2 1 -9 16 -20 2 -23 -19 -4
-8 6 -5 0 8 -14 26 -30 29 -47 5 -28 -15 11 -14 10 1 -9 19 -22 19 -22 0 -22
-18 -1 -18 -1 -1 -11 9 -5 17 -14 17 -19 0 -5 -8 -7 -17 -4 -16 5 -16 4 0 -6
18 -11 18 -12 0 -26 -13 -10 -14 -13 -3 -12 9 2 15 -6 16 -19 1 -13 -3 -23 -8
-23 -6 0 -7 8 -3 18 5 13 4 14 -6 5 -10 -10 -9 -16 4 -31 22 -24 22 -38 0 -21
-15 11 -14 10 1 -9 11 -12 14 -22 9 -22 -6 0 -14 -7 -17 -16 -5 -14 -4 -15 9
-4 18 15 19 7 4 -22 -8 -15 -8 -19 0 -14 14 9 14 0 0 -26 -6 -11 -7 -18 -1
-15 11 8 9 -93 -3 -113 -5 -9 -4 -11 3 -6 15 9 15 1 1 -26 -6 -11 -7 -18 -2
-15 5 3 9 -18 9 -48 -1 -33 -4 -51 -11 -47 -5 3 -3 -3 5 -13 14 -17 13 -18 -4
-11 -19 6 -19 6 -3 -12 22 -24 22 -38 -1 -21 -14 11 -13 10 2 -9 14 -16 15
-22 6 -22 -11 0 -11 -3 -2 -12 20 -20 14 -30 -10 -18 -21 10 -21 9 2 -9 23
-19 23 -21 5 -21 -18 -1 -19 -1 -3 -11 10 -5 18 -15 18 -20 0 -6 -4 -8 -9 -4
-5 3 -13 1 -16 -5 -4 -6 -3 -10 2 -9 22 4 25 -2 7 -16 -10 -9 -13 -14 -5 -13
7 2 16 -3 19 -11 3 -10 0 -11 -9 -5 -11 6 -10 3 1 -11 14 -17 13 -18 -4 -12
-17 7 -17 6 -5 -9 8 -10 14 -30 14 -46 0 -26 -7 -33 -30 -28 -5 1 -6 -2 -2 -7
5 -4 14 -8 20 -8 5 0 12 -6 15 -14 3 -8 0 -11 -6 -7 -6 3 -14 1 -18 -5 -4 -7
-3 -9 4 -5 6 3 13 2 17 -4 3 -5 1 -10 -6 -10 -8 0 -8 -4 -2 -12 16 -21 12 -50
-6 -43 -12 5 -12 2 2 -13 22 -24 22 -33 0 -25 -15 5 -14 3 2 -10 l20 -16 -20
-1 c-18 -1 -19 -1 -2 -11 9 -5 17 -15 17 -20 0 -6 -6 -7 -12 -3 -9 5 -9 2 1
-9 11 -14 11 -17 0 -18 -8 -1 -18 -1 -22 0 -5 1 -6 -3 -2 -9 3 -6 11 -8 16 -5
15 10 21 -22 9 -45 -8 -15 -8 -20 -1 -16 6 4 11 4 11 1 0 -4 -5 -16 -11 -27
-6 -11 -7 -18 -1 -15 11 8 9 -93 -3 -113 -5 -9 -4 -11 3 -6 15 9 15 1 1 -26
-6 -11 -7 -18 -2 -15 5 3 8 -32 8 -79 0 -46 -4 -84 -10 -84 -5 0 -4 -5 3 -12
16 -16 15 -31 0 -22 -9 5 -9 2 1 -9 16 -20 2 -23 -19 -4 -8 6 -5 0 8 -14 26
-30 29 -47 5 -28 -15 11 -14 10 1 -9 19 -22 19 -22 0 -22 -18 -1 -18 -1 -1
-11 22 -13 22 -30 0 -23 -16 5 -16 4 0 -6 18 -11 18 -12 0 -26 -11 -9 -13 -13
-4 -12 7 2 16 -3 19 -11 2 -8 0 -11 -6 -7 -6 3 -14 1 -18 -5 -4 -7 -3 -9 4 -5
6 3 13 2 17 -4 3 -5 1 -10 -6 -10 -10 0 -10 -3 -1 -12 16 -16 15 -31 0 -22 -9
5 -9 2 1 -9 16 -20 2 -23 -19 -4 -8 6 -5 0 8 -14 26 -30 29 -47 4 -28 -14 11
-13 10 2 -9 19 -22 19 -22 0 -22 -18 -1 -18 -1 -2 -11 23 -13 23 -30 1 -23
-16 5 -16 4 0 -6 18 -11 18 -12 0 -26 -13 -10 -14 -13 -3 -12 9 2 15 -6 16
-19 1 -13 -3 -23 -8 -23 -6 0 -7 8 -3 18 5 13 4 14 -6 5 -10 -10 -9 -16 4 -31
22 -24 22 -38 -1 -21 -14 11 -13 10 2 -9 11 -12 14 -22 9 -22 -6 0 -14 -7 -17
-16 -5 -14 -4 -15 9 -4 18 15 19 7 4 -22 -8 -15 -8 -19 0 -14 14 9 14 0 0 -26
-6 -11 -7 -18 -1 -15 11 8 9 -93 -3 -113 -5 -9 -4 -11 3 -6 15 9 15 1 1 -26
-6 -11 -7 -18 -2 -15 5 3 9 -18 9 -48 -1 -33 -4 -51 -11 -47 -5 3 -3 -3 5 -13
14 -17 13 -18 -4 -11 -19 6 -19 6 -3 -12 22 -24 22 -38 0 -21 -15 11 -14 10 1
-9 14 -16 15 -22 6 -22 -11 0 -11 -3 -2 -12 20 -20 14 -30 -11 -18 -20 10 -20
9 3 -9 23 -19 23 -21 5 -21 -18 -1 -19 -1 -3 -11 10 -5 18 -15 18 -20 0 -6 -4
-8 -9 -4 -5 3 -13 1 -16 -5 -4 -6 -3 -10 2 -9 22 4 25 -2 7 -16 -10 -9 -13
-14 -5 -13 7 2 16 -3 19 -11 3 -10 0 -11 -9 -5 -11 6 -10 3 1 -11 14 -17 13
-18 -4 -12 -17 7 -17 6 -5 -9 8 -10 14 -30 14 -46 0 -26 -7 -33 -30 -28 -5 1
-6 -2 -2 -7 5 -4 14 -8 19 -8 6 0 13 -6 16 -14 3 -8 0 -11 -6 -7 -6 3 -14 1
-18 -5 -4 -7 -3 -9 4 -5 6 3 13 2 17 -4 3 -5 1 -10 -6 -10 -8 0 -8 -4 -2 -12
16 -21 12 -50 -6 -43 -12 5 -12 2 2 -13 22 -24 22 -33 0 -25 -15 5 -14 3 2
-10 l20 -16 -20 -1 c-18 -1 -19 -1 -3 -11 10 -5 18 -15 18 -20 0 -6 -6 -7 -12
-3 -9 5 -9 2 1 -9 11 -14 11 -17 0 -18 -8 -1 -18 -1 -22 0 -5 1 -6 -3 -2 -9 3
-6 11 -8 16 -5 15 10 21 -22 9 -45 -8 -15 -8 -20 -1 -16 14 9 14 0 0 -26 -6
-11 -7 -18 -1 -15 11 8 9 -93 -3 -113 -5 -9 -4 -11 3 -6 15 9 15 1 1 -26 -6
-11 -7 -18 -2 -15 5 3 8 -32 8 -79 0 -46 -4 -84 -9 -84 -6 0 -5 -5 2 -12 16
-16 15 -31 -1 -22 -8 5 -8 2 2 -9 16 -20 2 -23 -19 -5 -8 7 -5 1 8 -13 26 -30
29 -47 4 -28 -14 11 -13 10 2 -9 19 -22 19 -22 0 -22 -18 -1 -18 -1 -1 -11 22
-13 22 -30 0 -23 -16 5 -16 4 0 -6 18 -11 18 -12 0 -26 -11 -9 -13 -13 -4 -12
7 2 16 -3 19 -11 2 -8 0 -11 -6 -7 -6 3 -14 1 -18 -5 -4 -7 -3 -9 4 -5 6 3 13
2 17 -4 3 -5 1 -10 -6 -10 -10 0 -10 -3 -1 -12 16 -16 15 -31 0 -22 -9 5 -9 2
1 -9 16 -20 2 -23 -19 -4 -8 6 -5 0 8 -14 26 -30 29 -47 5 -28 -15 11 -14 10
1 -9 19 -22 19 -22 0 -22 -18 -1 -18 -1 -2 -11 23 -13 23 -30 0 -23 -15 5 -15
4 1 -6 18 -11 18 -12 0 -26 -13 -10 -14 -13 -3 -12 9 2 15 -6 16 -20 1 -12 -3
-22 -8 -22 -6 0 -7 8 -3 18 5 13 4 14 -6 5 -10 -10 -9 -16 4 -31 22 -24 22
-38 0 -21 -15 11 -14 10 1 -9 11 -12 14 -22 9 -22 -6 0 -14 -7 -17 -16 -5 -14
-4 -15 9 -4 18 15 19 7 4 -22 -8 -15 -8 -19 0 -14 14 9 14 0 0 -26 -6 -11 -7
-18 -1 -14 8 5 9 -21 3 -67 -1 -5 -6 -5 -13 -1 -7 4 -8 3 -4 -5 4 -6 11 -9 16
-6 5 3 13 -2 18 -11 6 -11 11 -13 16 -5 4 6 12 11 18 11 6 0 1 -12 -13 -27
-13 -15 -17 -22 -8 -15 9 6 20 8 24 4 5 -4 5 -1 1 6 -11 19 43 10 55 -9 5 -8
9 -9 9 -3 0 5 11 10 25 10 14 0 25 -5 25 -10 0 -6 4 -4 9 4 12 18 4 33 -12 23
-16 -10 -57 -12 -51 -2 2 4 -5 6 -16 4 -11 -2 -20 0 -20 6 0 10 28 8 48 -4 6
-5 12 -4 12 0 0 15 74 9 90 -7 8 -9 11 -11 7 -4 -5 7 -3 15 4 20 8 4 9 3 5 -4
-9 -15 -1 -15 26 -1 16 9 19 8 13 -2 -6 -9 -3 -11 8 -6 10 4 21 -1 27 -11 9
-14 10 -13 5 6 -6 21 -5 23 13 13 11 -6 22 -7 26 -4 9 9 76 12 76 3 0 -4 -16
-6 -36 -5 -19 1 -37 -2 -40 -6 -2 -4 7 -6 21 -4 14 1 28 -1 31 -6 3 -5 13 -3
24 3 10 7 17 15 14 19 -5 9 23 5 32 -4 4 -3 16 -2 26 4 16 9 19 8 15 -3 -2 -7
-10 -12 -16 -10 -7 1 -10 -2 -6 -8 5 -8 11 -8 20 0 8 7 15 7 19 1 3 -5 0 -12
-6 -14 -8 -3 -6 -6 5 -6 19 -1 23 14 7 24 -6 4 -7 11 -4 17 4 6 12 1 21 -13
11 -20 13 -21 11 -4 -3 17 3 19 57 20 41 0 65 -5 75 -15 8 -9 11 -11 7 -4 -5
7 -3 15 4 20 8 4 9 3 5 -4 -9 -15 -1 -15 26 -1 16 9 19 8 13 -2 -6 -9 -3 -11
8 -6 10 4 21 -1 27 -11 9 -14 10 -13 5 6 -6 21 -5 23 13 13 11 -6 22 -7 26 -4
9 9 76 12 76 3 0 -4 -16 -6 -36 -5 -19 1 -37 -2 -40 -6 -2 -4 7 -6 21 -4 14 1
28 -1 31 -6 3 -5 13 -3 24 3 10 7 17 15 14 19 -5 9 23 5 32 -4 4 -3 16 -2 26
4 16 9 19 8 15 -3 -2 -7 -10 -12 -16 -10 -7 1 -10 -2 -6 -8 5 -8 11 -8 20 0 8
7 15 7 19 1 3 -5 0 -12 -6 -14 -8 -3 -6 -6 5 -6 19 -1 23 14 7 24 -6 4 -7 11
-4 17 4 6 12 1 21 -13 11 -20 13 -21 11 -4 -3 17 3 19 57 20 41 0 65 -5 75
-15 8 -9 11 -11 7 -4 -5 7 -3 15 4 20 8 4 9 3 5 -4 -9 -15 -1 -15 26 -1 16 9
19 8 13 -2 -6 -9 -3 -11 8 -6 10 4 21 -1 27 -11 9 -14 10 -13 5 6 -6 21 -5 23
13 13 11 -6 22 -7 26 -4 9 9 76 12 76 3 0 -4 -16 -6 -36 -5 -19 1 -37 -2 -40
-6 -2 -4 7 -6 21 -4 14 1 28 -1 31 -6 3 -5 13 -3 24 3 10 7 17 15 14 19 -5 9
23 5 32 -4 4 -3 16 -2 26 4 16 9 19 8 15 -3 -2 -7 -10 -12 -16 -10 -7 1 -10
-2 -6 -8 5 -8 11 -8 20 0 8 7 15 7 19 1 3 -5 0 -12 -6 -14 -8 -3 -6 -6 5 -6
19 -1 23 14 7 24 -6 4 -7 11 -4 17 4 6 12 1 21 -13 11 -20 13 -21 11 -4 -3 17
3 19 57 20 41 0 65 -5 75 -15 8 -9 11 -11 7 -4 -5 7 -3 15 4 20 8 4 9 3 5 -4
-9 -15 -1 -15 26 -1 16 9 19 8 13 -2 -6 -9 -3 -11 8 -6 10 4 21 -1 27 -11 9
-14 10 -13 5 6 -6 21 -5 23 13 13 11 -6 22 -7 26 -4 11 11 106 11 106 -1 0 -6
6 0 13 14 7 14 9 26 5 28 -4 2 -3 12 2 23 8 13 7 19 0 19 -6 0 -8 5 -5 10 4 6
11 8 16 5 5 -4 9 -1 9 4 0 6 -7 11 -15 11 -8 0 -12 6 -9 14 3 9 13 12 22 9 10
-3 8 1 -6 11 -17 14 -20 21 -12 36 6 11 6 21 1 24 -13 9 -8 32 14 58 11 13 13
17 5 11 -21 -19 -32 -16 -20 6 12 23 13 44 2 37 -4 -2 -8 4 -8 15 0 10 5 19
10 19 5 0 6 3 3 7 -4 3 -2 12 5 20 9 11 7 12 -7 7 -14 -6 -16 -4 -8 12 8 17
10 36 3 49 -8 16 -4 33 14 55 11 14 14 19 6 12 -21 -18 -32 -15 -20 7 12 23
13 44 2 37 -4 -2 -8 4 -8 15 0 10 5 19 10 19 5 0 6 3 3 7 -4 3 -2 12 5 20 9
11 7 12 -7 7 -14 -6 -16 -4 -8 12 8 17 10 36 3 49 -8 16 -4 33 14 55 11 14 14
19 6 12 -21 -18 -32 -15 -20 7 13 25 13 44 0 36 -6 -3 -7 1 -4 9 3 9 11 16 18
16 6 0 3 5 -7 11 -12 7 -15 15 -9 27 4 9 7 34 6 56 -1 28 1 34 8 22 5 -9 13
-14 18 -11 5 3 11 1 15 -5 3 -5 2 -10 -2 -10 -5 0 -9 -10 -10 -23 l-1 -22 10
23 c6 12 17 23 25 23 7 1 19 2 26 3 6 1 11 10 9 21 -2 11 1 16 5 10 10 -12 84
-17 98 -6 5 5 26 1 45 -7 41 -18 71 -22 64 -10 -4 5 -12 7 -20 4 -8 -3 -14 -2
-14 3 0 5 9 11 20 14 13 3 18 1 13 -6 -4 -7 0 -8 11 -4 10 4 15 3 11 -3 -3 -6
-1 -10 4 -10 6 0 11 8 11 17 0 15 2 14 15 -3 8 -10 15 -14 15 -9 0 6 5 3 11
-5 8 -12 9 -11 5 5 -5 16 -1 21 14 22 11 1 20 -3 20 -8 0 -6 -5 -7 -12 -3 -6
4 -8 3 -4 -4 3 -6 -1 -18 -10 -26 -8 -9 -10 -16 -4 -16 6 0 13 7 16 15 4 8 11
12 18 8 6 -3 8 -3 4 2 -9 9 9 35 23 35 5 0 9 -7 9 -16 0 -8 -4 -12 -10 -9 -5
3 -10 2 -10 -3 0 -6 11 -9 24 -8 13 0 22 4 20 8 -2 3 -1 8 3 11 5 2 2 2 -4 1
-7 -2 -13 1 -13 6 0 11 11 13 34 4 13 -5 14 -9 5 -20 -7 -9 -8 -14 -1 -14 14
0 22 26 11 37 -6 6 -4 10 5 10 8 0 13 -4 10 -9 -3 -4 -1 -8 5 -8 6 0 8 -8 5
-17 -5 -14 -4 -15 4 -4 6 8 8 20 6 26 -4 8 4 11 20 10 14 -2 26 1 26 5 0 5 13
7 30 5 16 -2 32 0 34 4 3 5 17 7 31 6 14 -2 25 2 25 8 0 8 3 7 9 -1 11 -19 15
-19 34 -4 10 9 17 10 22 2 3 -6 11 -8 16 -4 5 3 7 9 5 13 -7 10 61 7 71 -3 4
-5 2 -6 -5 -2 -7 4 -11 4 -10 -1 2 -4 -2 -8 -7 -8 -5 0 -9 5 -7 10 2 6 0 6 -4
2 -13 -13 -13 -35 1 -33 22 3 44 27 39 41 -3 7 0 16 7 21 7 4 10 3 5 -4 -3 -6
-2 -13 4 -17 6 -4 8 -10 6 -14 -3 -4 2 -8 10 -8 10 0 11 4 4 11 -15 15 -12 26
7 19 10 -4 14 -2 10 4 -3 5 0 10 8 10 8 0 12 -4 9 -9 -10 -15 9 -8 23 10 13
15 13 15 8 -8 -4 -14 -3 -20 2 -14 4 6 16 10 26 8 10 -1 25 8 33 22 9 13 21
24 27 24 7 0 7 -4 -1 -12 -15 -15 -15 -28 -1 -28 5 0 8 4 5 9 -3 5 1 12 10 15
8 3 13 9 10 14 -2 4 4 8 14 8 10 0 17 -3 14 -7 -2 -4 7 -6 21 -4 14 1 25 -3
26 -9 0 -6 7 3 15 21 10 24 18 31 31 26 12 -5 14 -3 8 7 -5 9 -4 11 4 6 6 -4
18 -2 26 4 8 6 19 9 25 5 5 -3 10 -2 10 2 0 15 59 33 67 21 4 -7 1 -8 -7 -3
-8 5 -11 4 -6 -3 10 -17 51 2 51 24 0 20 22 26 42 11 9 -6 16 -1 23 17 5 14
12 26 15 26 4 0 3 -4 0 -10 -3 -5 1 -10 10 -10 9 0 14 4 10 10 -8 13 50 41 71
33 11 -4 15 -3 10 5 -3 6 2 16 13 22 12 6 22 6 25 1 3 -5 15 -7 27 -4 15 4 17
8 8 14 -8 5 -17 3 -22 -4 -6 -8 -7 -8 -4 3 2 9 14 14 31 13 25 -2 26 0 14 14
-12 15 -11 15 9 5 17 -10 25 -9 37 4 23 23 20 30 -4 9 -11 -10 -20 -14 -20 -9
0 10 55 50 67 48 5 -1 13 6 20 15 6 9 17 16 25 16 7 1 12 6 11 13 -2 6 4 9 12
5 13 -4 13 -8 3 -22 -11 -14 -11 -14 4 -3 9 7 15 22 13 32 -2 11 1 23 7 26 7
4 8 2 4 -4 -4 -7 -2 -12 3 -12 6 0 11 5 11 11 0 16 62 64 78 61 8 -2 11 1 7 7
-10 17 6 13 28 -6 19 -18 19 -17 6 4 -8 13 -18 23 -24 23 -12 0 16 20 28 20 5
0 5 -6 1 -12 -4 -7 2 -5 13 5 11 9 22 15 25 12 2 -3 5 2 5 10 0 8 -4 12 -9 9
-12 -8 -10 10 4 24 17 17 28 15 29 -5 0 -12 2 -13 6 -5 3 7 -1 20 -9 29 -11
14 -11 16 2 8 8 -4 24 -15 35 -24 16 -13 16 -11 -3 10 -25 28 -30 48 -7 29 12
-10 14 -8 11 7 -4 21 12 47 33 51 9 2 11 -3 7 -15 -6 -14 -5 -15 5 -6 10 10 9
16 -2 29 -8 10 -9 15 -3 11 7 -4 14 2 17 14 4 14 11 20 21 16 10 -4 13 -1 10
8 -6 14 22 65 43 78 7 4 13 15 13 24 0 10 5 13 18 8 13 -5 14 -3 5 6 -13 13
-7 39 9 39 6 0 4 -8 -3 -18 -7 -9 -2 -7 12 6 14 12 29 19 34 15 4 -5 5 -2 1 5
-6 10 -11 10 -22 1 -14 -12 -20 2 -6 15 4 4 7 11 7 16 0 4 9 16 20 26 12 11
15 15 8 10 -8 -5 -13 -4 -13 2 0 14 35 34 44 25 3 -3 6 -1 6 6 0 8 -7 11 -15
7 -8 -3 -15 -1 -15 4 0 6 4 10 10 10 5 0 9 3 8 8 -3 12 25 82 34 82 4 0 4 7 1
17 -4 10 -2 14 4 10 6 -4 13 10 16 35 3 22 9 44 14 47 4 3 8 13 8 21 0 9 7 14
18 12 9 -2 17 2 17 8 0 5 -6 9 -12 7 -8 -1 -12 6 -10 18 2 11 4 26 4 33 1 6 5
12 10 12 5 0 7 4 4 8 -3 5 1 21 9 36 8 14 11 24 6 22 -4 -3 -8 2 -8 10 0 9 6
13 16 9 12 -5 13 -3 4 5 -7 8 -8 22 -3 39 4 14 6 34 4 44 -1 9 1 17 5 17 4 0
7 12 8 28 1 24 9 99 12 111 1 3 7 -3 14 -13 12 -16 14 -16 14 -2 0 8 -8 18
-18 21 -14 5 -16 11 -10 28 4 12 7 46 7 75 -1 28 4 52 9 52 6 0 3 5 -5 10 -8
5 -10 10 -4 10 8 0 9 11 4 36 -7 30 -6 35 7 29 12 -4 13 -2 6 7 -6 7 -13 23
-16 36 -4 19 -2 22 10 18 12 -5 13 -3 5 6 -17 21 -18 72 -2 86 13 11 13 11 0
7 -11 -4 -15 3 -15 25 -1 23 3 29 15 25 11 -4 10 -1 -3 9 -13 10 -16 23 -13
50 3 22 1 34 -4 31 -6 -4 -10 -1 -10 4 0 6 6 11 13 11 8 0 9 3 1 8 -15 10 -24
51 -13 58 6 3 6 11 1 17 -4 7 -8 19 -7 27 0 8 -4 18 -10 23 -6 4 -5 10 4 16
10 6 10 10 1 13 -7 2 -13 18 -13 36 -1 18 -6 32 -11 32 -5 0 -1 10 10 22 15
19 16 20 2 9 -12 -9 -18 -10 -19 -2 -2 11 -5 25 -9 39 -1 4 -2 11 -1 16 1 4
-2 13 -7 20 -5 6 -8 21 -7 34 1 12 -2 22 -7 22 -4 0 -8 8 -8 18 0 10 -4 22 -9
28 -10 10 -46 117 -42 123 2 2 -4 8 -13 13 -9 5 -16 17 -16 26 0 10 -5 23 -12
30 -7 7 -9 12 -5 12 4 0 -2 10 -13 22 -11 12 -18 28 -15 36 2 7 0 10 -5 7 -6
-3 -10 -1 -10 4 0 6 0 13 0 16 0 3 -8 14 -17 24 -29 32 -43 50 -43 55 0 7 -27
40 -58 72 -13 13 -21 24 -18 24 2 0 -29 34 -71 75 -41 41 -79 75 -83 75 -5 0
-10 3 -12 8 -5 11 -85 72 -95 72 -5 0 -15 9 -23 19 -7 11 -17 18 -21 16 -4 -3
-12 2 -19 10 -7 8 -19 15 -26 15 -8 0 -14 4 -14 8 0 5 -16 14 -35 22 -19 7
-32 17 -29 22 3 4 -3 5 -12 1 -13 -5 -15 -3 -9 7 5 8 4 11 -2 7 -10 -6 -106
36 -99 44 2 2 -7 5 -21 6 -14 0 -29 6 -33 13 -4 6 -10 11 -14 10 -15 -4 -66
12 -66 20 0 5 -6 7 -14 4 -8 -3 -17 0 -21 5 -3 6 -11 9 -16 6 -5 -4 -9 -3 -9
2 0 4 -12 9 -26 10 -15 0 -29 5 -33 10 -3 5 -13 8 -21 8 -8 -1 -19 1 -25 4 -5
3 -13 6 -17 7 -5 1 -9 2 -10 4 -2 1 -12 3 -23 5 -11 1 -40 8 -65 14 -25 7 -52
14 -60 16 -8 2 -15 4 -15 5 0 1 -11 3 -25 5 -61 9 -106 16 -125 19 -11 3 -26
5 -33 5 -8 1 -10 6 -6 14 6 9 4 9 -7 1 -10 -8 -37 -8 -104 2 -108 16 -250 29
-415 38 -41 3 -75 5 -75 6 0 1 -10 3 -22 4 -13 2 -23 -2 -23 -7 0 -6 -5 -6
-12 0 -16 12 -1827 12 -1845 0 -7 -5 -13 -5 -13 0 0 4 -22 8 -49 8 -27 0 -47
-3 -44 -8 3 -5 -4 -4 -16 2 -11 7 -21 8 -21 4z m223 -190 c12 -2 16 1 11 9 -6
10 -5 10 7 1 12 -10 18 -10 29 0 8 7 10 7 7 1 -4 -7 3 -11 18 -11 14 0 25 5
25 11 0 6 5 4 11 -4 9 -12 12 -13 16 -1 4 11 7 11 13 0 7 -10 12 -10 26 2 10
8 15 9 11 3 -4 -7 0 -15 9 -18 8 -3 12 -2 9 4 -3 6 0 10 7 11 7 0 23 2 36 3
13 2 25 -1 28 -6 3 -4 10 -5 16 -2 15 10 68 13 63 4 -3 -4 2 -11 11 -14 8 -3
12 -2 9 3 -3 5 0 13 6 17 8 4 9 3 5 -4 -4 -7 -2 -12 5 -12 8 0 7 -5 -2 -17
-13 -16 -12 -17 3 -5 9 8 15 21 12 30 -3 9 4 1 16 -18 14 -24 19 -28 14 -12
-5 21 -4 23 14 13 14 -7 23 -8 27 -1 4 6 11 8 16 5 5 -4 12 1 15 10 6 14 8 13
21 -4 17 -26 53 -46 53 -31 0 5 -6 10 -13 10 -7 0 -13 8 -14 18 -1 13 5 18 20
18 23 -2 34 -13 21 -24 -4 -4 -4 -2 -1 4 3 6 0 11 -8 11 -11 0 -12 -4 -4 -14
6 -7 16 -10 23 -6 31 20 62 9 57 -20 -1 -5 3 -6 8 -2 6 3 7 13 4 23 -6 15 -5
16 12 2 13 -10 16 -11 11 -2 -10 16 24 13 37 -3 5 -5 6 1 3 15 -6 24 -6 24 5
3 l12 -22 19 22 19 22 -6 -25 c-5 -19 -4 -22 4 -10 10 13 11 13 12 0 1 -8 1
-19 0 -23 -1 -5 3 -6 8 -2 6 3 7 13 4 22 -4 10 -2 14 4 10 6 -4 18 0 26 8 12
11 17 12 20 2 4 -9 8 -8 16 3 10 13 11 13 11 0 0 -13 1 -13 10 0 7 11 10 11
10 2 0 -7 -10 -17 -22 -22 -13 -5 -18 -9 -11 -9 21 -2 43 11 43 25 0 8 5 14
10 14 14 0 12 -12 -6 -40 l-16 -25 20 23 c13 14 22 18 24 10 3 -7 7 -5 11 6 5
12 3 15 -6 10 -7 -4 -8 -3 -4 2 12 12 60 12 70 -1 4 -6 11 -5 17 5 9 13 10 13
10 0 0 -13 1 -13 10 0 7 11 10 11 10 2 0 -7 -10 -17 -22 -22 -13 -5 -18 -9
-11 -9 21 -2 43 11 43 25 0 8 5 14 10 14 14 0 12 -12 -6 -40 l-16 -25 20 23
c14 15 22 18 26 10 3 -7 4 -4 3 7 -2 16 5 19 41 21 23 0 42 -3 42 -7 0 -3 -16
-6 -35 -4 -19 1 -32 -2 -30 -6 3 -4 16 -6 30 -4 14 1 25 -3 25 -9 0 -7 3 -7 8
1 8 13 29 12 52 -2 13 -8 13 -7 1 8 -7 9 -17 14 -22 11 -5 -3 -9 -1 -9 4 0 6
11 9 24 8 13 0 22 -4 19 -8 -2 -5 1 -8 7 -8 6 0 9 -4 6 -9 -4 -5 2 -8 11 -6
10 2 21 4 26 4 4 1 7 7 7 15 0 9 9 14 20 13 11 -1 20 -5 20 -10 0 -5 -6 -7
-13 -4 -8 3 -14 0 -14 -7 0 -20 26 -15 33 6 3 10 10 18 15 18 6 0 7 -4 4 -10
-3 -5 -1 -10 5 -10 6 0 8 -5 4 -11 -4 -8 0 -8 15 0 16 9 21 9 21 -1 0 -9 2
-10 8 -2 9 14 64 13 74 -1 5 -6 8 -6 8 2 0 12 38 11 58 -1 6 -3 13 -2 17 4 4
6 11 8 16 5 5 -4 12 1 16 11 5 14 8 13 20 -7 l14 -24 -5 25 c-3 14 -3 19 0 11
5 -11 8 -11 15 0 7 12 9 12 9 0 0 -10 3 -11 13 -2 10 8 14 7 14 -4 0 -8 -5
-11 -10 -8 -6 4 -7 1 -2 -7 7 -11 10 -10 19 1 16 21 75 16 102 -8 13 -12 24
-17 24 -12 0 5 -9 14 -20 21 -11 7 -20 17 -20 22 0 4 7 3 15 -4 8 -6 19 -9 25
-5 5 3 13 -1 16 -9 3 -9 10 -13 15 -10 5 3 7 9 5 13 -3 4 8 7 24 6 15 0 26 -4
22 -9 -3 -5 2 -6 12 -3 13 5 17 3 13 -7 -4 -10 -1 -13 8 -9 8 3 13 9 10 13 -2
4 8 7 23 6 16 0 32 -9 39 -21 7 -11 12 -14 13 -7 0 7 4 11 9 7 5 -3 12 -1 16
4 3 6 -4 8 -15 6 -11 -2 -18 0 -16 4 6 9 45 9 61 0 6 -4 24 -5 42 -4 28 1 30
-1 23 -20 -6 -15 -4 -22 4 -22 7 0 13 7 12 16 -1 11 8 16 27 16 18 1 26 -3 23
-12 -6 -15 10 -27 19 -14 3 6 21 2 43 -10 20 -12 29 -14 20 -6 -10 7 -14 17
-10 21 4 4 2 7 -3 6 -20 -4 -35 0 -35 11 0 6 5 7 13 2 6 -4 21 -8 32 -8 11 0
21 -6 21 -12 4 -37 4 -38 13 -24 8 13 12 13 28 0 17 -13 17 -13 4 4 -8 10 -20
16 -27 13 -8 -3 -11 0 -7 10 4 11 9 12 19 3 7 -6 19 -7 25 -3 8 4 9 3 5 -4 -4
-7 -1 -12 9 -12 10 0 13 5 9 13 -6 9 -5 9 7 0 14 -11 19 -13 39 -13 6 0 10 -5
10 -11 0 -6 -5 -7 -12 -2 -20 12 -38 12 -38 1 0 -6 6 -8 14 -5 17 7 40 -18 31
-33 -7 -11 -150 -110 -160 -110 -3 0 -3 6 1 13 4 6 4 9 0 5 -4 -3 -8 -10 -8
-15 -1 -9 -43 -41 -43 -33 0 3 -11 -5 -25 -18 -13 -12 -30 -20 -38 -17 -7 2
-10 1 -7 -5 6 -9 -34 -36 -47 -32 -5 1 -8 -2 -8 -6 0 -13 -81 -63 -91 -56 -5
3 -9 -2 -9 -10 0 -9 -6 -16 -14 -16 -8 0 -16 -3 -18 -8 -1 -4 -28 -23 -58 -42
-30 -19 -59 -38 -65 -42 -36 -28 -225 -148 -233 -148 -5 0 -13 -7 -16 -16 -4
-9 -9 -14 -12 -11 -4 3 -15 -3 -27 -13 -11 -11 -24 -17 -28 -14 -4 2 -12 -4
-18 -13 -6 -10 -11 -15 -11 -10 0 4 -9 -2 -21 -14 -11 -11 -27 -18 -35 -15 -7
3 -13 1 -11 -5 1 -6 -7 -16 -18 -22 -11 -7 -23 -16 -27 -22 -5 -7 -8 -7 -8 0
0 6 -6 3 -13 -6 -7 -8 -28 -24 -47 -35 -19 -10 -41 -25 -48 -32 -8 -7 -19 -9
-25 -5 -7 3 -9 3 -5 -2 11 -11 -90 -78 -104 -69 -6 4 -8 3 -4 -4 3 -6 -3 -13
-14 -17 -11 -3 -20 -11 -20 -16 0 -5 -7 -9 -15 -9 -8 0 -15 -4 -15 -10 0 -5
-6 -10 -13 -10 -8 0 -27 -11 -43 -25 -16 -14 -31 -25 -34 -26 -33 -5 -52 -4
-57 4 -4 6 -1 7 7 2 9 -5 11 -4 6 4 -4 6 -12 9 -17 6 -13 -9 -50 5 -44 15 3 5
-4 11 -15 15 -11 3 -20 12 -20 18 0 7 -9 18 -21 25 -13 8 -18 19 -15 29 5 13
4 14 -9 3 -8 -7 -15 -8 -15 -2 0 5 -49 60 -110 122 -60 62 -107 116 -104 121
3 5 1 8 -4 7 -11 -3 -202 189 -202 204 0 5 -4 6 -10 3 -9 -6 -14 8 -11 28 1 5
-2 6 -7 3 -11 -7 -104 89 -94 98 4 4 0 6 -8 4 -9 -2 -14 4 -14 14 1 10 -2 15
-7 12 -12 -7 -160 146 -153 157 3 5 -3 6 -12 2 -12 -4 -15 -3 -10 5 4 7 2 12
-4 12 -6 0 -8 5 -5 10 4 6 3 9 -2 8 -13 -4 -88 71 -90 90 -1 9 -3 26 -5 37 -2
15 2 19 16 17 12 -2 16 1 10 9 -5 8 -3 9 7 3 8 -4 22 -10 32 -11z m467 5 c0
-4 -4 -10 -10 -13 -5 -3 -10 -1 -10 5 0 6 -4 8 -10 5 -5 -3 -10 -2 -10 4 0 5
9 9 20 8 11 -1 20 -5 20 -9z m64 -4 c3 -8 2 -12 -4 -9 -6 3 -10 10 -10 16 0
14 7 11 14 -7z m156 12 c0 -3 -4 -8 -10 -11 -5 -3 -10 -1 -10 4 0 6 5 11 10
11 6 0 10 -2 10 -4z m140 0 c0 -3 -4 -8 -10 -11 -5 -3 -10 -1 -10 4 0 6 5 11
10 11 6 0 10 -2 10 -4z m461 -9 c-1 -12 -15 -9 -19 4 -3 6 1 10 8 8 6 -3 11
-8 11 -12z m139 5 c0 -4 -10 -9 -22 -9 -18 -2 -20 0 -8 7 18 12 30 13 30 2z
m80 -2 c0 -3 -13 -6 -30 -6 -16 0 -30 3 -30 6 0 4 14 7 30 7 17 0 30 -3 30 -7z
m80 -2 c0 -4 -4 -10 -10 -13 -5 -3 -10 -2 -10 4 0 5 -11 8 -25 7 -13 -2 -22 0
-20 4 6 10 65 8 65 -2z m-1677 -15 c-3 -7 -1 -13 5 -13 5 0 12 -7 15 -14 8
-21 -15 -10 -34 17 -16 21 -16 23 1 23 10 0 16 -6 13 -13z m2318 -36 c-10 -9
-11 -8 -5 6 3 10 9 15 12 12 3 -3 0 -11 -7 -18z m246 -54 c-11 -10 -26 8 -20
23 5 15 7 14 15 -1 6 -9 7 -19 5 -22z m28 19 c-3 -3 -11 0 -18 7 -9 10 -8 11
6 5 10 -3 15 -9 12 -12z m284 -58 c5 4 13 1 16 -5 4 -5 14 -8 22 -5 9 4 11 2
7 -6 -5 -7 -2 -9 9 -5 9 3 21 -1 29 -11 7 -8 8 -13 2 -9 -6 3 -11 -1 -11 -10
0 -12 5 -11 19 7 10 12 18 17 18 11 0 -7 5 -9 12 -5 6 4 8 3 5 -3 -4 -6 0 -16
8 -23 13 -11 14 -10 9 6 -4 14 -4 16 4 5 6 -8 17 -11 26 -8 10 4 19 1 22 -8 4
-8 12 -15 20 -15 8 0 14 -5 14 -11 0 -5 8 -9 18 -8 9 2 26 -2 37 -8 11 -6 25
-12 30 -13 17 -4 40 -24 58 -50 9 -13 17 -20 17 -14 0 5 -6 16 -12 24 -11 12
-10 12 5 1 9 -7 17 -10 17 -5 1 5 10 -2 21 -16 12 -14 24 -24 27 -22 4 2 8 -1
10 -7 2 -6 -1 -11 -8 -11 -6 0 -9 4 -6 9 9 13 -22 7 -34 -7 -7 -9 -7 -9 2 -2
7 6 16 6 24 -1 9 -7 19 -7 32 0 18 9 19 8 15 -12 -5 -22 -5 -22 10 -2 16 20
16 20 12 -2 -2 -13 1 -23 6 -23 6 0 7 -5 3 -12 -4 -7 -3 -8 4 -4 6 4 9 14 6
24 -2 9 1 7 7 -5 7 -13 16 -23 21 -23 5 0 6 6 2 13 -4 6 9 -5 29 -25 39 -39
44 -48 26 -48 -5 0 -7 5 -3 12 4 7 3 8 -5 4 -17 -11 -2 -28 18 -21 10 3 27 -2
38 -12 10 -10 14 -15 8 -11 -6 4 -11 -1 -11 -12 0 -10 3 -17 7 -15 3 3 15 -5
25 -16 10 -11 24 -17 33 -14 8 3 12 3 9 -1 -4 -3 0 -13 8 -21 8 -9 12 -23 9
-34 -4 -11 -2 -19 5 -19 6 0 8 5 5 10 -10 16 11 12 25 -5 7 -8 10 -22 6 -30
-3 -8 -2 -15 3 -15 9 0 51 -35 51 -43 0 -3 -10 -3 -22 -1 -16 3 -18 2 -7 -3 9
-5 15 -16 13 -25 -1 -10 3 -21 8 -25 7 -3 8 -1 4 5 -4 7 -1 12 6 12 9 0 9 3
-2 10 -8 5 -10 10 -5 10 16 0 35 -22 35 -39 0 -8 7 -22 16 -32 8 -9 16 -24 18
-32 1 -8 8 -22 15 -31 7 -9 10 -16 7 -16 -4 0 0 -10 8 -21 8 -12 12 -28 9 -35
-3 -8 1 -14 8 -14 12 0 12 -2 1 -9 -11 -7 -11 -9 2 -14 10 -4 13 -13 9 -23 -5
-13 -3 -15 7 -9 9 5 11 4 6 -3 -4 -6 -2 -21 5 -33 10 -19 9 -21 -7 -16 -14 5
-14 3 4 -9 20 -15 33 -42 14 -30 -5 3 -9 -1 -9 -9 0 -8 4 -12 9 -9 4 3 9 0 9
-5 3 -26 4 -30 12 -37 4 -4 7 -16 7 -27 0 -13 -5 -17 -16 -13 -8 3 -12 2 -9
-4 3 -6 14 -10 23 -11 14 0 13 -2 -3 -9 -17 -7 -17 -9 -2 -9 9 -1 17 -9 17
-18 0 -10 3 -29 7 -42 4 -15 2 -22 -4 -18 -5 3 -10 0 -10 -8 0 -8 4 -12 9 -9
8 5 10 -6 10 -61 1 -49 -1 -57 -14 -49 -7 4 -8 3 -4 -5 6 -9 11 -9 21 -1 10 8
12 2 10 -31 -2 -23 -9 -46 -17 -51 -10 -7 -8 -8 5 -4 14 4 17 2 15 -12 -2 -9
-10 -16 -17 -14 -7 1 -9 -2 -6 -8 4 -6 14 -9 24 -5 12 5 13 3 4 -6 -6 -6 -9
-18 -6 -26 6 -16 -34 -14 -140 9 -29 6 -65 12 -82 14 -16 1 -31 3 -32 3 -2 1
-5 1 -8 2 -2 0 -28 7 -56 14 -29 8 -56 12 -60 9 -4 -2 -10 -1 -13 4 -2 4 -22
9 -42 10 -21 2 -41 6 -44 10 -3 4 -16 8 -30 9 -32 2 -105 11 -105 13 0 2 -33
9 -70 14 -16 3 -30 5 -30 6 0 1 -16 4 -35 7 -19 2 -38 10 -42 16 -6 9 -8 8 -8
-1 0 -7 -5 -10 -10 -7 -6 4 -23 8 -38 11 -25 4 -90 16 -102 19 -3 0 -21 4 -40
8 -19 4 -46 9 -60 12 -14 3 -38 7 -55 9 -16 3 -37 7 -45 10 -8 3 -28 8 -45 10
-16 3 -43 7 -60 10 -16 3 -57 11 -90 17 -33 6 -67 13 -75 16 -8 3 -26 7 -40 9
-40 5 -83 12 -107 18 -11 2 -42 8 -67 11 -25 4 -46 10 -46 14 0 4 -13 6 -30 3
-16 -2 -30 0 -30 4 0 5 -19 10 -42 11 -23 2 -45 8 -50 15 -6 10 -8 10 -8 0 0
-8 -5 -10 -12 -6 -6 4 -23 8 -37 10 -14 1 -27 3 -28 4 -2 1 -11 3 -20 5 -10 1
-34 5 -53 8 -19 4 -46 9 -60 11 -14 3 -26 5 -27 7 -6 4 -24 7 -54 8 -16 0 -28
4 -26 9 3 4 -18 8 -47 10 -28 1 -53 7 -54 12 -2 6 -8 8 -12 5 -10 -6 -192 25
-200 34 -3 3 -14 6 -25 5 -11 0 -33 4 -50 9 -16 5 -38 9 -47 9 -14 -1 -15 2
-6 12 10 11 15 10 26 -1 19 -19 24 -16 12 7 -9 16 -6 22 19 35 27 14 30 13 35
-3 3 -9 4 -5 2 9 -2 21 1 25 16 21 10 -2 18 -1 17 4 -4 21 2 28 11 14 8 -13
10 -12 10 3 0 9 4 17 10 17 5 0 7 -7 4 -15 -4 -8 -1 -15 6 -15 6 0 8 5 5 10
-5 9 6 14 26 12 3 -1 6 6 6 13 0 11 -4 12 -14 4 -7 -6 -13 -7 -13 -3 0 13 43
39 59 35 8 -1 10 2 5 10 -4 7 -3 10 3 6 6 -4 13 0 17 8 3 8 11 15 17 15 7 0 5
-10 -6 -26 -9 -14 -15 -28 -12 -30 2 -2 10 7 17 21 7 14 17 25 22 25 5 0 6 -6
2 -12 -4 -8 -3 -10 2 -5 5 5 9 14 9 20 0 7 12 11 25 10 22 -2 23 -1 7 8 -13 8
-22 7 -33 -1 -9 -9 -14 -9 -14 -1 0 13 44 26 59 17 5 -4 13 -1 17 5 4 7 3 9
-3 6 -6 -4 -14 1 -17 10 -4 10 -4 14 0 10 4 -4 16 0 26 10 10 9 18 13 18 9 0
-4 12 4 27 18 15 14 30 23 35 20 4 -3 11 1 14 10 3 9 12 12 21 9 11 -4 14 -2
9 5 -4 7 -3 12 3 12 5 0 12 -6 14 -12 5 -12 11 17 8 35 -1 5 3 6 9 2 5 -3 20
3 32 15 l22 21 19 -23 c18 -22 18 -22 8 -1 -15 31 -14 35 8 23 26 -13 41 -13
18 1 -14 8 -16 14 -6 25 6 7 15 11 20 8 5 -3 9 0 9 5 0 6 6 11 14 11 8 0 16 3
18 8 8 17 77 61 83 52 3 -5 12 -10 18 -9 9 0 9 2 0 6 -7 2 -13 9 -13 14 0 4 7
5 17 2 10 -4 14 -2 9 5 -6 10 27 36 47 37 4 0 11 5 15 10 9 14 91 66 97 63 2
-2 12 7 20 19 10 14 21 20 32 16 11 -4 14 -3 9 6 -4 6 -4 10 1 9 5 -2 19 7 32
19 13 12 29 19 36 17 7 -3 15 2 18 10 4 9 14 16 22 16 9 0 13 5 9 11 -4 7 1 7
16 -1 15 -8 20 -8 16 -1 -12 19 4 33 21 19 14 -11 15 -10 8 11 -4 15 -4 21 3
17 6 -3 13 0 16 6 3 7 4 2 1 -12 -4 -24 -4 -24 7 3 7 15 15 27 20 27 4 0 17 9
28 20 11 11 26 20 33 20 6 0 -1 -11 -18 -25 -16 -13 -24 -24 -17 -25 6 0 12 4
12 9 0 5 15 16 33 25 17 8 26 16 20 16 -7 0 -13 4 -13 10 0 5 7 6 17 3 11 -4
14 -3 9 5 -4 7 -1 12 9 12 11 0 14 -7 11 -25 -3 -13 -1 -27 4 -30 4 -3 7 3 6
12 -2 10 6 35 17 56 14 28 23 35 32 27 6 -5 15 -6 19 -2 4 4 12 8 17 8 5 1 10
3 12 4 1 1 16 3 32 4 21 2 34 -4 42 -18 9 -15 12 -17 13 -6 0 13 1 13 11 0 7
-10 9 -11 7 -2 -2 8 -7 12 -10 10 -4 -2 -14 6 -22 17 -9 11 -16 16 -16 12 0
-4 -10 -3 -21 4 -12 6 -19 7 -16 2 4 -5 0 -10 -8 -10 -8 0 -15 4 -15 9 0 4 5
8 11 8 5 0 7 6 3 13 -6 8 -3 8 9 -1 9 -8 21 -11 26 -8z m-2972 -68 c-1 -6 7
-10 18 -8 16 2 17 1 5 -7 -8 -6 -10 -11 -5 -11 6 0 3 -5 -5 -10 -9 -6 -10 -10
-3 -10 6 0 15 5 18 11 10 15 54 -28 50 -49 -1 -9 -9 -15 -16 -14 -8 2 -10 0
-6 -4 12 -12 36 -13 44 -2 4 7 1 8 -7 3 -9 -6 -11 -4 -5 5 6 10 11 9 22 -5 7
-11 13 -23 13 -28 0 -4 4 -6 9 -2 6 3 8 -4 6 -16 -3 -17 -1 -19 10 -9 10 8 15
8 21 -1 4 -8 3 -9 -4 -5 -7 4 -12 4 -12 -1 0 -4 13 -14 30 -21 16 -8 29 -17
28 -20 -2 -4 12 -22 30 -39 19 -18 31 -37 27 -43 -4 -6 1 -7 11 -3 14 5 15 3
5 -15 -16 -29 -14 -39 3 -16 15 19 15 19 30 -1 8 -11 13 -29 10 -40 -4 -18 -4
-18 6 -3 10 16 12 16 30 1 10 -9 17 -20 14 -25 -3 -4 1 -8 9 -8 20 0 31 -31
15 -42 -9 -6 -5 -7 10 -3 16 5 22 2 22 -10 0 -9 -4 -14 -8 -11 -5 3 -9 -1 -9
-9 0 -19 13 -19 21 0 3 8 11 15 17 15 8 0 8 -5 -2 -16 -10 -13 -10 -17 0 -24
8 -4 10 -14 7 -21 -4 -8 -1 -6 7 4 17 21 31 22 24 2 -4 -8 -2 -17 4 -20 5 -4
6 -11 3 -17 -4 -7 -2 -8 4 -4 7 4 12 2 12 -3 0 -6 5 -11 12 -11 6 0 1 11 -12
25 -30 32 -17 33 15 0 23 -22 24 -25 7 -35 -15 -9 -14 -10 6 -5 17 5 31 -2 61
-32 23 -23 37 -46 35 -57 -2 -13 0 -16 8 -8 8 8 22 -1 49 -31 41 -45 48 -60
24 -51 -8 4 -12 11 -8 17 4 6 1 7 -7 2 -10 -6 -9 -11 4 -21 10 -7 24 -10 31
-8 7 3 18 -4 24 -15 13 -23 14 -34 3 -27 -4 2 -8 -6 -8 -19 0 -13 4 -21 8 -19
5 3 6 9 3 14 -3 4 3 14 12 21 15 12 16 12 10 -3 -4 -11 -2 -17 5 -15 6 1 13
-4 16 -12 3 -9 0 -11 -8 -6 -9 5 -11 4 -6 -4 6 -8 12 -9 20 -2 16 13 36 -5 36
-32 0 -13 5 -17 16 -13 12 5 15 2 10 -10 -5 -12 -2 -15 11 -10 10 4 14 4 11 0
-10 -9 15 -33 27 -26 6 2 4 -1 -3 -9 -11 -12 -14 -12 -23 1 -9 13 -10 13 -6 0
2 -9 14 -14 26 -13 12 2 24 -4 27 -12 4 -8 9 -13 14 -10 4 2 7 -7 6 -22 -1
-15 5 -28 14 -30 13 -4 13 -3 0 6 -8 5 -11 13 -7 18 5 4 12 1 16 -6 10 -15 3
-51 -10 -51 -5 0 -9 -5 -9 -11 0 -5 5 -7 11 -4 6 4 1 -11 -10 -34 -12 -23 -18
-41 -15 -41 4 0 -1 -10 -12 -22 -10 -12 -13 -18 -6 -14 10 6 9 0 -2 -23 -9
-17 -17 -34 -17 -38 -1 -5 -6 -17 -12 -28 -12 -22 -14 -27 -16 -51 0 -8 -4
-13 -8 -11 -5 3 -9 -6 -9 -19 -1 -13 -5 -32 -10 -42 -4 -9 -8 -19 -9 -22 -1
-3 -6 -16 -12 -30 -6 -14 -14 -40 -18 -57 -4 -21 -13 -33 -23 -33 -10 0 -13
-3 -7 -8 7 -5 7 -17 0 -40 -6 -18 -14 -30 -17 -27 -3 4 -6 0 -5 -7 1 -32 -4
-49 -12 -43 -6 3 -8 -3 -6 -15 2 -11 -1 -22 -6 -25 -5 -4 -7 -11 -4 -16 4 -5
1 -9 -6 -9 -7 0 -10 -3 -6 -6 9 -10 -14 -64 -26 -57 -6 3 -7 1 -3 -6 4 -7 4
-20 0 -29 -9 -22 -12 -33 -17 -56 -2 -11 -9 -22 -15 -24 -7 -2 -10 -8 -7 -13
3 -4 -3 -30 -14 -56 -38 -93 -37 -93 -40 -122 -1 -9 -9 -11 -23 -8 -20 5 -21
4 -7 -6 18 -13 14 -41 -4 -30 -7 4 -5 -2 3 -12 14 -17 13 -18 -3 -12 -12 4
-16 3 -11 -4 8 -14 -16 -89 -28 -89 -5 0 -7 -4 -3 -9 3 -5 -6 -40 -20 -78 -14
-37 -27 -75 -29 -83 -2 -8 -9 -14 -14 -13 -6 2 -9 -4 -6 -12 4 -9 1 -21 -5
-29 -6 -7 -7 -17 -3 -21 4 -5 -2 -5 -12 -1 -15 5 -17 4 -8 -7 9 -10 8 -24 -5
-55 -8 -23 -19 -39 -23 -37 -4 2 -6 -7 -4 -20 1 -14 -3 -31 -10 -38 -7 -7 -11
-18 -8 -26 3 -8 1 -11 -4 -8 -5 3 -10 -9 -11 -26 -1 -17 -8 -34 -14 -38 -6 -4
-8 -12 -5 -18 4 -6 1 -14 -7 -17 -8 -3 -14 -13 -12 -22 1 -9 -2 -22 -7 -28 -5
-7 -11 -23 -13 -35 -3 -13 -9 -33 -14 -44 -17 -36 -28 -67 -30 -86 0 -5 -5 -8
-10 -5 -5 3 -9 0 -8 -7 1 -36 -4 -57 -13 -52 -5 3 -7 0 -4 -9 3 -8 0 -25 -7
-38 -7 -13 -14 -30 -15 -38 -2 -8 -8 -16 -14 -18 -5 -2 -8 -8 -5 -12 8 -14
-41 -138 -60 -152 -6 -5 -5 -8 3 -8 7 0 10 -5 7 -10 -4 -6 -11 -7 -17 -4 -7 4
-8 2 -4 -5 9 -13 -11 -76 -36 -113 -13 -18 -15 -29 -7 -33 7 -5 2 -16 -13 -33
-13 -14 -17 -22 -11 -18 9 5 11 2 7 -8 -3 -9 -10 -16 -15 -16 -4 0 -6 -6 -3
-14 3 -8 0 -17 -5 -21 -6 -3 -9 -11 -6 -16 4 -5 -2 -9 -12 -9 -15 0 -16 -2 -3
-10 13 -9 13 -11 0 -20 -8 -5 -12 -10 -8 -10 7 0 -10 -49 -45 -130 -6 -14 -11
-29 -11 -34 -1 -5 -8 -11 -16 -13 -13 -4 -13 -3 0 6 13 9 13 11 1 11 -11 0 -9
4 5 15 12 9 13 13 4 10 -11 -4 -16 1 -16 14 0 15 3 17 13 9 10 -8 12 -7 7 6
-3 9 -10 16 -14 16 -10 0 -7 51 4 69 6 10 5 12 -2 7 -7 -4 -12 -1 -12 9 0 9 4
14 8 11 5 -3 9 1 9 9 0 8 -4 12 -9 9 -13 -8 -10 10 5 25 6 8 7 11 1 8 -13 -7
-13 121 0 142 7 11 6 12 -5 6 -11 -7 -11 -5 1 10 9 11 10 16 3 11 -9 -5 -13 0
-13 13 0 12 6 21 13 22 9 0 9 2 -1 6 -10 4 -10 8 0 21 7 9 8 13 3 10 -7 -4
-11 10 -12 38 -1 24 2 42 7 39 10 -6 8 15 -4 33 -4 7 -2 20 6 29 11 14 11 16
-2 8 -13 -8 -13 -7 0 10 9 11 10 16 2 11 -8 -5 -12 0 -12 13 0 12 6 21 13 21
7 0 8 3 2 8 -12 8 -18 115 -7 108 4 -3 9 5 9 17 2 17 0 19 -7 7 -8 -13 -10
-12 -10 3 0 9 6 17 13 17 7 0 8 3 2 8 -12 8 -18 115 -7 108 4 -3 9 5 9 17 2
17 0 19 -7 7 -8 -13 -10 -12 -10 3 0 9 6 17 13 17 7 0 8 3 2 8 -12 8 -18 115
-7 108 4 -3 9 5 9 17 2 17 0 19 -7 7 -8 -13 -10 -12 -10 3 0 9 6 17 13 17 7 0
8 3 2 8 -12 9 -18 115 -6 107 11 -6 9 15 -3 33 -4 7 -2 20 6 29 11 14 11 16
-2 8 -13 -8 -13 -7 0 10 9 11 10 16 2 11 -8 -5 -12 0 -12 13 0 12 6 21 13 22
9 0 9 2 -1 6 -10 4 -10 8 0 21 7 9 8 13 3 10 -7 -4 -11 10 -12 38 -1 24 2 42
7 39 10 -6 8 15 -4 33 -4 7 -2 20 6 29 11 14 11 16 -2 8 -13 -8 -13 -7 0 10 9
11 10 16 3 11 -8 -4 -13 -1 -13 9 0 9 4 14 8 11 5 -3 9 1 9 9 0 8 -4 12 -9 9
-13 -8 -10 10 4 25 10 11 10 13 1 7 -14 -8 -18 6 -6 18 11 10 12 37 2 30 -13
-8 -11 10 3 25 8 8 8 11 2 8 -14 -8 -13 41 0 62 7 11 6 12 -5 6 -11 -7 -11 -5
1 10 9 11 10 16 3 11 -9 -5 -13 0 -13 13 0 12 6 21 13 22 9 0 9 2 -1 6 -10 4
-10 8 0 21 7 9 8 13 3 10 -7 -4 -11 10 -12 38 -1 24 2 42 7 39 10 -6 8 15 -4
33 -4 7 -2 20 6 29 11 14 11 16 -2 8 -13 -8 -13 -7 0 10 9 11 10 16 3 11 -8
-4 -13 -1 -13 9 0 9 4 14 8 11 5 -3 9 1 9 9 0 8 -4 12 -9 9 -13 -8 -10 10 4
25 10 11 10 13 1 7 -14 -8 -18 6 -6 18 11 10 12 37 2 30 -13 -8 -11 10 4 25 7
8 7 11 1 8 -14 -8 -13 41 0 62 7 11 6 12 -5 6 -11 -7 -11 -5 1 10 9 11 10 16
2 11 -8 -5 -12 0 -12 13 0 12 6 21 13 22 9 0 9 2 -1 6 -10 4 -10 8 0 21 7 9 8
13 3 10 -7 -4 -11 10 -12 38 -1 24 2 42 7 39 10 -6 8 15 -4 33 -4 7 -2 20 6
29 11 14 11 16 -2 8 -13 -8 -13 -7 0 10 9 11 10 16 3 11 -9 -5 -13 0 -13 13 0
12 6 21 13 21 7 0 8 3 2 8 -12 8 -18 115 -7 108 4 -3 9 5 9 17 2 17 0 19 -7 7
-8 -13 -10 -12 -10 3 0 9 6 17 13 17 7 0 8 3 2 8 -12 8 -18 115 -7 108 4 -3 9
5 9 17 2 17 0 19 -7 7 -8 -13 -10 -12 -10 3 0 9 6 17 13 17 7 0 8 3 2 8 -12 8
-18 115 -7 108 4 -3 9 5 9 17 2 17 0 19 -7 7 -8 -13 -10 -12 -10 3 0 9 6 17
13 17 7 0 8 3 2 8 -12 9 -18 115 -6 107 11 -6 9 15 -3 33 -4 7 -2 20 6 29 11
14 11 16 -2 8 -13 -8 -13 -7 0 10 9 11 10 16 3 11 -9 -5 -13 0 -13 13 0 12 6
21 13 22 9 0 9 2 -1 6 -10 4 -10 8 0 21 7 9 8 13 3 10 -7 -4 -11 10 -12 38 -1
24 2 42 7 39 10 -6 8 15 -4 33 -4 7 -2 20 6 29 11 14 11 16 -2 8 -13 -8 -13
-7 0 10 9 11 10 16 3 11 -8 -4 -13 -1 -13 9 0 9 4 14 8 11 5 -3 9 1 9 9 0 8
-4 12 -9 9 -13 -8 -10 10 5 25 10 11 10 13 0 7 -14 -8 -18 6 -6 18 11 10 12
37 2 30 -13 -8 -11 10 4 25 6 8 7 11 2 8 -7 -3 -11 9 -11 33 0 34 2 38 15 27
14 -10 14 -10 4 4 -7 9 -9 20 -5 24 4 5 2 5 -5 2 -8 -5 -11 9 -10 48 1 30 5
55 9 55 5 0 8 -4 8 -10 0 -5 5 -10 10 -10 17 0 11 18 -8 24 -18 6 -27 36 -10
36 4 0 8 -4 8 -9 0 -13 28 -22 35 -10 4 5 1 8 -7 7 -7 -2 -12 3 -10 10 1 6 -2
12 -7 12 -5 0 -12 8 -16 17 -4 12 5 7 24 -11 16 -16 29 -34 28 -40z m2915 43
c2 -2 1 -3 -1 -2 -2 2 -9 -2 -16 -7 -8 -7 -12 -5 -12 4 0 12 22 16 29 5z m-78
-44 c-4 -8 -11 -12 -16 -9 -6 4 -5 10 3 15 19 12 19 11 13 -6z m846 -347 c0
-6 -6 -5 -15 2 -8 7 -15 14 -15 16 0 2 7 1 15 -2 8 -4 15 -11 15 -16z m-3210
-138 c0 -5 -2 -10 -4 -10 -3 0 -8 5 -11 10 -3 6 -1 10 4 10 6 0 11 -4 11 -10z
m774 -591 c-2 -4 9 -14 26 -22 20 -11 32 -12 36 -5 5 7 2 8 -6 3 -8 -5 -11 -4
-7 3 9 13 43 8 40 -7 -2 -6 2 -11 7 -11 6 0 10 5 10 10 0 6 5 10 11 10 5 0 8
-3 5 -8 -2 -4 2 -16 10 -27 8 -10 14 -14 14 -9 0 6 -5 15 -11 21 -8 8 -8 13 0
17 6 4 11 4 11 -1 0 -8 37 -13 107 -17 17 0 31 -3 31 -6 -1 -19 4 -29 18 -34
14 -5 15 -4 5 8 -9 11 -9 16 0 22 8 4 9 3 5 -5 -5 -8 0 -10 17 -7 14 2 28 1
32 -2 4 -4 18 -7 33 -7 14 0 27 -6 29 -12 3 -7 0 -13 -7 -13 -6 0 -8 6 -4 13
4 7 3 9 -2 4 -5 -5 -9 -12 -9 -15 0 -4 -5 -14 -10 -22 -5 -8 7 -3 27 13 44 33
48 33 48 6 0 -14 5 -19 14 -16 7 3 19 0 25 -6 9 -9 11 -8 5 6 -4 12 -12 16
-23 12 -10 -4 -13 -3 -6 4 6 5 23 7 38 4 21 -4 25 -8 15 -14 -10 -7 -9 -9 5
-10 34 -3 37 -4 35 -14 -2 -5 -6 -9 -10 -7 -11 3 -10 -6 1 -12 4 -3 17 4 27
15 12 13 14 19 5 17 -7 -2 -16 4 -18 12 -3 10 -2 11 4 4 4 -6 18 -10 31 -9 13
1 25 -2 28 -7 3 -4 10 -5 16 -2 7 4 8 2 4 -5 -4 -6 -12 -8 -18 -5 -6 4 -8 2
-4 -4 4 -7 17 -8 39 -1 26 7 34 6 45 -8 7 -10 15 -17 17 -15 12 6 26 1 21 -7
-4 -5 2 -8 11 -7 10 2 21 -4 25 -13 6 -14 7 -14 7 2 1 20 17 23 24 5 2 -7 2
-2 0 12 -3 23 -2 23 10 8 10 -13 16 -15 25 -6 7 7 12 8 12 2 0 -6 18 -10 39
-9 22 1 38 -2 35 -7 -3 -4 0 -16 5 -25 6 -10 11 -13 11 -8 0 6 16 12 36 13 27
2 34 0 28 -10 -6 -10 -5 -11 7 -1 9 7 26 10 40 7 33 -8 72 -15 87 -16 6 -1 12
-5 12 -10 0 -4 5 -8 11 -8 5 0 7 6 3 13 -6 9 -4 9 7 1 8 -6 24 -10 36 -9 12 1
20 -2 17 -7 -3 -4 -1 -8 5 -8 5 0 13 5 16 10 5 8 11 7 20 0 8 -7 18 -9 23 -6
5 3 9 -1 10 -9 1 -8 3 -22 4 -30 1 -8 5 -15 10 -15 5 0 6 9 3 20 -3 11 -2 20
4 20 5 0 13 -10 17 -22 l6 -21 14 24 c7 13 13 19 14 14 0 -10 7 -12 66 -16 18
-1 22 -5 15 -12 -21 -21 -11 -28 11 -8 14 14 25 18 33 11 7 -5 14 -7 17 -4 3
3 9 0 14 -7 5 -9 1 -10 -16 -6 -16 4 -20 3 -12 -5 6 -6 18 -7 29 -3 25 12 54
14 47 4 -2 -4 -10 -7 -17 -5 -7 1 -9 1 -4 -1 4 -3 4 -10 1 -16 -5 -8 -2 -8 7
1 15 14 33 16 24 3 -3 -6 5 -15 17 -21 19 -9 21 -9 8 2 -8 7 -16 22 -18 33 -2
11 1 16 5 10 4 -5 13 -11 18 -12 6 -1 19 -5 29 -9 14 -5 17 -4 11 5 -6 10 -3
11 12 2 11 -6 23 -7 27 -4 3 3 6 1 6 -6 0 -7 5 -9 10 -6 6 3 13 -1 16 -9 3 -9
12 -16 19 -16 7 0 15 -3 18 -7 2 -5 2 -3 1 4 -2 7 1 15 6 18 6 4 10 1 10 -6 0
-6 8 -9 19 -6 24 6 64 -20 55 -35 -4 -7 -2 -8 4 -4 9 5 9 13 1 28 -9 16 -8 19
3 12 7 -5 21 -9 31 -10 9 -1 19 -3 22 -4 3 -1 9 -3 15 -4 5 0 16 -10 24 -21
15 -20 15 -20 9 3 -3 13 -1 22 6 22 6 0 10 -3 10 -7 -5 -29 24 -53 37 -31 4 6
3 8 -4 4 -6 -3 -13 -2 -16 3 -4 5 -2 12 3 15 5 4 12 2 15 -3 4 -5 17 -8 29 -7
20 2 23 -1 21 -21 -3 -26 11 -31 20 -7 4 10 2 13 -7 8 -6 -4 -9 -3 -4 1 10 12
47 14 47 3 0 -4 -5 -8 -12 -8 -6 0 -8 -3 -5 -6 4 -4 13 -1 22 6 8 7 16 10 16
6 1 -3 3 -10 4 -16 1 -5 3 -16 4 -22 1 -10 4 -9 10 1 5 8 6 21 3 30 -5 14 -3
14 11 3 9 -8 22 -10 28 -6 8 4 9 3 5 -4 -4 -8 3 -10 24 -7 16 2 32 0 35 -5 3
-5 13 -6 23 -3 14 5 15 3 5 -8 -19 -19 -16 -33 3 -15 11 11 25 14 47 10 18 -4
43 -7 57 -8 14 -1 31 -5 38 -9 6 -5 16 -5 22 -2 5 3 8 0 5 -7 -3 -7 4 -24 14
-37 14 -18 20 -21 26 -11 5 8 4 11 -2 7 -6 -4 -14 0 -17 9 -5 12 -2 15 9 10
10 -3 13 -2 10 5 -4 6 -14 8 -22 5 -8 -3 -11 -1 -8 4 11 18 35 11 44 -12 7
-20 3 -27 -33 -49 -22 -14 -44 -27 -49 -27 -4 -1 -13 -6 -20 -12 -44 -38 -61
-50 -67 -50 -4 0 -17 -9 -30 -20 -13 -12 -31 -18 -39 -15 -9 3 -12 3 -9 -1 8
-7 -15 -34 -29 -34 -5 0 -18 -8 -29 -17 -23 -21 -101 -73 -109 -73 -4 0 -13
-7 -22 -16 -9 -8 -22 -13 -30 -10 -8 3 -12 2 -9 -2 6 -10 -30 -43 -38 -35 -3
4 -6 1 -6 -5 0 -7 -7 -12 -15 -12 -8 0 -15 -4 -15 -10 0 -5 -7 -10 -15 -10 -8
0 -15 -4 -15 -8 0 -13 -76 -52 -85 -44 -5 4 -5 1 -1 -6 4 -7 0 -15 -11 -19
-10 -4 -20 -9 -23 -12 -3 -3 -21 -15 -40 -25 -19 -11 -37 -22 -40 -25 -9 -11
-65 -45 -69 -42 -2 1 -7 -2 -10 -7 -8 -14 -221 -153 -221 -145 0 4 -6 -1 -13
-12 -9 -11 -19 -15 -27 -10 -8 5 -11 4 -7 -2 4 -6 -11 -22 -33 -37 -22 -14
-40 -23 -40 -19 0 4 -6 -1 -13 -12 -9 -11 -19 -15 -27 -10 -9 5 -11 4 -6 -3 4
-7 -8 -21 -31 -34 -21 -13 -40 -23 -43 -23 -3 0 -16 -10 -30 -23 -13 -12 -30
-20 -37 -18 -7 3 -12 2 -10 -2 1 -4 -1 -8 -5 -9 -5 -2 -17 -12 -28 -23 -12
-12 -26 -18 -32 -14 -6 4 -8 3 -5 -3 8 -13 -20 -26 -35 -16 -6 3 -8 1 -4 -5 7
-12 -33 -44 -46 -36 -4 3 -8 1 -8 -4 0 -10 -105 -83 -116 -81 -4 0 -10 -3 -13
-8 -7 -11 -105 -78 -109 -75 -1 1 -12 -7 -24 -18 -12 -11 -28 -18 -35 -16 -7
3 -13 -1 -13 -10 0 -8 -8 -17 -17 -21 -10 -4 -38 -20 -63 -37 -25 -17 -48 -30
-52 -28 -5 1 -8 -2 -8 -8 0 -5 -16 -17 -35 -26 -19 -9 -35 -21 -35 -26 0 -5
-4 -6 -10 -3 -5 3 -10 1 -10 -6 0 -7 -3 -10 -6 -7 -3 4 -14 -2 -25 -13 -31
-31 -59 -8 -35 29 4 8 3 11 -5 10 -6 -2 -14 3 -17 11 -3 10 0 11 9 5 11 -6 11
-5 0 10 -14 17 -22 54 -25 113 0 17 -4 29 -8 26 -7 -4 -13 37 -9 60 0 4 -4 7
-11 7 -9 0 -9 3 -1 11 9 9 8 18 -4 35 -8 13 -12 28 -9 33 4 5 2 12 -4 16 -5 3
-9 16 -9 28 0 20 -7 62 -11 62 -2 0 -6 22 -13 68 -2 15 -7 30 -11 34 -3 3 0
13 7 21 10 13 9 14 -2 7 -11 -6 -13 -4 -8 8 3 10 2 17 -3 17 -5 0 -8 13 -6 30
2 16 0 31 -4 32 -5 2 -10 17 -13 33 -3 17 -11 53 -17 80 -7 28 -14 61 -16 75
-9 67 -11 78 -19 90 -6 9 -4 11 6 5 11 -6 10 -4 -1 11 -9 10 -16 35 -15 56 0
20 -3 34 -7 32 -7 -5 -10 14 -11 83 -1 12 -5 20 -9 17 -8 -5 -10 10 -11 64 -1
12 -5 22 -11 22 -5 0 -7 3 -3 6 3 3 2 17 -4 31 -7 18 -6 22 4 17 8 -5 8 -2 -2
9 -7 9 -10 17 -5 17 5 0 2 5 -6 10 -12 8 -13 11 -1 19 10 6 10 10 1 13 -6 2
-13 16 -13 31 -1 15 -6 27 -11 27 -5 0 -3 7 4 15 9 11 9 15 1 15 -7 0 -9 5 -6
10 3 6 1 10 -4 10 -6 0 -11 5 -11 11 0 5 5 7 11 3 7 -4 5 6 -4 22 -18 33 -40
142 -31 155 3 5 1 9 -4 9 -12 0 -12 32 1 48 7 9 6 11 -5 7 -8 -3 -15 0 -16 7
0 7 -3 24 -7 38 -8 34 -17 90 -19 120 -1 14 -5 30 -8 35 -4 6 2 11 12 11 10 0
17 -3 14 -7z m46 -9 c0 -5 -2 -10 -4 -10 -3 0 -8 5 -11 10 -3 6 -1 10 4 10 6
0 11 -4 11 -10z m750 -140 c3 -1 10 -1 15 0 6 1 6 -2 2 -6 -13 -13 -36 -13
-47 1 -9 10 -7 13 7 10 10 -2 20 -4 23 -5z m195 -39 c-9 -8 -36 -10 -30 -2 2
4 11 8 20 8 8 0 13 -3 10 -6z m-1145 -119 c0 -13 -12 -22 -22 -16 -10 6 -1 24
13 24 5 0 9 -4 9 -8z m5 -31 c-3 -5 0 -13 6 -16 5 -4 8 -14 5 -22 -3 -8 -2
-23 4 -33 9 -17 19 -70 23 -120 1 -14 6 -28 12 -32 7 -5 6 -14 -3 -28 -10 -16
-10 -20 0 -18 8 2 13 -6 12 -19 0 -13 3 -23 8 -23 4 0 8 -5 8 -11 0 -5 -4 -8
-9 -4 -5 3 -13 0 -17 -6 -4 -8 -3 -9 4 -5 6 3 16 -2 22 -13 7 -14 7 -22 -2
-27 -7 -5 -8 -3 -3 6 6 9 4 11 -4 6 -12 -8 -7 -20 10 -22 22 -3 23 -5 9 -14
-13 -9 -13 -10 0 -11 10 0 8 -3 -5 -9 -15 -7 -16 -9 -4 -9 10 -1 19 -13 22
-28 3 -16 9 -37 12 -48 6 -19 6 -19 -8 -2 -13 16 -15 16 -21 2 -3 -9 -2 -14 3
-11 14 9 38 -28 36 -56 -1 -16 2 -28 7 -28 4 0 8 -5 8 -11 0 -5 -4 -8 -8 -5
-4 2 -8 -6 -8 -19 0 -13 4 -21 8 -19 5 3 5 10 2 16 -4 7 -2 8 4 4 6 -4 10 -20
8 -36 -2 -17 1 -30 7 -30 7 0 7 -4 -1 -12 -7 -7 -12 -17 -12 -22 0 -6 4 -5 8
2 6 8 12 1 19 -23 10 -30 9 -35 -5 -36 -14 0 -13 -2 3 -9 11 -5 14 -9 7 -9
-10 -1 -10 -5 2 -16 17 -17 11 -49 -8 -38 -6 3 -7 2 -3 -3 5 -5 13 -9 19 -9 6
0 12 -9 14 -19 2 -11 5 -31 9 -44 4 -17 2 -22 -6 -16 -7 4 -9 3 -5 -4 3 -5 3
-12 -1 -15 -5 -2 -3 -2 4 -1 7 2 15 -1 18 -6 4 -6 0 -10 -7 -10 -11 0 -11 -2
0 -8 7 -5 15 -21 18 -37 3 -16 7 -32 10 -36 2 -4 -1 -11 -7 -15 -8 -5 -7 -9 2
-14 16 -11 22 -43 6 -33 -7 3 -4 -3 6 -14 17 -20 24 -48 9 -39 -5 3 -9 -1 -9
-9 0 -8 5 -11 10 -8 6 4 8 -3 5 -15 -4 -14 -2 -20 5 -15 6 4 8 0 4 -10 -3 -10
-2 -17 3 -17 6 0 10 -5 10 -11 0 -5 -4 -8 -8 -5 -4 2 -8 -4 -8 -14 0 -10 3
-18 6 -18 20 2 21 -4 4 -17 -16 -13 -17 -14 -1 -9 10 4 17 3 16 -2 -1 -5 1
-17 6 -27 4 -9 5 -26 2 -37 -3 -11 -1 -20 5 -20 5 0 6 -5 3 -10 -4 -6 -12 -7
-18 -4 -7 4 -8 3 -4 -2 5 -5 14 -9 20 -9 5 0 11 -10 12 -22 1 -12 -2 -20 -7
-17 -4 3 -8 0 -8 -5 0 -6 8 -11 18 -11 15 -1 15 -2 -3 -17 -18 -14 -18 -15 -1
-9 14 5 17 2 12 -9 -3 -8 -2 -15 3 -15 11 0 10 -33 -1 -47 -7 -9 -5 -15 6 -19
9 -3 13 -10 10 -15 -3 -5 -1 -9 5 -9 5 0 9 -12 9 -27 0 -16 1 -34 3 -42 2 -8
-20 -30 -51 -52 -30 -21 -61 -43 -67 -49 -7 -6 -13 -7 -13 -3 0 4 -5 0 -11
-10 -8 -14 -14 -16 -25 -6 -12 10 -13 9 -8 -7 4 -10 4 -16 0 -12 -4 3 -19 -3
-33 -15 -13 -12 -29 -22 -34 -22 -5 0 -13 -5 -17 -11 -4 -5 -25 -21 -47 -34
-22 -13 -44 -28 -50 -32 -20 -16 -81 -57 -125 -84 -25 -15 -48 -32 -52 -38 -4
-6 -8 -7 -8 -3 0 4 -9 -1 -20 -11 -11 -10 -33 -25 -48 -33 -15 -8 -33 -20 -40
-26 -7 -7 -17 -13 -21 -13 -4 0 -17 -9 -29 -20 -12 -12 -22 -18 -22 -15 0 4
-7 -1 -16 -10 -9 -9 -23 -14 -31 -11 -8 3 -12 2 -9 -3 8 -12 -42 -44 -55 -36
-5 4 -8 2 -7 -3 4 -14 -131 -104 -144 -96 -6 4 -8 3 -5 -3 5 -8 -182 -140
-192 -134 -2 2 -7 -1 -10 -6 -9 -14 -98 -73 -110 -73 -6 0 -11 -3 -11 -7 0 -5
-11 -13 -25 -20 -14 -6 -25 -7 -25 -2 0 5 5 9 11 9 7 0 9 10 7 25 -3 13 -2 22
2 20 11 -7 22 24 14 37 -5 7 2 9 19 6 15 -3 24 -1 21 3 -3 5 -12 9 -19 9 -9 0
-12 6 -9 15 4 8 11 12 18 8 8 -4 8 -2 -1 7 -13 14 -6 43 9 34 6 -4 8 1 4 14
-5 14 -1 24 11 31 11 6 13 11 5 11 -7 0 -10 5 -7 10 4 6 10 8 15 5 5 -3 12 0
16 6 4 8 3 9 -4 5 -7 -4 -12 -1 -12 9 0 9 4 14 9 10 5 -3 13 -1 16 5 4 6 3 10
-2 9 -18 -3 -27 2 -16 9 7 4 14 17 16 27 9 46 20 75 29 75 5 0 8 6 7 13 -3 25
1 38 11 32 7 -4 9 3 6 19 -2 13 0 26 6 28 7 3 13 13 14 24 6 45 45 137 66 154
13 11 17 19 11 20 -7 0 -13 -5 -13 -12 0 -6 -3 -8 -6 -5 -4 3 1 22 10 42 10
20 19 45 21 56 2 12 10 28 17 37 7 8 12 16 11 16 -7 3 11 46 19 46 5 0 6 5 3
10 -3 6 -1 10 4 10 6 0 11 5 11 11 0 5 -5 7 -11 3 -7 -4 -10 -1 -7 7 3 8 12
13 21 11 8 -1 18 2 22 8 3 6 0 7 -9 4 -19 -7 -20 4 -5 43 6 15 9 28 8 28 -1 0
8 19 20 43 12 23 19 42 15 42 -4 0 -1 7 6 15 7 8 9 15 4 15 -4 0 1 7 12 16 10
8 12 12 4 8 -12 -5 -12 -4 -3 6 6 7 9 18 7 25 -3 7 -1 16 5 20 7 4 9 -1 5 -12
-5 -15 -4 -15 4 -3 7 9 7 19 2 26 -6 6 -6 14 -2 18 4 4 7 12 7 16 0 5 9 16 20
25 11 9 14 14 8 10 -7 -3 -13 -1 -13 4 0 6 5 11 11 11 5 0 7 5 4 10 -3 6 -1
10 5 10 6 0 8 4 5 10 -3 5 -2 10 3 10 5 0 8 11 7 25 -2 15 1 23 7 19 6 -4 8
-1 6 7 -3 8 -1 22 4 32 5 10 11 28 13 39 3 12 10 26 16 32 9 8 10 7 4 -3 -6
-10 -4 -12 4 -7 9 6 9 11 0 22 -14 17 2 19 21 1 8 -6 6 -2 -3 10 -11 12 -14
24 -9 27 6 3 13 0 15 -6 4 -9 6 -10 6 -1 1 6 -3 15 -9 18 -17 10 -11 25 13 35
20 8 20 9 3 9 -15 1 -17 4 -8 13 8 8 15 8 29 -3 16 -12 16 -12 0 8 -20 22 -15
49 6 36 7 -4 5 2 -3 12 -13 17 -13 18 1 13 9 -4 16 -1 16 8 0 7 -4 11 -9 8 -4
-3 -5 2 -2 10 3 9 11 13 17 9 5 -3 7 -1 3 5 -8 13 15 102 27 102 4 0 6 -4 3
-8 -3 -5 1 -9 9 -9 20 0 19 13 -2 22 -17 7 -16 8 2 15 11 5 14 9 7 9 -9 1 -10
6 -3 19 5 9 10 22 10 27 3 22 46 125 53 125 4 0 4 7 1 17 -4 10 -2 14 4 10 7
-5 9 0 6 13 -3 12 0 20 6 20 7 0 9 5 6 10 -3 6 -1 10 4 10 6 0 11 5 11 11 0 5
-5 7 -12 3 -7 -4 -8 -3 -4 5 4 6 12 9 17 6 5 -4 9 -1 9 4 0 6 -6 11 -12 12
-10 0 -10 2 0 6 6 2 12 11 12 19 0 8 5 14 10 14 6 0 10 5 10 11 0 5 -4 7 -10
4 -6 -3 -7 1 -4 9 3 9 10 16 16 16 5 0 7 4 3 9 -3 5 -1 12 5 16 6 4 7 11 4 17
-5 7 -1 9 9 5 9 -3 19 -1 23 5 4 6 3 8 -4 4 -16 -10 -25 13 -12 29 7 8 9 15 5
15 -4 0 -2 6 4 13 6 8 8 17 4 20 -3 4 -1 7 6 7 7 0 9 5 6 10 -4 6 -1 18 6 26
9 11 14 12 19 4 5 -8 9 -4 12 8 4 14 2 19 -6 16 -7 -3 -13 2 -13 11 0 10 6 14
16 10 8 -3 12 -3 8 1 -4 4 -1 14 6 22 9 13 9 14 0 8 -7 -4 -13 -3 -13 2 0 6 7
12 15 16 8 3 15 11 15 18 0 9 -3 8 -10 -2 -6 -10 -10 -11 -10 -2 0 6 9 21 20
32 11 11 16 20 10 20 -17 0 6 45 31 57 29 15 32 16 24 4z m1930 -1 c3 -5 1
-10 -4 -10 -6 0 -11 5 -11 10 0 6 2 10 4 10 3 0 8 -4 11 -10z m800 -160 c3 -6
-1 -7 -9 -4 -18 7 -21 14 -7 14 6 0 13 -4 16 -10z m183 -149 c8 -24 7 -31 -5
-35 -12 -5 -13 -9 -3 -21 10 -12 10 -15 -1 -15 -9 0 -10 -3 -2 -11 13 -13 -4
-78 -27 -97 -13 -11 -13 -12 0 -10 20 4 14 -31 -8 -50 -10 -7 -11 -11 -4 -7 7
4 12 0 12 -10 0 -9 -4 -14 -9 -11 -4 3 -7 -6 -5 -19 1 -15 -4 -29 -14 -35 -14
-8 -14 -9 -2 -10 12 0 12 -2 2 -9 -8 -4 -13 -11 -13 -15 5 -34 0 -48 -15 -42
-14 5 -15 4 -5 -8 10 -12 9 -20 -3 -39 -9 -13 -13 -27 -9 -30 3 -4 1 -7 -5 -7
-7 0 -11 -3 -10 -8 4 -11 -35 -102 -43 -102 -4 0 -10 -13 -14 -30 -4 -16 -11
-30 -16 -30 -5 0 -9 -7 -9 -15 0 -8 -5 -15 -11 -15 -5 0 -8 -4 -5 -8 3 -5 -4
-18 -14 -30 -11 -12 -20 -24 -20 -27 0 -10 -74 -105 -82 -105 -4 0 -8 -5 -8
-10 0 -12 -163 -175 -205 -205 -16 -11 -34 -26 -41 -32 -7 -7 -17 -13 -23 -13
-6 0 -11 -4 -11 -10 0 -5 -5 -10 -11 -10 -6 0 -17 -6 -24 -12 -33 -30 -45 -38
-45 -33 0 4 -7 -1 -16 -10 -9 -9 -23 -14 -31 -11 -8 3 -11 2 -8 -3 7 -12 -134
-83 -148 -74 -6 3 -7 1 -3 -5 4 -7 2 -12 -3 -12 -22 0 -26 -2 -41 -14 -8 -8
-23 -12 -33 -11 -9 2 -15 -1 -12 -5 6 -10 -31 -24 -44 -16 -5 3 -12 -1 -15
-10 -5 -14 -9 -14 -23 -3 -9 8 -14 9 -10 2 7 -11 -36 -28 -188 -72 -92 -27
-275 -62 -285 -56 -5 3 -11 1 -14 -4 -3 -5 -24 -8 -45 -7 -22 0 -37 -2 -35 -6
2 -3 -13 -6 -33 -6 -21 0 -40 -1 -43 -2 -17 -6 -57 -10 -143 -14 -54 -3 -102
-8 -107 -11 -5 -3 -11 -1 -15 5 -4 6 -11 7 -17 4 -16 -10 -98 -12 -104 -3 -3
5 -11 6 -17 2 -19 -12 -57 -11 -57 1 0 6 -4 5 -9 -3 -6 -9 -10 -10 -16 -2 -5
9 -10 9 -21 0 -11 -9 -14 -8 -14 2 0 11 -2 11 -10 -1 -7 -11 -10 -11 -10 -2 0
8 -5 10 -12 6 -8 -5 -9 -2 -5 9 3 9 1 19 -5 23 -6 4 -8 3 -5 -3 4 -6 0 -17 -9
-24 -13 -10 -17 -10 -24 1 -6 10 -4 18 8 24 9 5 24 15 34 23 12 11 18 11 24 2
4 -8 3 -10 -4 -5 -8 5 -10 1 -6 -9 6 -14 9 -13 21 5 9 13 22 20 33 17 14 -3
17 -1 13 11 -4 9 -2 13 4 9 7 -5 9 0 6 13 -4 14 0 20 11 20 9 0 16 4 16 10 0
10 39 34 46 27 2 -2 -11 -15 -30 -28 -30 -21 -32 -26 -18 -38 13 -12 14 -12
10 0 -5 16 39 59 62 60 10 0 11 2 3 6 -7 2 -13 9 -13 14 0 4 8 5 17 2 13 -5
15 -3 9 12 -4 11 -4 16 0 12 4 -3 19 2 34 13 15 11 30 17 34 13 3 -3 6 2 7 13
0 11 3 13 6 6 2 -6 10 -9 16 -5 6 4 8 0 4 -10 -3 -10 -2 -17 3 -17 13 0 13 23
-1 37 -8 8 -1 14 25 23 23 7 34 16 30 23 -5 9 -4 9 6 0 7 -6 19 -9 28 -6 11 5
13 3 7 -7 -5 -8 -4 -11 3 -6 6 4 9 13 5 22 -4 11 -9 12 -19 3 -10 -8 -14 -8
-14 0 0 6 4 11 8 11 5 0 22 11 37 24 25 21 62 26 50 7 -2 -4 3 -8 11 -8 10 0
11 4 4 11 -14 14 -12 33 4 33 8 0 12 -7 9 -16 -2 -9 5 0 16 19 18 31 27 33 22
7 -1 -5 3 -5 9 -2 6 4 9 13 6 20 -6 17 13 35 32 28 10 -4 13 -2 8 5 -4 8 -2
10 7 6 8 -3 18 0 23 7 4 8 3 10 -4 5 -7 -4 -12 -4 -12 -1 0 3 13 11 30 16 16
6 27 15 24 20 -3 5 3 6 12 2 13 -5 15 -3 9 8 -8 12 -6 12 8 1 14 -12 19 -12
33 2 8 9 20 13 26 10 7 -4 8 -2 4 5 -6 9 -14 8 -32 -4 -13 -8 -24 -12 -24 -7
0 8 52 42 65 42 3 0 3 -4 0 -10 -3 -5 -1 -10 5 -10 6 0 10 10 8 21 -2 15 3 23
15 25 9 1 15 -2 12 -6 -3 -5 0 -12 6 -16 7 -4 9 -3 6 3 -10 16 18 23 34 10 11
-10 11 -9 0 6 -15 20 -2 23 19 5 12 -11 12 -10 1 4 -10 14 -9 17 8 23 12 3 21
11 21 16 0 5 -18 -2 -40 -16 -22 -14 -40 -22 -40 -18 0 5 26 24 57 43 31 19
63 42 71 50 14 13 15 13 9 -2 -4 -12 -2 -15 8 -11 8 3 13 8 10 13 -2 4 7 18
20 30 14 13 25 20 25 15 0 -4 9 0 20 10 23 21 52 13 44 -12 -5 -15 -4 -15 5
-3 6 9 7 18 1 24 -16 16 -11 29 5 16 13 -11 14 -10 10 2 -3 8 3 23 15 33 11
10 20 15 20 11 0 -4 16 5 35 20 19 14 35 23 35 18 0 -4 6 0 13 10 12 16 14 17
15 2 1 -9 3 -23 4 -31 1 -8 5 -12 10 -9 4 3 4 13 -1 22 -9 19 -4 42 10 42 4 0
6 -6 3 -14 -3 -8 0 -17 7 -22 8 -5 10 -3 4 5 -4 8 2 21 14 32 12 11 18 25 15
31 -4 7 -2 8 5 4 6 -4 8 -12 5 -18 -4 -7 -2 -8 4 -4 6 4 8 14 5 24 -6 15 -5
15 10 4 17 -15 38 -8 36 11 0 9 -2 9 -6 0 -5 -15 -23 -17 -23 -4 0 5 9 13 20
16 12 4 17 11 14 18 -4 7 -3 9 1 4 5 -4 22 5 38 20 17 16 27 23 24 17 -4 -7 0
-14 8 -17 10 -4 12 -1 8 10 -4 9 -2 14 3 11 12 -8 35 17 26 28 -4 5 3 0 16
-10 12 -11 22 -14 22 -8 0 6 -6 12 -12 15 -7 2 -10 8 -6 12 4 4 13 3 21 -3 9
-8 17 -8 27 0 12 8 12 9 -2 4 -12 -3 -18 0 -18 9 0 9 6 12 17 8 10 -4 14 -2 9
5 -12 20 26 31 53 15 25 -14 25 -14 6 1 -17 14 -18 18 -5 26 8 5 21 10 28 10
8 0 10 5 6 13 -4 6 3 3 17 -8 13 -11 18 -13 12 -5 -17 19 -16 30 3 30 8 0 13
-4 10 -8 -2 -4 4 -9 15 -9 19 -2 18 -1 -2 16 -17 14 -19 20 -9 26 9 5 11 4 6
-3 -4 -7 -2 -12 3 -12 6 0 11 5 11 10 0 6 12 16 28 23 15 6 33 20 40 30 13 17
15 17 40 1 21 -13 24 -14 15 -2 -7 8 -9 19 -5 23 4 5 1 5 -7 0 -9 -5 -12 -4
-7 3 4 7 14 12 22 12 8 0 14 4 14 10 0 5 7 6 17 3 12 -5 14 -3 8 8 -4 8 -5 11
0 7 5 -5 15 1 22 12 8 11 19 18 24 15 5 -4 9 -1 9 4 0 6 9 11 21 11 11 0 17 4
14 10 -3 5 6 12 20 16 15 4 22 11 18 18 -4 6 1 5 10 -3 15 -12 17 -12 12 2
-10 24 12 29 28 7 13 -18 15 -19 21 -5 3 9 2 14 -3 11 -5 -3 -11 1 -15 9 -6
16 10 30 18 16 3 -5 15 -7 27 -4 15 4 17 8 8 14 -8 5 -17 3 -22 -4 -6 -8 -7
-7 -4 3 2 8 10 14 16 13 6 -2 11 3 11 10 1 6 7 1 16 -13 11 -19 14 -20 10 -5
-3 11 -2 25 2 31 9 14 72 35 82 29 5 -3 12 0 16 6 4 8 9 7 16 -2 8 -11 9 -11
5 1 -4 15 -27 17 -62 5 -13 -4 -11 -1 5 8 14 9 28 13 31 11 4 -2 9 3 13 11 3
9 12 12 22 8 12 -4 15 -3 10 5 -4 7 -3 12 2 12 6 0 15 -13 20 -29z m-1008
-627 c0 -8 -19 -13 -24 -6 -3 5 1 9 9 9 8 0 15 -2 15 -3z m705 -463 c3 -5 2
-12 -3 -15 -5 -3 -9 1 -9 9 0 17 3 19 12 6z m-1923 -343 c-7 -7 -12 -8 -12 -2
0 6 3 14 7 17 3 4 9 5 12 2 2 -3 -1 -11 -7 -17z m-22 -12 c0 -3 -4 -8 -10 -11
-5 -3 -10 -1 -10 4 0 6 5 11 10 11 6 0 10 -2 10 -4z m1315 -56 c3 -5 -1 -10
-9 -10 -9 0 -16 5 -16 10 0 6 4 10 9 10 6 0 13 -4 16 -10z m-208 -73 c0 -7 -9
-14 -19 -14 -23 -2 -24 14 0 20 9 3 17 5 18 6 0 0 1 -5 1 -12z m-144 -45 c-5
-11 -7 -11 -14 0 -7 11 -9 10 -9 -1 0 -8 -3 -12 -6 -8 -9 9 3 24 20 24 8 0 12
-6 9 -15z m-1244 -19 c-12 -15 -12 -16 2 -11 11 4 15 0 14 -15 -1 -12 2 -27 7
-33 5 -8 3 -14 -7 -18 -9 -3 -13 -2 -10 4 3 5 -1 22 -9 37 -8 16 -15 21 -16
13 0 -12 -2 -13 -9 -1 -6 9 -11 10 -15 2 -6 -10 6 -15 27 -12 7 1 8 -4 11 -39
1 -8 8 -14 15 -12 8 2 10 -4 6 -17 -3 -11 -1 -22 4 -25 14 -9 2 -37 -13 -29
-6 3 -2 -3 8 -15 11 -12 15 -22 10 -22 -6 0 -10 -9 -11 -20 -1 -13 2 -18 10
-13 9 5 8 2 0 -9 -7 -8 -10 -18 -6 -21 9 -9 11 -57 2 -57 -3 0 -6 -10 -5 -22
1 -13 -3 -26 -9 -30 -6 -5 -3 -8 7 -8 11 0 15 -5 12 -15 -4 -8 -10 -12 -15 -9
-5 3 -6 -2 -3 -10 3 -9 10 -13 15 -10 5 3 6 -2 3 -10 -3 -8 -13 -12 -22 -9 -9
3 -6 -3 7 -12 23 -17 23 -19 6 -32 -13 -9 -14 -13 -5 -13 7 0 10 -3 7 -6 -3
-4 -2 -15 3 -25 7 -12 7 -20 0 -24 -7 -4 -6 -14 2 -28 10 -21 10 -21 -7 -7
-17 14 -17 14 -7 -7 15 -27 15 -36 1 -27 -6 3 -3 -6 7 -21 10 -15 13 -30 8
-33 -5 -4 -10 -15 -12 -26 -2 -13 1 -16 10 -10 11 6 11 5 0 -8 -9 -11 -10 -18
-2 -23 7 -4 7 -12 0 -25 -13 -25 -13 -33 3 -24 7 5 6 -1 -4 -16 -15 -23 -59
-36 -59 -17 0 5 -5 5 -13 -1 -8 -7 -18 -7 -27 -2 -8 5 -21 5 -31 -1 -12 -6
-19 -5 -22 4 -3 9 -7 9 -19 -1 -12 -9 -18 -10 -23 -2 -5 8 -10 8 -20 0 -10 -8
-15 -8 -20 0 -5 8 -10 8 -20 0 -10 -8 -15 -8 -20 0 -5 8 -10 8 -20 0 -10 -8
-15 -8 -20 0 -5 8 -10 8 -20 0 -10 -8 -15 -8 -20 0 -5 8 -10 8 -20 0 -10 -8
-15 -8 -20 0 -5 8 -10 8 -20 0 -10 -8 -15 -8 -20 0 -4 6 -12 7 -18 3 -7 -5
-25 -7 -42 -6 -29 3 -42 4 -67 2 -7 0 -25 2 -40 4 -14 2 -32 1 -39 -4 -8 -4
-19 -3 -26 3 -9 7 -13 7 -13 -1 0 -8 -6 -9 -17 -3 -20 9 -60 8 -70 -2 -3 -3
-12 -1 -20 5 -9 9 -13 8 -13 0 0 -8 -6 -9 -18 -3 -19 9 -59 8 -69 -2 -3 -3
-12 -1 -20 5 -10 9 -13 8 -13 0 0 -7 -5 -9 -11 -5 -17 10 -52 11 -71 2 -10 -5
-19 -4 -23 2 -3 5 -11 10 -16 10 -6 0 -8 -4 -5 -8 6 -11 -37 -10 -45 1 -3 4
-17 4 -30 -2 -16 -5 -31 -5 -42 0 -12 7 -17 6 -17 -3 0 -10 -2 -10 -9 1 -7 10
-13 11 -31 1 -16 -8 -20 -9 -15 -1 4 8 -2 10 -19 7 -15 -3 -24 -1 -21 4 3 4
16 7 30 6 29 -4 81 45 70 65 -5 7 -4 10 2 6 6 -4 16 0 23 8 7 8 21 15 32 15
10 0 17 4 14 9 -7 11 20 22 38 15 8 -3 17 0 21 5 3 6 11 8 17 5 7 -4 8 -2 4 5
-6 9 -11 9 -21 1 -10 -8 -15 -8 -21 1 -4 8 -3 9 4 5 7 -4 12 -3 12 3 0 5 13
12 30 16 17 4 30 13 30 20 0 8 5 17 12 21 6 4 8 3 5 -3 -10 -17 28 -22 48 -7
10 8 14 14 9 14 -6 0 -15 -5 -21 -11 -7 -7 -12 -6 -17 6 -3 9 -2 13 4 10 6 -3
10 -1 10 5 0 6 11 15 25 20 14 5 25 14 25 19 0 5 12 8 26 6 18 -2 31 6 46 26
15 20 25 26 33 19 9 -8 12 -4 11 12 0 13 5 23 12 24 6 1 17 2 23 3 5 0 7 6 3
13 -4 7 -3 8 5 4 6 -4 8 -13 5 -19 -4 -7 -4 -9 1 -5 4 4 15 2 23 -5 11 -8 10
-3 -3 18 -11 17 -15 27 -11 23 5 -4 23 4 41 17 17 14 37 25 44 25 7 0 9 5 6
10 -11 17 7 11 21 -7 12 -17 13 -16 8 3 -3 12 1 26 10 33 9 8 16 10 16 6 0 -4
9 3 21 16 11 13 18 18 14 12 -11 -23 5 -14 42 22 19 19 38 33 42 32 3 -1 17 8
30 20 13 12 28 20 32 17 4 -2 13 5 19 16 6 11 15 18 20 15 4 -3 15 1 23 10 13
13 16 13 21 0 3 -8 11 -15 18 -14 10 0 10 2 1 6 -22 8 -15 36 7 30 11 -3 23
-1 26 4 3 5 10 7 15 4 5 -4 9 -1 9 5 0 7 -7 10 -15 6 -25 -9 -17 8 12 26 24
14 29 14 52 1 22 -13 23 -13 9 0 -21 16 -25 42 -5 30 18 -11 36 -12 42 -3 3 5
-4 7 -16 5 -21 -4 -21 -4 -3 14 12 11 22 14 26 8 6 -10 58 16 58 28 0 3 -11
-2 -25 -11 -14 -9 -25 -12 -25 -8 0 9 58 47 75 49 6 0 9 7 7 14 -1 7 2 10 8 6
5 -3 10 -1 10 6 0 7 3 9 6 6 4 -4 1 -14 -7 -24z m268 -66 c6 -4 13 -2 15 5 3
8 6 7 10 -3 7 -17 -37 -25 -47 -9 -4 6 -11 7 -17 4 -6 -4 -8 -2 -5 4 8 11 25
11 44 -1z m-1067 -451 c0 -2 -6 -9 -14 -15 -11 -9 -16 -9 -22 0 -4 8 -3 9 4 5
7 -4 12 -2 12 3 0 6 5 11 10 11 6 0 10 -2 10 -4z m-381 -262 c-13 -14 -25 -20
-27 -15 -2 6 -9 8 -15 4 -7 -3 -8 -2 -4 2 4 5 15 10 25 11 9 2 18 8 20 13 2 6
9 11 15 11 6 0 0 -12 -14 -26z"/>
<path d="M975 4712 c-3 -3 -5 -10 -5 -16 0 -6 5 -4 10 4 7 11 10 11 10 2 0 -7
5 -10 10 -7 6 3 10 -1 10 -9 0 -8 4 -17 9 -20 5 -4 7 4 3 16 -4 16 -2 19 9 13
11 -6 12 -5 2 5 -13 14 -49 21 -58 12z"/>
<path d="M1056 4712 c-3 -3 -6 -10 -6 -16 0 -6 5 -4 10 4 6 9 10 10 10 3 0 -6
9 -11 20 -10 13 1 16 5 10 11 -12 12 -36 16 -44 8z"/>
<path d="M1735 4710 c-3 -5 -5 -10 -3 -11 33 -8 38 -7 27 7 -14 17 -16 17 -24
4z"/>
<path d="M717 4690 c-9 -12 -9 -13 3 -3 11 10 18 9 34 -5 11 -9 16 -11 12 -4
-7 12 0 15 37 15 10 0 15 2 12 5 -13 13 -86 7 -98 -8z"/>
<path d="M879 4693 c-13 -16 -12 -17 4 -4 9 7 17 15 17 17 0 8 -8 3 -21 -13z"/>
<path d="M2420 4701 c0 -6 4 -13 10 -16 6 -3 7 1 4 9 -7 18 -14 21 -14 7z"/>
<path d="M2525 4699 c-4 -6 -5 -12 -2 -15 2 -3 7 2 10 11 7 17 1 20 -8 4z"/>
<path d="M2644 4701 c4 -6 2 -11 -3 -11 -6 0 -11 -5 -11 -11 0 -5 4 -8 9 -5 5
4 11 3 14 -1 2 -5 2 -2 0 6 -2 8 2 11 12 7 22 -8 18 2 -6 15 -15 8 -19 8 -15
0z"/>
<path d="M1243 4690 c-13 -5 -23 -11 -23 -14 0 -7 40 6 46 15 6 10 6 10 -23
-1z"/>
<path d="M2368 4693 c-10 -2 -18 -9 -18 -14 0 -6 8 -5 20 1 11 6 20 13 20 15
0 3 -1 4 -2 4 -2 -1 -11 -3 -20 -6z"/>
<path d="M2734 4689 c-4 -7 -3 -9 4 -5 5 3 12 0 15 -6 2 -7 7 -10 11 -7 4 3 0
12 -8 18 -11 9 -16 9 -22 0z"/>
<path d="M2826 4693 c-11 -11 -6 -23 9 -23 8 0 15 4 15 9 0 13 -16 22 -24 14z"/>
<path d="M895 4680 c-3 -6 1 -7 9 -4 18 7 21 14 7 14 -6 0 -13 -4 -16 -10z"/>
<path d="M1375 4680 c3 -5 8 -10 11 -10 2 0 4 5 4 10 0 6 -5 10 -11 10 -5 0
-7 -4 -4 -10z"/>
<path d="M1716 4682 c-3 -5 1 -9 9 -9 8 0 12 4 9 9 -3 4 -7 8 -9 8 -2 0 -6 -4
-9 -8z"/>
<path d="M1875 4679 c-3 -4 2 -6 10 -5 21 3 28 13 10 13 -9 0 -18 -4 -20 -8z"/>
<path d="M1970 4679 c0 -5 5 -7 10 -4 6 3 10 8 10 11 0 2 -4 4 -10 4 -5 0 -10
-5 -10 -11z"/>
<path d="M2210 4679 c0 -5 5 -7 10 -4 6 3 10 8 10 11 0 2 -4 4 -10 4 -5 0 -10
-5 -10 -11z"/>
<path d="M2295 4680 c3 -5 8 -10 11 -10 2 0 4 5 4 10 0 6 -5 10 -11 10 -5 0
-7 -4 -4 -10z"/>
<path d="M2876 4675 c-16 -12 -17 -15 -4 -15 9 0 18 7 22 15 7 18 6 18 -18 0z"/>
<path d="M730 4671 c0 -6 4 -13 10 -16 6 -3 7 1 4 9 -7 18 -14 21 -14 7z"/>
<path d="M2938 4673 c6 -2 9 -10 6 -15 -4 -7 -2 -8 5 -4 13 9 5 26 -12 25 -9
0 -8 -2 1 -6z"/>
<path d="M3181 4604 c0 -11 3 -14 6 -6 3 7 2 16 -1 19 -3 4 -6 -2 -5 -13z"/>
<path d="M3153 4595 c0 -8 4 -12 9 -9 5 3 6 10 3 15 -9 13 -12 11 -12 -6z"/>
<path d="M3505 4520 c-3 -6 1 -7 9 -4 18 7 21 14 7 14 -6 0 -13 -4 -16 -10z"/>
<path d="M3653 4515 c0 -8 4 -15 9 -15 4 0 8 4 8 9 0 6 -4 12 -8 15 -5 3 -9
-1 -9 -9z"/>
<path d="M3455 4501 c-3 -5 -2 -12 3 -15 5 -3 9 1 9 9 0 17 -3 19 -12 6z"/>
<path d="M3725 4502 c-5 -4 -11 -12 -12 -19 -3 -13 22 -12 34 2 5 4 2 5 -6 0
-11 -6 -13 -4 -8 8 7 19 6 20 -8 9z"/>
<path d="M3817 4458 c7 -8 10 -18 6 -22 -4 -4 0 -4 9 -1 9 4 19 1 23 -4 3 -6
11 -9 16 -6 5 4 13 -4 18 -17 6 -14 10 -17 10 -7 1 9 -8 24 -19 34 -11 10 -20
15 -20 10 0 -4 -12 1 -27 11 -20 13 -25 13 -16 2z"/>
<path d="M3778 4448 c5 -5 16 -8 23 -6 8 3 3 7 -10 11 -17 4 -21 3 -13 -5z"/>
<path d="M3348 4423 c7 -3 16 -2 19 1 4 3 -2 6 -13 5 -11 0 -14 -3 -6 -6z"/>
<path d="M3270 4402 c0 -5 7 -9 15 -9 8 0 12 4 9 9 -3 4 -9 8 -15 8 -5 0 -9
-4 -9 -8z"/>
<path d="M3856 4402 c-3 -5 1 -9 9 -9 8 0 12 4 9 9 -3 4 -7 8 -9 8 -2 0 -6 -4
-9 -8z"/>
<path d="M3950 4384 c0 -8 5 -12 10 -9 6 4 8 11 5 16 -9 14 -15 11 -15 -7z"/>
<path d="M3255 4360 c-3 -5 -1 -10 4 -10 6 0 11 5 11 10 0 6 -2 10 -4 10 -3 0
-8 -4 -11 -10z"/>
<path d="M3210 4339 c0 -5 5 -7 10 -4 6 3 10 8 10 11 0 2 -4 4 -10 4 -5 0 -10
-5 -10 -11z"/>
<path d="M3146 4321 c2 -2 -1 -10 -7 -17 -7 -8 -6 -14 2 -20 7 -4 9 -3 5 4 -7
12 27 35 38 25 3 -3 6 -2 6 4 0 6 -11 10 -24 9 -13 0 -22 -3 -20 -5z"/>
<path d="M3085 4290 c-10 -12 -13 -20 -7 -20 7 0 12 5 12 11 0 5 4 8 9 4 5 -3
12 -1 15 4 12 19 -12 20 -29 1z"/>
<path d="M4033 4295 c0 -8 4 -12 9 -9 5 3 6 10 3 15 -9 13 -12 11 -12 -6z"/>
<path d="M4106 4273 c-6 -14 -5 -15 5 -6 7 7 10 15 7 18 -3 3 -9 -2 -12 -12z"/>
<path d="M3013 4248 c-7 -13 7 -28 25 -27 15 1 15 2 0 6 -10 2 -18 9 -18 13 0
6 10 6 23 1 16 -7 24 -6 24 2 0 13 -46 17 -54 5z"/>
<path d="M4114 4249 c-3 -6 -1 -16 6 -22 10 -9 11 -9 5 2 -4 8 -2 17 6 22 9 6
10 9 2 9 -6 0 -15 -5 -19 -11z"/>
<path d="M2974 4218 c-4 -6 -3 -8 4 -4 5 3 12 1 14 -6 3 -8 6 -9 11 -1 4 6 0
13 -8 17 -8 3 -17 0 -21 -6z"/>
<path d="M2958 4193 c7 -3 16 -2 19 1 4 3 -2 6 -13 5 -11 0 -14 -3 -6 -6z"/>
<path d="M4176 4183 c-6 -14 -5 -15 5 -6 7 7 10 15 7 18 -3 3 -9 -2 -12 -12z"/>
<path d="M2917 4179 c-9 -6 -15 -14 -12 -20 10 -15 22 -10 28 11 3 11 4 20 4
20 -1 0 -10 -5 -20 -11z"/>
<path d="M2847 4135 c-12 -8 -14 -15 -8 -20 6 -3 11 -1 11 5 0 7 6 10 14 7 8
-3 20 2 28 11 11 15 11 16 -4 4 -9 -7 -18 -9 -20 -3 -2 5 -11 4 -21 -4z"/>
<path d="M4234 4122 c4 -3 14 -7 22 -8 9 -1 13 0 10 4 -4 3 -14 7 -22 8 -9 1
-13 0 -10 -4z"/>
<path d="M2745 4065 c-22 -19 -36 -35 -32 -35 5 0 15 7 24 16 9 8 22 13 30 10
8 -3 11 -1 8 5 -4 5 -1 16 5 24 20 24 8 17 -35 -20z"/>
<path d="M2790 4069 c0 -5 5 -7 10 -4 6 3 10 8 10 11 0 2 -4 4 -10 4 -5 0 -10
-5 -10 -11z"/>
<path d="M4315 4060 c-3 -5 -1 -10 4 -10 6 0 11 5 11 10 0 6 -2 10 -4 10 -3 0
-8 -4 -11 -10z"/>
<path d="M2694 4022 c3 -5 0 -13 -6 -15 -9 -4 -10 -6 -1 -6 17 -1 25 16 12 25
-7 4 -9 3 -5 -4z"/>
<path d="M4330 3999 c0 -5 5 -7 10 -4 6 3 10 8 10 11 0 2 -4 4 -10 4 -5 0 -10
-5 -10 -11z"/>
<path d="M2590 3961 c-14 -27 -13 -34 3 -19 8 7 14 18 14 25 0 18 -5 16 -17
-6z"/>
<path d="M2553 3925 c0 -8 4 -12 9 -9 4 3 8 9 8 15 0 5 -4 9 -8 9 -5 0 -9 -7
-9 -15z"/>
<path d="M2485 3889 c-4 -6 -4 -13 -1 -16 3 -4 6 -1 6 6 0 8 8 10 23 6 17 -5
19 -4 7 4 -19 14 -27 14 -35 0z"/>
<path d="M2461 3874 c0 -11 3 -14 6 -6 3 7 2 16 -1 19 -3 4 -6 -2 -5 -13z"/>
<path d="M2430 3855 c-7 -8 -16 -13 -20 -10 -5 3 -11 1 -14 -4 -4 -5 -2 -12 3
-15 5 -4 12 -2 16 4 4 6 11 7 17 4 6 -4 8 -2 4 4 -3 5 0 12 6 15 7 2 10 7 7
11 -3 4 -12 0 -19 -9z"/>
<path d="M4410 3865 c0 -7 30 -13 34 -7 3 4 -4 9 -15 9 -10 1 -19 0 -19 -2z"/>
<path d="M4450 3821 c0 -5 8 -15 18 -22 15 -12 16 -12 5 2 -7 9 -10 19 -6 22
3 4 1 7 -5 7 -7 0 -12 -4 -12 -9z"/>
<path d="M2226 3732 c-2 -4 -1 -14 4 -22 7 -11 9 -9 7 8 -1 24 -3 26 -11 14z"/>
<path d="M4470 3716 c0 -2 8 -10 18 -17 15 -13 16 -12 3 4 -13 16 -21 21 -21
13z"/>
<path d="M2070 3601 c0 -6 5 -13 12 -17 6 -4 8 -3 4 4 -3 5 0 13 6 15 8 3 6 6
-4 6 -10 1 -18 -3 -18 -8z"/>
<path d="M4537 3539 c7 -7 15 -10 18 -7 3 3 -2 9 -12 12 -14 6 -15 5 -6 -5z"/>
<path d="M610 4462 c0 -4 10 -13 23 -21 22 -14 22 -14 3 8 -20 22 -26 25 -26
13z"/>
<path d="M670 4376 c0 -2 7 -9 15 -16 13 -11 14 -10 9 4 -5 14 -24 23 -24 12z"/>
<path d="M736 4312 c-2 -4 4 -8 14 -8 10 0 16 4 14 8 -3 4 -9 8 -14 8 -5 0
-11 -4 -14 -8z"/>
<path d="M746 4278 c4 -5 12 -7 20 -4 7 3 16 1 19 -4 4 -6 12 -10 18 -10 17 1
-24 24 -45 25 -9 1 -15 -2 -12 -7z"/>
<path d="M813 4235 c0 -8 4 -15 9 -15 4 0 8 7 8 15 0 8 -4 15 -8 15 -5 0 -9
-7 -9 -15z"/>
<path d="M929 4121 c6 -10 7 -21 4 -25 -3 -3 -1 -6 5 -6 15 0 11 38 -5 45 -10
3 -11 0 -4 -14z"/>
<path d="M956 4083 c-6 -14 -5 -15 5 -6 7 7 10 15 7 18 -3 3 -9 -2 -12 -12z"/>
<path d="M1118 3903 c7 -3 16 -2 19 1 4 3 -2 6 -13 5 -11 0 -14 -3 -6 -6z"/>
<path d="M1145 3891 c-3 -5 0 -13 6 -17 8 -4 9 -3 5 4 -4 7 -2 12 3 12 6 0 11
-7 11 -15 0 -8 2 -15 4 -15 2 0 12 -3 21 -6 11 -5 9 2 -8 20 -26 28 -33 31
-42 17z"/>
<path d="M1230 3823 c1 -11 40 -57 44 -52 3 2 -7 17 -20 32 -13 15 -24 24 -24
20z"/>
<path d="M1210 3800 c0 -5 5 -10 11 -10 5 0 7 5 4 10 -3 6 -8 10 -11 10 -2 0
-4 -4 -4 -10z"/>
<path d="M1315 3720 c-3 -5 -1 -10 4 -10 6 0 11 5 11 10 0 6 -2 10 -4 10 -3 0
-8 -4 -11 -10z"/>
<path d="M1391 3627 c-13 -20 -13 -21 2 -8 14 11 17 11 17 1 0 -8 3 -11 6 -7
3 3 2 12 -3 21 -7 13 -11 12 -22 -7z"/>
<path d="M1439 3553 c-13 -16 -12 -17 4 -4 9 7 17 15 17 17 0 8 -8 3 -21 -13z"/>
<path d="M1506 3521 c-3 -5 2 -15 12 -22 15 -12 16 -12 5 2 -7 9 -10 19 -6 22
3 4 4 7 0 7 -3 0 -8 -4 -11 -9z"/>
<path d="M553 795 c0 -8 4 -12 9 -9 5 3 6 10 3 15 -9 13 -12 11 -12 -6z"/>
<path d="M556 753 c-6 -14 -5 -15 5 -6 7 7 10 15 7 18 -3 3 -9 -2 -12 -12z"/>
<path d="M545 720 c-3 -5 -1 -10 4 -10 6 0 11 5 11 10 0 6 -2 10 -4 10 -3 0
-8 -4 -11 -10z"/>
<path d="M1813 3395 c0 -8 4 -12 8 -9 5 3 19 0 31 -6 21 -10 21 -10 -2 9 -30
25 -37 26 -37 6z"/>
<path d="M1890 3380 c0 -5 5 -10 11 -10 5 0 7 5 4 10 -3 6 -8 10 -11 10 -2 0
-4 -4 -4 -10z"/>
<path d="M1983 3366 c-2 -19 -1 -19 8 -3 8 14 14 16 25 6 10 -8 14 -8 14 0 0
6 -3 11 -7 12 -5 0 -15 2 -23 4 -10 2 -16 -5 -17 -19z"/>
<path d="M1936 3367 c3 -10 9 -15 12 -12 3 3 0 11 -7 18 -10 9 -11 8 -5 -6z"/>
<path d="M2060 3365 c-10 -13 -11 -18 -1 -28 10 -9 11 -8 5 7 -5 12 -4 17 3
13 5 -3 10 0 10 8 0 19 -2 19 -17 0z"/>
<path d="M2154 3334 c0 -22 9 -24 12 -3 1 5 2 12 3 15 0 4 8 1 16 -6 8 -7 12
-16 9 -21 -3 -5 -3 -9 0 -9 3 0 10 10 17 21 8 15 8 19 0 15 -6 -4 -17 -4 -23
1 -24 14 -34 11 -34 -13z"/>
<path d="M2443 3302 c-7 -4 -9 -13 -4 -21 6 -9 10 -7 14 8 3 12 4 21 4 21 -1
0 -7 -4 -14 -8z"/>
<path d="M2508 3263 c6 -2 18 -2 25 0 6 3 1 5 -13 5 -14 0 -19 -2 -12 -5z"/>
<path d="M2690 3238 c0 -11 12 -10 30 2 12 7 10 9 -8 7 -12 0 -22 -5 -22 -9z"/>
<path d="M2750 3245 c0 -5 5 -17 10 -25 5 -8 10 -10 10 -5 0 6 -5 17 -10 25
-5 8 -10 11 -10 5z"/>
<path d="M2730 3220 c0 -5 5 -10 11 -10 5 0 7 5 4 10 -3 6 -8 10 -11 10 -2 0
-4 -4 -4 -10z"/>
<path d="M2874 3208 c-3 -5 -3 -12 0 -15 3 -4 6 -1 6 4 0 12 25 12 36 0 4 -4
12 -7 18 -7 13 1 -23 23 -41 26 -7 1 -16 -2 -19 -8z"/>
<path d="M2953 3192 c1 -22 17 -32 17 -10 0 9 3 9 12 0 7 -7 17 -12 23 -12 5
0 1 6 -10 12 -11 7 -22 11 -24 9 -2 -1 -7 3 -12 11 -6 9 -8 6 -6 -10z"/>
<path d="M3020 3178 c0 -4 7 -8 15 -8 8 0 15 4 15 8 0 5 -7 9 -15 9 -8 0 -15
-4 -15 -9z"/>
<path d="M3087 3172 c-13 -12 -17 -13 -17 -2 0 7 -2 11 -5 8 -8 -8 6 -38 17
-38 5 0 6 5 3 10 -3 6 4 14 16 18 12 5 18 11 12 15 -5 3 -17 -1 -26 -11z"/>
<path d="M3230 3139 c0 -5 4 -8 9 -4 6 3 14 -2 19 -11 8 -15 10 -15 15 0 4 10
3 14 -2 11 -5 -3 -12 -1 -16 5 -8 13 -25 13 -25 -1z"/>
<path d="M3201 3117 c-13 -21 -12 -21 5 -5 10 10 16 20 13 22 -3 3 -11 -5 -18
-17z"/>
<path d="M3321 3126 c-9 -10 -8 -15 2 -19 8 -3 13 3 13 14 0 23 0 23 -15 5z"/>
<path d="M3467 3099 c7 -7 15 -10 18 -7 3 3 -2 9 -12 12 -14 6 -15 5 -6 -5z"/>
<path d="M3506 3091 c-4 -5 -1 -13 5 -17 8 -5 9 -3 4 6 -6 10 -4 12 8 7 10 -4
24 -10 32 -13 8 -3 15 -2 15 3 0 5 -6 10 -12 10 -7 0 -20 4 -29 7 -10 4 -20 3
-23 -3z"/>
<path d="M3656 3062 c-3 -4 4 -9 15 -9 23 -2 25 3 4 10 -8 4 -16 3 -19 -1z"/>
<path d="M3626 3043 c-6 -14 -5 -15 5 -6 7 7 10 15 7 18 -3 3 -9 -2 -12 -12z"/>
<path d="M3741 3051 c-9 -6 -10 -11 -2 -15 6 -4 11 -2 11 5 0 6 9 1 20 -12 10
-13 19 -20 20 -16 0 17 -36 46 -49 38z"/>
<path d="M3886 3017 c3 -10 9 -15 12 -12 3 3 0 11 -7 18 -10 9 -11 8 -5 -6z"/>
<path d="M3942 2985 c3 -3 16 -8 28 -10 12 -2 20 -1 16 2 -4 4 -16 8 -28 10
-12 2 -19 1 -16 -2z"/>
<path d="M4025 2980 c-3 -6 1 -7 9 -4 18 7 21 14 7 14 -6 0 -13 -4 -16 -10z"/>
<path d="M4059 2973 c-13 -17 -13 -17 6 -3 11 8 22 16 24 17 2 2 0 3 -6 3 -6
0 -17 -8 -24 -17z"/>
<path d="M4105 2983 c3 -4 -5 -12 -17 -19 l-23 -12 26 1 c24 2 33 19 16 32 -4
3 -5 2 -2 -2z"/>
<path d="M4160 2960 c-9 -6 -10 -10 -3 -10 6 0 15 5 18 10 8 12 4 12 -15 0z"/>
<path d="M4186 2953 c-6 -14 -5 -15 5 -6 7 7 10 15 7 18 -3 3 -9 -2 -12 -12z"/>
<path d="M4224 2948 c9 -5 26 -11 38 -13 12 -3 25 -10 30 -17 4 -7 8 -8 8 -3
0 24 -21 39 -56 41 -28 1 -33 -1 -20 -8z"/>
<path d="M2027 2333 c3 -7 6 -13 8 -13 2 0 5 6 8 13 3 8 -1 14 -8 14 -7 0 -11
-6 -8 -14z"/>
<path d="M1635 3070 c-5 -8 11 -60 18 -60 1 0 3 12 2 28 0 19 4 26 15 24 8 -2
11 0 7 4 -11 11 -36 14 -42 4z"/>
<path d="M1620 2999 c0 -5 5 -7 10 -4 6 3 10 8 10 11 0 2 -4 4 -10 4 -5 0 -10
-5 -10 -11z"/>
<path d="M1680 2989 c0 -5 -4 -8 -9 -4 -5 3 -12 1 -15 -4 -4 -5 2 -8 11 -7 15
3 33 26 19 26 -3 0 -6 -5 -6 -11z"/>
<path d="M1456 2535 c-9 -26 -7 -32 5 -12 6 10 9 21 6 23 -2 3 -7 -2 -11 -11z"/>
<path d="M1770 2541 c0 -6 4 -13 10 -16 6 -3 7 1 4 9 -7 18 -14 21 -14 7z"/>
<path d="M1395 2411 c-3 -5 -2 -12 3 -15 5 -3 9 1 9 9 0 17 -3 19 -12 6z"/>
<path d="M1810 2320 c0 -5 5 -10 10 -10 6 0 10 5 10 10 0 6 -4 10 -10 10 -5 0
-10 -4 -10 -10z"/>
<path d="M1255 2040 c3 -5 8 -10 11 -10 2 0 4 5 4 10 0 6 -5 10 -11 10 -5 0
-7 -4 -4 -10z"/>
<path d="M1222 1927 c10 -8 14 -18 10 -22 -4 -5 -1 -5 6 -1 17 10 15 14 -10
26 -21 10 -21 10 -6 -3z"/>
<path d="M1195 1881 c-3 -5 0 -13 6 -17 7 -4 9 -3 5 4 -3 5 0 13 6 15 9 4 10
6 1 6 -6 1 -14 -3 -18 -8z"/>
<path d="M1190 1830 c0 -5 5 -10 11 -10 5 0 7 5 4 10 -3 6 -8 10 -11 10 -2 0
-4 -4 -4 -10z"/>
<path d="M1140 1720 c8 -5 20 -10 25 -10 6 0 3 5 -5 10 -8 5 -19 10 -25 10 -5
0 -3 -5 5 -10z"/>
<path d="M1975 1520 c3 -5 8 -10 11 -10 2 0 4 5 4 10 0 6 -5 10 -11 10 -5 0
-7 -4 -4 -10z"/>
<path d="M1055 1500 c-3 -5 -1 -10 4 -10 6 0 11 5 11 10 0 6 -2 10 -4 10 -3 0
-8 -4 -11 -10z"/>
<path d="M1996 1382 c-3 -5 1 -9 9 -9 8 0 12 4 9 9 -3 4 -7 8 -9 8 -2 0 -6 -4
-9 -8z"/>
<path d="M977 1272 c-15 -16 -15 -19 -2 -19 8 0 13 3 10 5 -3 3 0 11 6 19 17
20 5 16 -14 -5z"/>
<path d="M906 1093 c-6 -14 -5 -15 5 -6 7 7 10 15 7 18 -3 3 -9 -2 -12 -12z"/>
<path d="M879 1013 c-12 -16 -12 -17 2 -6 9 7 20 9 24 5 5 -4 5 -1 1 6 -9 16
-11 15 -27 -5z"/>
<path d="M810 846 c0 -2 7 -7 16 -10 8 -3 12 -2 9 4 -6 10 -25 14 -25 6z"/>
<path d="M813 795 c0 -8 4 -12 9 -9 5 3 6 10 3 15 -9 13 -12 11 -12 -6z"/>
<path d="M750 680 c0 -5 7 -7 15 -4 8 4 15 8 15 10 0 2 -7 4 -15 4 -8 0 -15
-4 -15 -10z"/>
<path d="M715 539 c-4 -6 -4 -13 -1 -16 3 -4 6 -1 6 6 0 7 5 9 12 5 7 -4 8 -3
4 4 -9 15 -13 15 -21 1z"/>
<path d="M4554 2774 c9 -6 14 -14 11 -17 -3 -4 -2 -5 2 -2 15 12 10 31 -9 31
-17 0 -17 -2 -4 -12z"/>
<path d="M4490 2719 c0 -5 5 -7 10 -4 6 3 10 8 10 11 0 2 -4 4 -10 4 -5 0 -10
-5 -10 -11z"/>
<path d="M4455 2700 c-3 -6 1 -7 9 -4 18 7 21 14 7 14 -6 0 -13 -4 -16 -10z"/>
<path d="M4295 2600 c3 -5 8 -10 11 -10 2 0 4 5 4 10 0 6 -5 10 -11 10 -5 0
-7 -4 -4 -10z"/>
<path d="M4225 2569 c-11 -16 -1 -19 13 -3 7 8 8 14 3 14 -5 0 -13 -5 -16 -11z"/>
<path d="M4196 2555 c-3 -8 -1 -15 4 -15 6 0 10 7 10 15 0 8 -2 15 -4 15 -2 0
-6 -7 -10 -15z"/>
<path d="M4175 2519 c-11 -16 -1 -19 13 -3 7 8 8 14 3 14 -5 0 -13 -5 -16 -11z"/>
<path d="M4130 2500 c0 -5 5 -10 11 -10 5 0 7 5 4 10 -3 6 -8 10 -11 10 -2 0
-4 -4 -4 -10z"/>
<path d="M4090 2459 c0 -5 5 -7 10 -4 6 3 10 8 10 11 0 2 -4 4 -10 4 -5 0 -10
-5 -10 -11z"/>
<path d="M4022 2438 c-15 -15 -15 -28 0 -28 6 0 8 3 5 7 -4 3 -2 12 4 20 14
16 7 17 -9 1z"/>
<path d="M3910 2365 c0 -7 30 -13 34 -7 3 4 -4 9 -15 9 -10 1 -19 0 -19 -2z"/>
<path d="M3863 2342 c-7 -4 -9 -13 -4 -21 6 -9 10 -7 14 8 3 12 4 21 4 21 -1
0 -7 -4 -14 -8z"/>
<path d="M3691 2226 c-19 -20 -20 -24 -6 -30 10 -3 14 -2 10 5 -4 6 1 19 11
30 25 28 12 24 -15 -5z"/>
<path d="M3766 2238 c3 -5 10 -6 15 -3 13 9 11 12 -6 12 -8 0 -12 -4 -9 -9z"/>
<path d="M3714 2219 c-3 -6 -1 -16 6 -22 10 -9 11 -9 5 2 -4 8 -2 17 6 22 9 6
10 9 2 9 -6 0 -15 -5 -19 -11z"/>
<path d="M3620 2140 c-9 -6 -10 -10 -3 -10 6 0 15 5 18 10 8 12 4 12 -15 0z"/>
<path d="M3480 2085 c-7 -9 -8 -15 -2 -15 5 0 12 7 16 15 3 8 4 15 2 15 -2 0
-9 -7 -16 -15z"/>
<path d="M3445 2060 c-4 -6 -10 -8 -15 -5 -4 3 -13 -2 -19 -9 -10 -12 -9 -14
6 -11 10 2 21 4 24 4 7 1 21 31 14 31 -2 0 -7 -5 -10 -10z"/>
<path d="M3410 2011 c0 -6 4 -13 10 -16 6 -3 7 1 4 9 -7 18 -14 21 -14 7z"/>
<path d="M3325 1979 c-4 -6 -4 -13 -1 -16 3 -4 6 -1 6 6 0 7 5 9 12 5 7 -4 8
-3 4 4 -9 15 -13 15 -21 1z"/>
<path d="M3285 1960 c-16 -17 -16 -20 -3 -15 9 4 19 13 22 21 7 19 2 18 -19
-6z"/>
<path d="M3276 1922 c-2 -4 4 -8 14 -8 10 0 16 4 14 8 -3 4 -9 8 -14 8 -5 0
-11 -4 -14 -8z"/>
<path d="M3205 1904 c-16 -12 -17 -14 -2 -14 9 0 17 5 17 10 0 7 6 7 20 0 11
-6 20 -8 20 -6 0 16 -37 23 -55 10z"/>
<path d="M3080 1806 c0 -2 8 -10 18 -17 15 -13 16 -12 3 4 -13 16 -21 21 -21
13z"/>
<path d="M2935 1720 c-3 -5 -1 -10 4 -10 6 0 11 5 11 10 0 6 -2 10 -4 10 -3 0
-8 -4 -11 -10z"/>
<path d="M2910 1690 c-9 -6 -10 -10 -3 -10 6 0 15 5 18 10 8 12 4 12 -15 0z"/>
<path d="M2820 1626 c0 -2 7 -7 16 -10 8 -3 12 -2 9 4 -6 10 -25 14 -25 6z"/>
<path d="M2725 1590 c-10 -11 -13 -20 -7 -20 7 0 12 6 12 13 0 8 3 7 10 -3 7
-12 9 -10 7 8 -2 27 0 26 -22 2z"/>
<path d="M2650 1520 c0 -5 5 -10 10 -10 6 0 10 5 10 10 0 6 -4 10 -10 10 -5 0
-10 -4 -10 -10z"/>
<path d="M2617 1509 c7 -7 15 -10 18 -7 3 3 -2 9 -12 12 -14 6 -15 5 -6 -5z"/>
<path d="M2542 1467 c-8 -10 -5 -16 11 -27 20 -12 21 -12 9 3 -8 9 -11 21 -7
27 9 14 0 13 -13 -3z"/>
<path d="M2514 1419 c-2 -33 4 -33 11 -1 2 12 1 24 -3 26 -4 2 -8 -9 -8 -25z"/>
<path d="M2466 1378 c3 -5 10 -6 15 -3 13 9 11 12 -6 12 -8 0 -12 -4 -9 -9z"/>
<path d="M2340 1306 c0 -2 7 -7 16 -10 8 -3 12 -2 9 4 -6 10 -25 14 -25 6z"/>
<path d="M2260 1279 c0 -5 5 -7 10 -4 6 3 10 8 10 11 0 2 -4 4 -10 4 -5 0 -10
-5 -10 -11z"/>
<path d="M2010 1079 c0 -5 5 -7 10 -4 6 3 10 8 10 11 0 2 -4 4 -10 4 -5 0 -10
-5 -10 -11z"/>
<path d="M1863 1022 c-7 -4 -9 -13 -4 -21 6 -9 10 -7 14 8 3 12 4 21 4 21 -1
0 -7 -4 -14 -8z"/>
<path d="M1719 933 c0 -5 -2 -16 -4 -25 -2 -10 0 -20 4 -22 3 -2 7 9 7 25 1
16 0 29 -2 29 -2 0 -4 -3 -5 -7z"/>
<path d="M1746 924 c-5 -14 -4 -15 9 -4 17 14 19 20 6 20 -5 0 -12 -7 -15 -16z"/>
<path d="M1672 898 c-7 -7 -12 -18 -12 -24 0 -7 -9 -11 -20 -9 -11 2 -20 0
-20 -5 0 -17 43 -5 48 12 3 14 7 16 18 7 10 -8 14 -8 14 0 0 6 -5 11 -11 11
-5 0 -7 5 -4 10 8 14 2 13 -13 -2z"/>
<path d="M2056 843 c-6 -14 -5 -15 5 -6 7 7 10 15 7 18 -3 3 -9 -2 -12 -12z"/>
<path d="M1589 833 c-12 -16 -12 -17 2 -6 9 7 20 9 24 5 5 -4 5 -1 1 6 -9 16
-11 15 -27 -5z"/>
<path d="M1526 794 c-3 -8 -11 -12 -17 -8 -7 4 -9 3 -5 -4 3 -5 0 -12 -6 -15
-7 -3 -3 -4 9 -4 12 1 20 4 17 8 -2 4 3 12 12 17 10 6 12 12 6 16 -5 3 -13 -1
-16 -10z"/>
<path d="M1575 800 c3 -5 8 -10 11 -10 2 0 4 5 4 10 0 6 -5 10 -11 10 -5 0 -7
-4 -4 -10z"/>
<path d="M1425 730 c-2 -4 3 -14 13 -21 15 -13 16 -12 3 4 -14 18 -2 24 15 7
7 -7 11 -7 11 3 0 14 -34 21 -42 7z"/>
<path d="M1389 703 c-12 -16 -12 -17 2 -6 12 10 18 10 29 0 12 -10 12 -9 1 6
-7 9 -15 17 -16 17 -1 0 -9 -8 -16 -17z"/>
<path d="M1318 648 c2 -10 6 -18 7 -18 1 0 5 8 7 18 3 11 0 19 -7 19 -7 0 -10
-8 -7 -19z"/>
<path d="M1350 656 c0 -2 8 -10 18 -17 15 -13 16 -12 3 4 -13 16 -21 21 -21
13z"/>
<path d="M1293 605 c0 -8 4 -12 9 -9 5 3 6 10 3 15 -9 13 -12 11 -12 -6z"/>
<path d="M1190 572 c-20 -16 -21 -20 -7 -25 9 -3 19 -1 23 5 4 7 3 8 -4 4 -7
-4 -12 -2 -12 3 0 10 14 15 33 12 5 -1 6 3 2 9 -8 13 -9 13 -35 -8z"/>
<path d="M1245 580 c-3 -6 1 -7 9 -4 18 7 21 14 7 14 -6 0 -13 -4 -16 -10z"/>
<path d="M2035 531 c-3 -5 -2 -12 3 -15 5 -3 9 1 9 9 0 17 -3 19 -12 6z"/>
<path d="M990 440 c0 -5 5 -10 11 -10 5 0 7 5 4 10 -3 6 -8 10 -11 10 -2 0 -4
-4 -4 -10z"/>
<path d="M935 407 c-13 -10 -15 -16 -6 -21 7 -5 15 -5 18 -2 4 3 0 6 -7 6 -9
0 -7 5 6 15 10 8 16 15 13 15 -3 0 -13 -6 -24 -13z"/>
<path d="M2056 397 c3 -10 9 -15 12 -12 3 3 0 11 -7 18 -10 9 -11 8 -5 -6z"/>
<path d="M933 349 c-2 -23 3 -25 10 -4 4 8 3 16 -1 19 -4 3 -9 -4 -9 -15z"/>
<path d="M2036 342 c-3 -4 4 -9 15 -9 23 -2 25 3 4 10 -8 4 -16 3 -19 -1z"/>
<path d="M4766 2642 c-3 -5 1 -9 9 -9 8 0 12 4 9 9 -3 4 -7 8 -9 8 -2 0 -6 -4
-9 -8z"/>
<path d="M4735 2461 c-3 -5 -2 -12 3 -15 5 -3 9 1 9 9 0 17 -3 19 -12 6z"/>
<path d="M4660 2240 c-9 -6 -10 -10 -3 -10 6 0 15 5 18 10 8 12 4 12 -15 0z"/>
<path d="M4630 2180 c0 -5 5 -10 11 -10 5 0 7 5 4 10 -3 6 -8 10 -11 10 -2 0
-4 -4 -4 -10z"/>
<path d="M4485 1931 c-3 -5 -2 -12 3 -15 5 -3 9 1 9 9 0 17 -3 19 -12 6z"/>
<path d="M4430 1839 c0 -5 5 -7 10 -4 6 3 10 8 10 11 0 2 -4 4 -10 4 -5 0 -10
-5 -10 -11z"/>
<path d="M4375 1790 c-3 -5 -1 -10 4 -10 6 0 11 5 11 10 0 6 -2 10 -4 10 -3 0
-8 -4 -11 -10z"/>
<path d="M4177 1592 c-29 -30 -33 -42 -16 -42 5 0 8 4 5 9 -7 11 20 35 31 28
5 -3 9 3 9 14 0 10 -1 19 -1 19 -1 0 -13 -13 -28 -28z"/>
<path d="M4220 1606 c0 -2 7 -7 16 -10 8 -3 12 -2 9 4 -6 10 -25 14 -25 6z"/>
<path d="M4064 1501 c4 -5 1 -11 -6 -13 -9 -3 -9 -6 0 -12 7 -4 12 -2 12 4 0
6 5 8 13 4 8 -5 8 -2 -2 9 -14 18 -26 23 -17 8z"/>
<path d="M4017 1473 c-4 -3 -7 -11 -7 -17 0 -6 5 -5 12 2 6 6 9 14 7 17 -3 3
-9 2 -12 -2z"/>
<path d="M3863 1382 c-7 -4 -9 -13 -4 -21 6 -9 10 -7 14 8 3 12 4 21 4 21 -1
0 -7 -4 -14 -8z"/>
<path d="M3793 1347 c-16 -9 -20 -16 -13 -27 8 -13 10 -12 10 3 0 10 5 15 10
12 6 -3 10 -1 10 5 0 6 5 8 12 4 7 -4 8 -3 4 4 -8 14 -6 14 -33 -1z"/>
<path d="M3827 1319 c7 -7 15 -10 18 -7 3 3 -2 9 -12 12 -14 6 -15 5 -6 -5z"/>
<path d="M3677 1283 c3 -7 6 -13 8 -13 2 0 5 6 8 13 3 8 -1 14 -8 14 -7 0 -11
-6 -8 -14z"/>
<path d="M3583 1253 c-7 -2 -13 -12 -13 -21 1 -15 2 -15 11 1 6 9 14 15 20 12
5 -4 9 -1 9 4 0 12 -7 13 -27 4z"/>
<path d="M3525 1231 c-3 -5 -2 -12 3 -15 5 -3 9 1 9 9 0 17 -3 19 -12 6z"/>
<path d="M3474 1206 c1 -8 5 -18 8 -22 4 -3 5 1 4 10 -1 8 -5 18 -8 22 -4 3
-5 -1 -4 -10z"/>
<path d="M3365 1160 c-2 -4 7 -6 21 -4 35 3 41 12 9 12 -14 0 -27 -4 -30 -8z"/>
<path d="M3335 1129 c-4 -6 -5 -12 -2 -15 2 -3 7 2 10 11 7 17 1 20 -8 4z"/>
<path d="M3080 1115 c-7 -9 -10 -18 -7 -21 3 -3 10 4 17 15 13 25 8 27 -10 6z"/>
<path d="M3276 1118 c3 -5 10 -6 15 -3 13 9 11 12 -6 12 -8 0 -12 -4 -9 -9z"/>
<path d="M3035 1109 c-4 -6 -5 -12 -2 -15 2 -3 7 2 10 11 7 17 1 20 -8 4z"/>
<path d="M2930 1095 c-7 -8 -10 -18 -6 -22 3 -3 6 -1 6 5 0 7 10 11 21 9 12
-1 24 5 26 13 4 13 3 13 -6 0 -9 -12 -13 -12 -19 -2 -7 10 -11 10 -22 -3z"/>
<path d="M2880 1091 c-8 -6 -18 -7 -22 -5 -4 3 -8 0 -8 -6 0 -8 7 -9 18 -5 9
4 23 8 30 8 6 0 12 4 12 9 0 10 -11 10 -30 -1z"/>
<path d="M3051 1084 c0 -11 3 -14 6 -6 3 7 2 16 -1 19 -3 4 -6 -2 -5 -13z"/>
<path d="M2454 1058 c-12 -13 -13 -18 -4 -12 22 13 44 11 56 -5 9 -11 12 -12
19 -1 5 8 4 11 -2 7 -6 -4 -13 0 -17 8 -3 9 -12 12 -22 8 -12 -4 -15 -3 -10 5
12 19 1 14 -20 -10z"/>
<path d="M2396 1059 c3 -5 9 -7 14 -4 5 3 11 -3 14 -12 4 -15 5 -15 3 1 -1 11
-10 20 -20 22 -9 1 -15 -2 -11 -7z"/>
<path d="M2895 1060 c3 -5 8 -10 11 -10 2 0 4 5 4 10 0 6 -5 10 -11 10 -5 0
-7 -4 -4 -10z"/>
<path d="M2375 1040 c3 -5 8 -10 11 -10 2 0 4 5 4 10 0 6 -5 10 -11 10 -5 0
-7 -4 -4 -10z"/>
<path d="M2270 846 c0 -8 4 -17 9 -20 5 -4 7 3 4 14 -6 23 -13 26 -13 6z"/>
<path d="M2270 606 c0 -8 4 -17 9 -20 5 -4 7 3 4 14 -6 23 -13 26 -13 6z"/>
<path d="M2270 366 c0 -8 4 -17 9 -20 5 -4 7 3 4 14 -6 23 -13 26 -13 6z"/>
<path d="M527 119 c7 -25 20 -33 29 -18 5 8 3 9 -6 4 -10 -6 -12 -4 -7 8 3 8
0 18 -7 20 -10 4 -12 -1 -9 -14z"/>
<path d="M795 129 c-10 -15 3 -25 16 -12 7 7 7 13 1 17 -6 3 -14 1 -17 -5z"/>
<path d="M922 123 c6 -7 14 -13 18 -13 4 0 10 6 13 13 3 8 -3 13 -19 13 -18 0
-21 -3 -12 -13z"/>
<path d="M968 122 c-10 -12 -10 -14 0 -8 7 4 12 2 12 -5 0 -7 7 -4 15 7 13 17
14 17 15 2 0 -21 16 -32 26 -17 5 8 3 9 -6 4 -10 -6 -12 -4 -7 8 3 10 3 17 -1
18 -4 0 -15 2 -24 4 -9 2 -23 -4 -30 -13z"/>
<path d="M1275 129 c-10 -15 3 -25 16 -12 7 7 7 13 1 17 -6 3 -14 1 -17 -5z"/>
<path d="M1402 123 c6 -7 14 -13 18 -13 4 0 10 6 13 13 3 8 -3 13 -19 13 -18
0 -21 -3 -12 -13z"/>
<path d="M1448 122 c-10 -12 -10 -14 0 -8 7 4 12 2 12 -5 0 -7 7 -4 15 7 13
17 14 17 15 2 0 -21 16 -32 26 -17 5 8 3 9 -6 4 -10 -6 -12 -4 -7 8 3 10 3 17
-1 18 -4 0 -15 2 -24 4 -9 2 -23 -4 -30 -13z"/>
<path d="M1755 129 c-10 -15 3 -25 16 -12 7 7 7 13 1 17 -6 3 -14 1 -17 -5z"/>
<path d="M1882 123 c6 -7 14 -13 18 -13 4 0 10 6 13 13 3 8 -3 13 -19 13 -18
0 -21 -3 -12 -13z"/>
<path d="M1928 122 c-10 -12 -10 -14 0 -8 7 4 12 2 12 -5 0 -7 7 -4 15 7 13
17 14 17 15 2 0 -21 16 -32 26 -17 5 8 3 9 -6 4 -10 -6 -12 -4 -7 8 3 10 3 17
-1 18 -4 0 -15 2 -24 4 -9 2 -23 -4 -30 -13z"/>
<path d="M2135 130 c-2 -4 1 -7 8 -8 7 -1 24 -3 38 -6 18 -3 26 1 26 10 0 10
-4 11 -11 4 -12 -12 -29 -14 -22 -2 2 4 -4 8 -15 8 -11 0 -22 -3 -24 -6z"/>
<path d="M2220 131 c0 -10 19 -25 25 -20 1 2 -3 10 -11 17 -8 7 -14 8 -14 3z"/>
<path d="M597 115 c-4 -8 -3 -16 1 -19 4 -3 9 4 9 15 2 23 -3 25 -10 4z"/>
<path d="M671 114 c0 -11 3 -14 6 -6 3 7 2 16 -1 19 -3 4 -6 -2 -5 -13z"/>
<path d="M1077 115 c-4 -8 -3 -16 1 -19 4 -3 9 4 9 15 2 23 -3 25 -10 4z"/>
<path d="M1151 114 c0 -11 3 -14 6 -6 3 7 2 16 -1 19 -3 4 -6 -2 -5 -13z"/>
<path d="M1557 115 c-4 -8 -3 -16 1 -19 4 -3 9 4 9 15 2 23 -3 25 -10 4z"/>
<path d="M1631 114 c0 -11 3 -14 6 -6 3 7 2 16 -1 19 -3 4 -6 -2 -5 -13z"/>
<path d="M2037 115 c-4 -8 -3 -16 1 -19 4 -3 9 4 9 15 2 23 -3 25 -10 4z"/>
<path d="M2111 114 c0 -11 3 -14 6 -6 3 7 2 16 -1 19 -3 4 -6 -2 -5 -13z"/>
<path d="M415 100 c3 -5 8 -10 11 -10 2 0 4 5 4 10 0 6 -5 10 -11 10 -5 0 -7
-4 -4 -10z"/>
<path d="M695 100 c3 -5 8 -10 11 -10 2 0 4 5 4 10 0 6 -5 10 -11 10 -5 0 -7
-4 -4 -10z"/>
<path d="M816 102 c-3 -5 1 -9 9 -9 8 0 12 4 9 9 -3 4 -7 8 -9 8 -2 0 -6 -4
-9 -8z"/>
<path d="M1175 100 c3 -5 8 -10 11 -10 2 0 4 5 4 10 0 6 -5 10 -11 10 -5 0 -7
-4 -4 -10z"/>
<path d="M1296 102 c-3 -5 1 -9 9 -9 8 0 12 4 9 9 -3 4 -7 8 -9 8 -2 0 -6 -4
-9 -8z"/>
<path d="M1655 100 c3 -5 8 -10 11 -10 2 0 4 5 4 10 0 6 -5 10 -11 10 -5 0 -7
-4 -4 -10z"/>
<path d="M1776 102 c-3 -5 1 -9 9 -9 8 0 12 4 9 9 -3 4 -7 8 -9 8 -2 0 -6 -4
-9 -8z"/>
<path d="M2135 100 c3 -5 8 -10 11 -10 2 0 4 5 4 10 0 6 -5 10 -11 10 -5 0 -7
-4 -4 -10z"/>
</g>
</svg>
