<svg width="12" height="12" viewBox="0 0 12 12" fill="none" xmlns="http://www.w3.org/2000/svg">
<path d="M2.793 3.8606H0.383978C0.277062 3.8606 0.19043 3.94727 0.19043 4.05414V11.7933C0.19043 11.9002 0.277062 11.9868 0.383978 11.9868H2.793C2.89991 11.9868 2.98655 11.9002 2.98655 11.7933V4.05414C2.98655 3.94727 2.89991 3.8606 2.793 3.8606Z" fill="white"/>
<path d="M1.58965 0.0131836C0.71311 0.0131836 0 0.725519 0 1.60109C0 2.47705 0.71311 3.18966 1.58965 3.18966C2.4655 3.18966 3.17803 2.47702 3.17803 1.60109C3.17806 0.725519 2.4655 0.0131836 1.58965 0.0131836Z" fill="white"/>
<path d="M8.92111 3.66821C7.95356 3.66821 7.23833 4.08415 6.80451 4.55676V4.05411C6.80451 3.94723 6.71787 3.86056 6.61096 3.86056H4.3039C4.19698 3.86056 4.11035 3.94723 4.11035 4.05411V11.7933C4.11035 11.9002 4.19698 11.9868 4.3039 11.9868H6.70765C6.81457 11.9868 6.9012 11.9002 6.9012 11.7933V7.96418C6.9012 6.67387 7.25168 6.17118 8.15114 6.17118C9.13073 6.17118 9.20857 6.97704 9.20857 8.03057V11.7933C9.20857 11.9002 9.2952 11.9869 9.40212 11.9869H11.8068C11.9137 11.9869 12.0003 11.9002 12.0003 11.7933V7.54824C12.0003 5.6296 11.6345 3.66821 8.92111 3.66821Z" fill="white"/>
</svg>
