<svg width="247" height="241" viewBox="0 0 247 241" fill="none" xmlns="http://www.w3.org/2000/svg">
  <path d="M46.74 93.3216C48.8463 89.665 50.459 87.9694 52.6325 85.5727C68.8278 67.726 87.7751 53.4671 109.331 42.7187C118.484 38.1622 128.044 34.7141 138.233 33.4193C145.352 32.5214 152.366 32.7908 159.155 35.3504C160.385 35.8237 161.587 36.2815 162.817 36.7548C163.134 36.9246 163.48 37.1098 163.797 37.2796C164.212 37.613 164.598 37.931 165.013 38.2644C167.389 40.1301 169.961 41.7673 172.141 43.8616C180.189 51.6203 185.185 61.2683 188.963 71.5991C193.812 84.9147 196.192 98.6878 196.63 112.831C197.138 129.682 195.33 146.22 188.311 161.822C185.705 167.659 182.28 172.946 177.664 177.41C170.523 184.305 161.795 187.791 152.078 188.967C143.11 190.062 134.27 189.186 125.5 187.346C117.241 185.593 109.205 183.145 101.442 179.841C96.3681 177.681 91.2787 175.549 86.4207 172.985C81.1881 170.22 76.1715 167.052 71.1838 163.899C66.3247 160.852 61.9226 157.159 57.8363 153.154C51.1732 146.619 45.7482 139.226 42.7069 130.291C39.233 120.086 39.5306 109.972 43.5266 99.9461" fill="#6DB641"/>
  <g filter="url(#enjoy_filter)">
    <path d="M73.5586 44.8842C77.4956 43.3652 79.8157 43.0606 83.0128 42.5635C106.827 38.8687 130.526 39.6941 154.046 44.8891C164.028 47.1009 173.631 50.4311 182.367 55.83C188.468 59.6084 193.753 64.2279 197.423 70.4869C198.082 71.6284 198.728 72.7397 199.387 73.8812C199.527 74.2126 199.679 74.5741 199.819 74.9055C199.932 75.4256 200.033 75.9156 200.146 76.4358C200.82 79.3805 201.791 82.2712 202.169 85.2701C203.549 96.3633 201.368 107.007 197.81 117.415C193.209 130.819 186.399 143.025 177.847 154.298C167.647 167.722 155.843 179.444 140.575 187.163C134.879 190.063 128.891 192.022 122.495 192.591C112.607 193.462 103.628 190.685 95.3327 185.49C87.6704 180.703 81.3472 174.463 75.685 167.519C70.364 160.963 65.6549 154.007 61.6957 146.557C59.1086 141.686 56.4914 136.828 54.3261 131.78C51.9956 126.34 50.0868 120.722 48.1907 115.134C46.328 109.71 45.2265 104.071 44.5675 98.387C43.4951 89.1158 43.9248 79.9563 47.1778 71.096C50.893 60.9762 57.4838 53.2983 66.8947 48.015" fill="white"/>
  </g>
  <path d="M155.631 74H151.848C150.185 74 150.185 76.5785 151.848 76.5785H155.631C159.539 76.5785 162.717 79.7459 162.717 83.6391V113.476C162.717 117.369 159.539 120.537 155.631 120.537H151.34C151.057 120.537 150.782 120.63 150.557 120.802L142.683 126.825V121.826C142.683 121.114 142.106 120.537 141.393 120.537H125.702C124.417 120.537 123.183 120.198 122.093 119.553V105.08C122.093 102.369 120.713 99.9744 118.616 98.5574V83.6391C118.616 79.7459 121.795 76.5785 125.702 76.5785H143.768C145.431 76.5785 145.431 74 143.768 74H125.702C120.373 74 116.038 78.3241 116.038 83.6391V97.4243C115.447 97.2833 114.832 97.2065 114.199 97.2065H90.5981C86.2454 97.2065 82.7041 100.739 82.7041 105.08V107.864C82.7041 109.527 85.2826 109.527 85.2826 107.864V105.08C85.2826 102.16 87.667 99.785 90.5981 99.785H114.199C117.13 99.785 119.515 102.16 119.515 105.08V120.066C119.5 120.18 119.5 120.295 119.515 120.408V128.609C119.515 128.771 119.505 128.933 119.491 129.093H116.832C113.902 129.093 111.46 131.208 110.953 133.987C110.836 134.031 110.724 134.093 110.619 134.173L104.853 138.626V135.194C104.853 134.482 104.276 133.905 103.564 133.905H90.5981C87.667 133.905 85.2826 131.529 85.2826 128.609V115.6C85.2826 113.937 82.7041 113.937 82.7041 115.6V128.609C82.7041 132.951 86.2454 136.483 90.5981 136.483H102.275V141.25C102.275 142.284 103.53 142.905 104.352 142.271L110.856 137.249V151.753C110.856 155.041 113.537 157.715 116.832 157.715H124.744V160.723C124.744 161.757 125.999 162.378 126.821 161.744L132.039 157.715H133.581C136.876 157.715 139.557 155.04 139.557 151.753V149.464C139.557 147.801 136.979 147.801 136.979 149.464V151.753C136.979 153.619 135.454 155.137 133.581 155.137H131.599C131.314 155.137 131.037 155.231 130.811 155.405L127.322 158.099V156.426C127.322 155.714 126.745 155.136 126.033 155.136H116.832C114.958 155.136 113.434 153.619 113.434 151.753V135.056C113.434 133.19 114.958 131.672 116.832 131.672H133.581C135.454 131.672 136.979 133.19 136.979 135.056V141.385C136.979 143.048 139.557 143.048 139.557 141.385V135.056C139.557 131.768 136.876 129.094 133.581 129.094H122.079C122.089 128.933 122.094 122.421 122.094 122.421C123.23 122.878 124.449 123.116 125.703 123.116H140.104V129.435C140.104 130.466 141.355 131.087 142.177 130.459L151.777 123.116H155.631C160.96 123.116 165.296 118.791 165.296 113.476V83.6391C165.296 78.3241 160.96 74 155.631 74V74Z" fill="#6FBA42"/>
  <path d="M143.889 83.5253C142.252 83.1074 140.583 84.4008 140.583 86.0923C140.583 87.9404 139.91 89.7214 138.688 91.1064L135.136 95.126C134.906 94.773 134.508 94.5394 134.056 94.5394H127.121C126.409 94.5394 125.832 95.1167 125.832 95.8287V111.431C125.832 112.143 126.409 112.72 127.121 112.72H134.056C134.577 112.72 135.024 112.411 135.228 111.966C136.632 112.824 138.259 113.288 139.914 113.288H152.169C154.041 113.288 155.586 111.663 155.499 109.795C155.459 108.968 155.502 97.8609 155.502 97.6142C155.502 95.7763 154.007 94.2807 152.173 94.2807L145.8 94.2616L146.064 93.6368C147.269 90.781 147.071 87.4695 145.533 84.7781C145.174 84.1493 144.59 83.7046 143.889 83.5253C144.59 83.7046 143.187 83.3462 143.889 83.5253C144.59 83.7046 142.252 83.1074 143.889 83.5253ZM132.766 110.142H128.411V97.1179H132.766V110.142ZM152.169 96.859C152.585 96.859 152.924 97.1977 152.924 97.614C152.924 97.8593 152.921 98.5251 152.918 99.4277C152.899 104.411 152.886 109.131 152.923 109.916C152.936 110.199 152.798 110.388 152.715 110.475C152.571 110.626 152.377 110.709 152.169 110.709H139.914C138.453 110.709 137.023 110.203 135.888 109.284L135.345 108.844V98.783L140.621 92.813C142.259 90.9558 143.162 88.569 143.162 86.0921C143.162 86.0192 143.261 86.0003 143.294 86.057C144.436 88.055 144.583 90.5134 143.688 92.6334L142.671 95.0433C142.503 95.4409 142.545 95.8959 142.783 96.2559C143.021 96.6158 143.423 96.8327 143.855 96.8341L152.169 96.859Z" fill="#6FBA42"/>
  <path d="M93.7434 118.779C93.0312 118.779 92.4541 119.357 92.4541 120.069C92.4541 120.781 93.0312 121.358 93.7434 121.358H97.5437L96.8338 125.652C96.7176 126.354 97.193 127.018 97.8954 127.134C97.9668 127.146 98.0374 127.152 98.1072 127.152C98.7267 127.152 99.2732 126.704 99.3777 126.072L100.157 121.358H103.267L102.557 125.652C102.441 126.354 102.917 127.018 103.619 127.134C103.69 127.146 103.761 127.152 103.831 127.152C104.45 127.152 104.997 126.704 105.101 126.073L105.881 121.358H111.054C111.766 121.358 112.343 120.781 112.343 120.069C112.343 119.357 111.766 118.78 111.054 118.78H106.307L106.827 115.635H111.054C111.766 115.635 112.343 115.057 112.343 114.345C112.343 113.633 111.766 113.056 111.054 113.056H107.253L107.963 108.762C108.079 108.06 107.604 107.396 106.902 107.28C106.198 107.163 105.536 107.639 105.419 108.342L104.64 113.056H101.53L102.24 108.762C102.356 108.06 101.88 107.396 101.178 107.28C100.474 107.163 99.8121 107.639 99.6957 108.341L98.9163 113.056H93.7434C93.0312 113.056 92.4541 113.633 92.4541 114.345C92.4541 115.057 93.0312 115.634 93.7434 115.634H98.49L97.97 118.779H93.7434ZM101.104 115.634H104.214L103.694 118.779H100.584L101.104 115.634Z" fill="#6FBA42"/>
  <path d="M125.191 138.324C124.15 137.467 122.765 137.129 121.376 137.467C119.595 137.899 117.799 139.564 117.799 142.307C117.799 144.015 118.422 145.497 119.704 146.838C120.751 147.934 122.262 148.976 124.603 150.217C124.792 150.317 124.999 150.367 125.207 150.367C125.414 150.367 125.622 150.317 125.811 150.217C129.895 148.052 132.614 145.878 132.614 142.307C132.614 139.549 130.754 137.901 128.91 137.492C127.525 137.185 126.182 137.511 125.191 138.324ZM130.036 142.307C130.036 144.233 128.758 145.658 125.207 147.613C121.655 145.658 120.377 144.233 120.377 142.307C120.377 140.874 121.207 140.161 121.984 139.973C122.127 139.938 122.28 139.918 122.438 139.918C123.022 139.918 123.665 140.188 124.061 140.956C124.287 141.393 124.743 141.664 125.232 141.654C125.724 141.644 126.167 141.356 126.375 140.91C126.792 140.016 127.669 139.859 128.351 140.01C129.166 140.19 130.036 140.889 130.036 142.307Z" fill="#6FBA42"/>
  <defs>
    <filter id="enjoy_filter" x="0.0429688" y="0.288086" width="246.545" height="240.461" filterUnits="userSpaceOnUse" color-interpolation-filters="sRGB">
      <feFlood flood-opacity="0" result="BackgroundImageFix"/>
      <feColorMatrix in="SourceAlpha" type="matrix" values="0 0 0 0 0 0 0 0 0 0 0 0 0 0 0 0 0 0 127 0"/>
      <feOffset dy="4"/>
      <feGaussianBlur stdDeviation="22"/>
      <feColorMatrix type="matrix" values="0 0 0 0 0 0 0 0 0 0 0 0 0 0 0 0 0 0 0.15 0"/>
      <feBlend mode="normal" in2="BackgroundImageFix" result="effect1_dropShadow"/>
      <feBlend mode="normal" in="SourceGraphic" in2="effect1_dropShadow" result="shape"/>
    </filter>
  </defs>
</svg>
