<svg
    id="contact-us-svg"
    width="246"
    height="245"
    viewBox="0 0 246 245"
    fill="none"
    xmlns="http://www.w3.org/2000/svg"
>
  <path d="M78.5586 48.8847C82.4956 47.3657 84.8157 47.0611 88.0128 46.564C111.827 42.8691 135.526 43.6945 159.046 48.8896C169.028 51.1014 178.631 54.4315 187.367 59.8305C193.468 63.6089 198.753 68.2284 202.423 74.4874C203.082 75.6289 203.728 76.7402 204.387 77.8817C204.527 78.2131 204.679 78.5746 204.819 78.906C204.932 79.4261 205.033 79.9161 205.146 80.4362C205.82 83.381 206.791 86.2717 207.169 89.2706C208.549 100.364 206.368 111.008 202.81 121.416C198.209 134.82 191.399 147.026 182.847 158.299C172.647 171.722 160.843 183.445 145.575 191.164C139.879 194.064 133.891 196.022 127.495 196.591C117.607 197.463 108.628 194.685 100.333 189.491C92.6704 184.703 86.3472 178.464 80.685 171.519C75.364 164.963 70.6549 158.007 66.6957 150.557C64.1086 145.687 61.4914 140.829 59.3261 135.781C56.9956 130.341 55.0868 124.723 53.1907 119.135C51.328 113.71 50.2265 108.071 49.5675 102.387C48.4951 93.1163 48.9248 83.9568 52.1778 75.0965C55.893 64.9766 62.4838 57.2988 71.8947 52.0154" fill="#72BF44"/>

  <g filter="url(#contact-us-shadow)">
    <path d="M56.5648 80.1215C59.4047 77.0002 61.3428 75.6889 63.9787 73.8127C83.6173 59.8443 105.177 49.9693 128.533 44.0817C138.449 41.5889 148.526 40.2663 158.755 41.1812C165.902 41.8274 172.696 43.5912 178.78 47.5441C179.88 48.2696 180.956 48.9738 182.056 49.6993C182.33 49.933 182.628 50.188 182.901 50.4216C183.235 50.8361 183.545 51.2293 183.878 51.6438C185.8 53.9747 187.963 56.1244 189.644 58.6365C195.846 67.9373 198.662 78.4309 200.142 89.3307C202.03 103.376 201.408 117.339 198.81 131.248C195.701 147.818 190.396 163.586 180.202 177.325C176.407 182.469 171.93 186.901 166.467 190.274C158.015 195.481 148.744 197.019 139 196.09C130.005 195.24 121.557 192.493 113.385 188.819C105.691 185.34 98.3655 181.23 91.4892 176.342C86.995 173.145 82.4795 169.974 78.2826 166.43C73.7627 162.609 69.5402 158.441 65.3425 154.294C61.2478 150.278 57.7376 145.729 54.603 140.942C49.4923 133.133 45.7746 124.751 44.7154 115.372C43.5054 104.66 45.96 94.8434 52.0085 85.905" fill="white"/>
  </g>

  <path d="M167.259 80.2031H105.791C103.725 80.2055 102.052 81.879 102.05 83.944V100.899L99.2388 96.6823C97.9521 94.7415 95.3646 94.1592 93.3707 95.3619L87.5878 98.8388C85.6939 99.9501 84.3047 101.752 83.7119 103.866C81.6023 111.548 83.1676 124.782 102.593 144.21C118.04 159.641 129.558 163.797 137.496 163.797C139.334 163.806 141.164 163.567 142.939 163.087C145.052 162.495 146.854 161.107 147.968 159.216L151.44 153.427C152.638 151.435 152.056 148.852 150.12 147.566L136.272 138.336C134.373 137.079 131.827 137.492 130.422 139.285L126.39 144.468C125.969 145.022 125.205 145.184 124.595 144.848L123.827 144.425C121.303 143.049 118.16 141.336 111.814 134.989C111.127 134.303 110.505 133.66 109.922 133.045H167.259C169.319 133.047 170.992 131.382 171 129.322V83.944C170.997 81.879 169.324 80.2055 167.259 80.2031ZM122.424 147.001L123.169 147.411C125.042 148.458 127.4 147.972 128.707 146.269L132.738 141.086C133.197 140.503 134.026 140.368 134.645 140.777L148.493 150.007C149.122 150.427 149.311 151.266 148.922 151.914L145.45 157.703C144.725 158.947 143.547 159.862 142.162 160.256C135.228 162.163 123.091 160.55 104.671 142.128C86.2509 123.707 84.6433 111.571 86.5459 104.642C86.9402 103.258 87.8542 102.08 89.097 101.355L94.886 97.8809C95.5346 97.4934 96.3734 97.6823 96.7931 98.3107L106.028 112.158C106.437 112.777 106.303 113.607 105.718 114.065L100.534 118.098C98.8313 119.404 98.3451 121.762 99.3925 123.634L99.8032 124.38C101.27 127.07 103.094 130.418 109.741 137.064C116.388 143.709 119.735 145.534 122.424 147.001ZM168.066 129.322C168.061 129.763 167.7 130.118 167.259 130.114H107.275C105.37 127.935 103.727 125.541 102.38 122.979L101.957 122.209C101.62 121.6 101.781 120.836 102.336 120.416L107.52 116.383C109.313 114.978 109.726 112.432 108.469 110.532L104.984 105.301V83.944C104.981 83.7293 105.065 83.5227 105.217 83.3709C105.369 83.2191 105.576 83.1348 105.79 83.1372H167.259C167.474 83.1348 167.68 83.2191 167.832 83.3709C167.984 83.5227 168.068 83.7293 168.066 83.944V129.322H168.066Z" fill="#72BF44"/>
  <path d="M162.206 86.9956L137.688 105.59C136.994 106.094 136.055 106.094 135.361 105.59L110.852 86.9956C110.206 86.5058 109.286 86.6323 108.796 87.2781C108.306 87.9238 108.433 88.8444 109.078 89.334L133.591 107.927C135.335 109.215 137.715 109.215 139.459 107.927L163.979 89.334C164.289 89.0988 164.493 88.7498 164.546 88.3641C164.599 87.9783 164.496 87.5873 164.26 87.2774C163.771 86.6328 162.852 86.5068 162.206 86.9956Z" fill="#72BF44"/>
  <path d="M124.005 108.05L108.977 124.143C108.424 124.736 108.457 125.665 109.049 126.217C109.642 126.77 110.57 126.737 111.123 126.145L126.151 110.044C126.648 109.445 126.59 108.563 126.02 108.033C125.45 107.503 124.566 107.511 124.005 108.05Z" fill="#72BF44"/>
  <path d="M149.141 108.05C148.588 107.458 147.66 107.425 147.067 107.978C146.475 108.53 146.442 109.459 146.995 110.051L162.019 126.145C162.571 126.737 163.499 126.77 164.092 126.217C164.685 125.665 164.717 124.736 164.165 124.144L149.141 108.05Z" fill="#72BF44"/>

  <defs>
    <filter id="contact-us-shadow" x="0.0429688" y="0.288086" width="246.545" height="240.461" filterUnits="userSpaceOnUse" color-interpolation-filters="sRGB">
      <feFlood flood-opacity="0" result="BackgroundImageFix"/>
      <feColorMatrix in="SourceAlpha" type="matrix" values="0 0 0 0 0 0 0 0 0 0 0 0 0 0 0 0 0 0 127 0"/>
      <feOffset dy="4"/>
      <feGaussianBlur stdDeviation="22"/>
      <feColorMatrix type="matrix" values="0 0 0 0 0 0 0 0 0 0 0 0 0 0 0 0 0 0 0.15 0"/>
      <feBlend mode="normal" in2="BackgroundImageFix" result="effect1_dropShadow"/>
      <feBlend mode="normal" in="SourceGraphic" in2="effect1_dropShadow" result="shape"/>
    </filter>
  </defs>
</svg>
