<svg width="84" height="88" viewBox="0 0 84 88" fill="none" xmlns="http://www.w3.org/2000/svg">
<path d="M73.6312 0H69.8477C68.1846 0 68.1846 2.5785 69.8477 2.5785H73.6312C77.5385 2.5785 80.7175 5.74592 80.7175 9.63911V39.4761C80.7175 43.3695 77.5387 46.5369 73.6312 46.5369H69.3401C69.057 46.5369 68.7818 46.6301 68.5568 46.8021L60.6827 52.8252V47.8262C60.6827 47.1141 60.1057 46.5369 59.3935 46.5369H43.7024C42.4175 46.5369 41.1826 46.1977 40.0934 45.5529V31.0804C40.0934 28.3695 38.7127 25.9744 36.616 24.5574V9.63911C36.616 5.74592 39.795 2.5785 43.7024 2.5785H61.7684C63.4314 2.5785 63.4314 0 61.7684 0H43.7024C38.3732 0 34.0375 4.32414 34.0375 9.63911V23.4243C33.4472 23.2833 32.8322 23.2065 32.1993 23.2065H8.59809C4.24541 23.2065 0.704102 26.7387 0.704102 31.0804V33.8643C0.704102 35.5272 3.2826 35.5272 3.2826 33.8643V31.0804C3.2826 28.1605 5.66702 25.785 8.59809 25.785H32.1994C35.1305 25.785 37.5151 28.1605 37.5151 31.0804V46.0662C37.4996 46.18 37.5003 46.2947 37.5151 46.4076V54.6093C37.5151 54.7714 37.5053 54.9328 37.4907 55.0934H34.8319C31.9022 55.0934 29.4599 57.2079 28.9534 59.987C28.8362 60.0312 28.7236 60.0929 28.6193 60.1734L22.8529 64.6258V61.1939C22.8529 60.4819 22.2758 59.9047 21.5636 59.9047H8.59809C5.66702 59.9047 3.2826 57.5292 3.2826 54.6093V41.5998C3.2826 39.9368 0.704102 39.9368 0.704102 41.5998V54.6095C0.704102 58.9512 4.24541 62.4834 8.59809 62.4834H20.2746V67.2501C20.2746 68.2843 21.5303 68.9047 22.3518 68.2707L28.8556 63.249V77.7531C28.8556 81.0406 31.5367 83.7151 34.8321 83.7151H42.7438V86.7235C42.7438 87.7573 43.9995 88.3784 44.8208 87.744L50.039 83.7151H51.5806C54.8759 83.7151 57.5571 81.0405 57.5571 77.7531V75.464C57.5571 73.8011 54.9786 73.8011 54.9786 75.464V77.7531C54.9786 79.6189 53.4543 81.1366 51.5806 81.1366H49.5991C49.3139 81.1366 49.0368 81.2311 48.8113 81.4052L45.3221 84.0991V82.4256C45.3221 81.7136 44.745 81.1364 44.0328 81.1364H34.8319C32.9584 81.1364 31.434 79.6185 31.434 77.7529V61.0556C31.434 59.1898 32.9582 57.6721 34.8319 57.6721H51.5806C53.4542 57.6721 54.9786 59.1899 54.9786 61.0556V67.3847C54.9786 69.0477 57.5571 69.0477 57.5571 67.3847V61.0557C57.5571 57.7682 54.8759 55.0937 51.5806 55.0937H40.0788C40.0886 54.9327 40.0936 48.4209 40.0936 48.4209C41.2304 48.878 42.4491 49.1156 43.7026 49.1156H58.1044V55.4346C58.1044 56.4662 59.3548 57.0873 60.177 56.4586L69.7769 49.1156H73.6314C78.9605 49.1156 83.2961 44.7914 83.2961 39.4763V9.63911C83.296 4.32414 78.9603 0 73.6312 0V0Z" fill="#6FBA42"/>
<path d="M61.8886 9.52529C60.2516 9.1074 58.5835 10.4008 58.5835 12.0923C58.5835 13.9404 57.9099 15.7214 56.6879 17.1064L53.1358 21.126C52.9058 20.773 52.5083 20.5394 52.0557 20.5394H45.1213C44.4091 20.5394 43.832 21.1167 43.832 21.8287V37.4312C43.832 38.1432 44.4091 38.7204 45.1213 38.7204H52.0557C52.5768 38.7204 53.0244 38.4108 53.2277 37.9663C54.6316 38.8241 56.2585 39.2879 57.9137 39.2879H70.1688C72.0415 39.2879 73.5864 37.6629 73.4985 35.795C73.4595 34.9678 73.5021 23.8609 73.5021 23.6142C73.5021 21.7763 72.0068 20.2807 70.1726 20.2807L63.7998 20.2616L64.0636 19.6368C65.2695 16.781 65.0709 13.4695 63.5331 10.7781C63.1742 10.1493 62.5899 9.70458 61.8886 9.52529C62.5899 9.70458 61.1869 9.34617 61.8886 9.52529C62.5899 9.70458 60.2517 9.1074 61.8886 9.52529ZM50.7665 36.1419H46.4105V23.1179H50.7665V36.1419ZM70.1688 22.859C70.5852 22.859 70.9238 23.1977 70.9238 23.614C70.9238 23.8593 70.9212 24.5251 70.9178 25.4277C70.8987 30.4115 70.886 35.1315 70.9228 35.916C70.9362 36.1992 70.7985 36.3879 70.7153 36.4752C70.5712 36.6262 70.3772 36.7092 70.1688 36.7092H57.9137C56.4529 36.7092 55.0232 36.2029 53.8877 35.2838L53.345 34.8444V24.783L58.6207 18.813C60.2595 16.9558 61.1619 14.569 61.1619 12.0921C61.1619 12.0192 61.2615 12.0003 61.2945 12.057C62.4362 14.055 62.5834 16.5134 61.6883 18.6334L60.6708 21.0433C60.5029 21.4409 60.5452 21.8959 60.7829 22.2559C61.021 22.6158 61.4232 22.8327 61.8545 22.8341L70.1688 22.859Z" fill="#6FBA42"/>
<path d="M11.7434 44.7794C11.0312 44.7794 10.4541 45.3566 10.4541 46.0686C10.4541 46.7806 11.0312 47.3578 11.7434 47.3578H15.5437L14.8338 51.6517C14.7176 52.3541 15.193 53.0178 15.8954 53.134C15.9668 53.1459 16.0374 53.1516 16.1072 53.1516C16.7267 53.1516 17.2732 52.7038 17.3777 52.0724L18.1571 47.358H21.2673L20.5573 51.6519C20.4411 52.3543 20.9166 53.018 21.619 53.1342C21.6903 53.1461 21.761 53.1517 21.8308 53.1517C22.4503 53.1517 22.9968 52.7039 23.1013 52.0725L23.8807 47.3582H29.0537C29.7658 47.3582 30.3429 46.781 30.3429 46.0689C30.3429 45.3569 29.7658 44.7797 29.0537 44.7797H24.307L24.827 41.6346H29.0537C29.7658 41.6346 30.3429 41.0574 30.3429 40.3454C30.3429 39.6334 29.7658 39.0561 29.0537 39.0561H25.2533L25.9633 34.7622C26.0795 34.0599 25.604 33.3961 24.9016 33.2799C24.1984 33.1634 23.5355 33.6392 23.4193 34.3416L22.6399 39.0559H19.5297L20.2397 34.7621C20.3559 34.0597 19.8804 33.396 19.178 33.2798C18.4739 33.1632 17.8121 33.639 17.6957 34.3414L16.9163 39.0558H11.7434C11.0312 39.0558 10.4541 39.633 10.4541 40.345C10.4541 41.057 11.0312 41.6343 11.7434 41.6343H16.49L15.97 44.7794H11.7434ZM19.1036 41.6343H22.2138L21.6938 44.7794H18.5836L19.1036 41.6343Z" fill="#6FBA42"/>
<path d="M43.191 64.3245C42.15 63.4674 40.765 63.1293 39.3757 63.4671C37.5954 63.8994 35.7988 65.5637 35.7988 68.3071C35.7988 70.0146 36.422 71.4967 37.7038 72.8382C38.7509 73.934 40.2619 74.9761 42.6028 76.2172C42.7917 76.3174 42.9992 76.3675 43.2067 76.3675C43.4142 76.3675 43.6217 76.3174 43.8106 76.2172C47.8946 74.0521 50.6144 71.8785 50.6144 68.3071C50.6144 65.5488 48.7541 63.9014 46.9103 63.4925C45.5251 63.1851 44.1822 63.5114 43.191 64.3245ZM48.0357 68.3071C48.0357 70.2334 46.758 71.6579 43.2065 73.6129C39.6551 71.6577 38.3772 70.2332 38.3772 68.3071C38.3772 66.8738 39.2071 66.1614 39.9839 65.9727C40.1271 65.9379 40.2804 65.9183 40.4381 65.9183C41.0224 65.9183 41.6647 66.1882 42.0608 66.9561C42.2865 67.3931 42.7427 67.664 43.2321 67.6538C43.7236 67.6441 44.1669 67.3556 44.3747 66.91C44.792 66.0158 45.6693 65.8585 46.3514 66.01C47.1659 66.1903 48.0357 66.8887 48.0357 68.3071Z" fill="#6FBA42"/>
</svg>
