<svg width="88" height="88" viewBox="0 0 88 88" fill="none" xmlns="http://www.w3.org/2000/svg">
<path d="M88 36.9032H84.8106L80.057 39.4044C79.522 39.1092 78.9655 38.859 78.3653 38.7086L72.3857 37.2123V36.5324C75.0311 34.6862 76.6452 31.6361 76.6452 28.3871V25.906C76.6452 20.3921 72.3247 15.7778 67.0146 15.6171C66.745 15.6101 66.4796 15.6198 66.2128 15.633L67.7631 12.0035L60.247 4.48954L55.8164 7.3733C54.133 6.42521 52.3526 5.68712 50.5035 5.16942L49.4092 0H38.5922L37.4979 5.1708C35.6488 5.68851 33.867 6.4266 32.185 7.37468L27.7543 4.49093L20.2445 12.0008L21.7685 15.633C21.7103 15.6302 21.6549 15.6198 21.5966 15.6184C18.8785 15.5394 16.3184 16.5312 14.3737 18.419C12.4263 20.3055 11.3548 22.8372 11.3548 25.5484V28.3871C11.3548 31.6361 12.9676 34.6848 15.6129 36.5311V37.2123L11.7124 38.1874L4.6427 34.0645H0V63.4752L13.9635 68.129H16.683L17.0226 66.9398L21.3028 69.5089C21.3728 71.8361 23.2392 73.7087 25.5643 73.7905C25.6461 76.106 27.5069 77.9668 29.8224 78.0486C29.9042 80.364 31.765 82.2249 34.0805 82.3066C34.165 84.6762 36.1055 86.5806 38.4945 86.5806C39.3815 86.5806 40.2513 86.3041 40.9825 85.8114L42.2397 86.9216C43.0277 87.6154 44.0423 88 45.0957 88H45.3584C47.7203 88 49.6421 86.0907 49.6719 83.7364C52.0081 83.7066 53.9001 81.8146 53.9299 79.4783C56.2676 79.4485 58.161 77.5537 58.188 75.2161C60.5471 75.1607 62.4516 73.2333 62.4516 70.861C62.4516 70.7182 62.4447 70.5776 62.4301 70.4355L88 57.6516V36.9032ZM73.8064 25.906V28.3871C73.8064 30.9063 72.4453 33.2599 70.2539 34.5289L69.5442 34.9391L69.5498 39.4308L76.641 41.2022L61.0323 49.4175V45.594C61.0323 43.6861 60.2616 41.9389 58.9996 40.6477L63.871 39.4308V34.9357L63.1627 34.5261C60.9727 33.2599 59.6129 30.9063 59.6129 28.3871V25.5484C59.6129 23.6127 60.378 21.8025 61.769 20.4545C63.1585 19.1072 65.002 18.3809 66.9294 18.4558C70.721 18.5694 73.8064 21.912 73.8064 25.906ZM46.1401 48.3017L39.7149 46.2482C36.7868 45.3099 33.6175 45.1699 30.6201 45.8338L29.8064 46.014V45.594C29.8064 43.6368 31.1336 41.9375 33.0312 41.4621L41.1613 39.4308V34.9357L40.453 34.5261C38.263 33.2599 36.9032 30.9063 36.9032 28.3871V25.5484C36.9032 23.6127 37.6683 21.8025 39.0593 20.4545C40.4488 19.1072 42.3041 18.3809 44.2197 18.4558C48.0113 18.5694 51.0968 21.912 51.0968 25.906V28.3871C51.0968 30.9063 49.7356 33.2599 47.5442 34.5289L46.8345 34.9391L46.8401 39.4308L54.9688 41.4621C56.8664 41.9375 58.1935 43.6368 58.1935 45.594V50.9124L57.8429 51.0968H56.9731L48.247 48.6032C47.5595 48.4085 46.8512 48.3288 46.1401 48.3017ZM30.1246 21.2432C32.79 16.0786 38.1549 12.7742 44 12.7742C49.7897 12.7742 55.1317 16.0343 57.8172 21.1288C57.1415 22.4837 56.7742 23.9842 56.7742 25.5484V28.3871C56.7742 31.6361 58.3869 34.6848 61.0323 36.5311V37.2123L55.3548 38.6338L49.676 37.2123V36.5324C52.3214 34.6862 53.9355 31.6361 53.9355 28.3871V25.906C53.9355 20.3921 49.615 15.7778 44.3049 15.6171C41.5882 15.5374 39.0267 16.5298 37.082 18.4177C35.136 20.3055 34.0645 22.8372 34.0645 25.5484V28.3871C34.0645 31.6361 35.6772 34.6848 38.3226 36.5311V37.2123L32.6452 38.6338L26.9664 37.2123V36.5324C29.6117 34.6862 31.2258 31.6361 31.2258 28.3871V25.906C31.2258 24.2358 30.8238 22.6501 30.1246 21.2432ZM23.5968 12.6591L28.1314 8.12456L32.1226 10.7221L32.8863 10.2536C34.7998 9.08096 36.8679 8.22228 39.0323 7.70457L39.9055 7.49527L40.8931 2.83871H47.1083L48.0931 7.49389L48.9664 7.70249C51.1307 8.22089 53.1988 9.07957 55.1123 10.2522L55.876 10.7207L59.8672 8.12317L64.3963 12.6536L62.7864 16.4231C61.6906 16.8943 60.6746 17.5576 59.7903 18.4149C59.7321 18.4717 59.6822 18.5327 59.6254 18.5909C56.2814 13.2753 50.3698 9.93548 44 9.93548C37.5845 9.93548 31.6562 13.3065 28.3206 18.6762C27.4279 17.7419 26.3662 16.9851 25.1894 16.4563L23.5968 12.6591ZM18.4516 39.4308V34.9357L17.7433 34.5261C15.5533 33.2599 14.1935 30.9063 14.1935 28.3871V25.5484C14.1935 23.6127 14.9587 21.8025 16.3496 20.4545C17.7392 19.1072 19.5868 18.3809 21.51 18.4558C25.3017 18.5694 28.3871 21.912 28.3871 25.906V28.3871C28.3871 30.9063 27.026 33.2599 24.8346 34.5289L24.1249 34.9391L24.1304 39.4308L29.0004 40.6477C27.7384 41.9389 26.9677 43.6861 26.9677 45.594V46.6453L22.5406 47.6295L22.6556 47.2275L22.7097 44.6043L15.2241 40.2375L18.4516 39.4308ZM2.83871 36.9032H3.87342L14.0813 42.8572L8.93057 63.4593L2.83871 61.428V36.9032ZM14.4236 65.2903L11.63 64.3596L16.6338 44.3465L19.871 46.2344V46.6398L14.5428 65.2903H14.4236ZM24.129 69.3765C24.129 68.9579 24.2981 68.5476 24.5948 68.251L27.0897 65.7561C27.3863 65.4594 27.7966 65.2903 28.2152 65.2903C29.0926 65.2903 29.8064 66.0042 29.8064 66.8816C29.8064 67.3001 29.6373 67.7104 29.3407 68.0071L26.8458 70.502C26.5491 70.7986 26.1389 70.9677 25.7203 70.9677C24.8429 70.9677 24.129 70.2539 24.129 69.3765ZM28.3871 73.6346C28.3871 73.216 28.5562 72.8057 28.8528 72.5091L31.3478 70.0141C31.6444 69.7175 32.0547 69.5484 32.4733 69.5484C33.3507 69.5484 34.0645 70.2622 34.0645 71.1396C34.0645 71.5582 33.8954 71.9685 33.5988 72.2651L31.1038 74.7601C30.8072 75.0567 30.3969 75.2258 29.9783 75.2258C29.1009 75.2258 28.3871 74.512 28.3871 73.6346ZM32.6452 77.8926C32.6452 77.474 32.8143 77.0638 33.1109 76.7671L35.6058 74.2722C35.9025 73.9756 36.3128 73.8064 36.7313 73.8064C37.6087 73.8064 38.3226 74.5203 38.3226 75.3977C38.3226 75.8163 38.1535 76.2266 37.8569 76.5232L35.3619 79.0181C35.0653 79.3148 34.655 79.4839 34.2364 79.4839C33.359 79.4839 32.6452 78.77 32.6452 77.8926ZM38.4945 83.7419C37.6171 83.7419 36.9032 83.0281 36.9032 82.1507C36.9032 81.7321 37.0723 81.3218 37.3689 81.0252L39.8639 78.5302C40.1605 78.2336 40.5708 78.0645 40.9894 78.0645C41.8668 78.0645 42.5806 78.7784 42.5806 79.6557C42.5806 80.0743 42.4115 80.4846 42.1149 80.7812L39.62 83.2762C39.3233 83.5728 38.9131 83.7419 38.4945 83.7419ZM45.3584 85.1613H45.0957C44.7339 85.1613 44.3874 85.0296 44.1178 84.7905L43.0561 83.8542L44.122 82.7883C44.5025 82.4078 44.7977 81.9553 45.016 81.4694L46.3064 82.5437C46.644 82.825 46.8387 83.2395 46.8387 83.6809C46.8387 84.4974 46.1748 85.1613 45.3584 85.1613ZM58.0868 72.3871H57.8415C57.4853 72.3871 57.1373 72.261 56.865 72.0323L49.168 65.6181L47.3495 67.7998L54.824 74.0275C55.1601 74.3089 55.3548 74.7234 55.3548 75.1648C55.3548 75.9812 54.6909 76.6452 53.8745 76.6452H53.5647C53.2203 76.6452 52.8834 76.5232 52.618 76.3014L44.9086 69.8776L43.09 72.0593L50.5645 78.2877C50.902 78.567 51.0968 78.9814 51.0968 79.4229C51.0968 80.2393 50.4328 80.9032 49.6164 80.9032C49.0717 80.9032 48.5408 80.7099 48.1229 80.3626L44.955 77.7222C44.2571 76.2959 42.8232 75.3013 41.144 75.2417C41.0622 72.9263 39.2014 71.0655 36.8859 70.9837C36.8041 68.6682 34.9433 66.8074 32.6278 66.7256C32.5447 64.3561 30.6041 62.4516 28.2152 62.4516C27.0488 62.4516 25.9074 62.9243 25.0827 63.749L22.5877 66.2439C22.4387 66.393 22.3153 66.5621 22.1899 66.7298L17.83 64.1135L21.6521 50.7364L31.2341 48.606C33.7478 48.0439 36.398 48.1659 38.8493 48.9504L40.9402 49.6192L33.8517 53.1634C32.2321 53.975 31.2258 55.6043 31.2258 57.416V57.6966C31.2258 60.3184 33.359 62.4516 35.9808 62.4516C36.8422 62.4516 37.6898 62.2174 38.4265 61.7731L43.7117 58.6038C44.7734 57.9676 46.1983 58.1069 47.1152 58.9316L59.1077 69.7244C59.4286 70.0155 59.6129 70.4286 59.6129 70.861C59.6129 71.7031 58.9289 72.3871 58.0868 72.3871ZM85.1613 55.8968L61.2492 67.8539C61.1716 67.7714 61.0905 67.6931 61.0052 67.6169L49.0149 56.8241C47.9642 55.876 46.6058 55.3548 45.1906 55.3548C44.1559 55.3548 43.1399 55.6362 42.2501 56.1699L36.9628 59.3405C36.6662 59.5193 36.3273 59.6129 35.9808 59.6129C34.9232 59.6129 34.0645 58.7542 34.0645 57.6966V57.416C34.0645 56.6848 34.4706 56.0292 35.1235 55.7027L43.0408 51.7441C44.3957 51.0656 46.0043 50.9138 47.4645 51.3338L56.384 53.8814L58.5442 53.9355L85.1613 39.9263V55.8968Z" fill="#72BF44"/>
</svg>
