<svg width="1462" height="948" viewBox="0 0 1462 948" fill="none" xmlns="http://www.w3.org/2000/svg">
      <path d="M1 43.9474C333.664 -33.0788 448 95.6891 707.5 93.7696C967 91.85 1119.5 -16.7065 1441 2.21302V948C1156.5 948 742 948 742 948C455 948 340 948 1 948V43.9474Z" fill="url(#paint0_linear)"></path>
      <path d="M0 43.9474C332.664 -33.0788 447 95.6891 706.5 93.7696C966 91.85 1118.5 -16.7065 1440 2.21302L1441 948C1156.5 948 741 948 741 948C454 948 339 948 0 948V43.9474Z" fill="url(#paint1_linear)"></path>
      <g opacity="0.37">
        <path d="M297.5 308C133.748 308 1 440.748 1 604.5L594 604.5C594 440.748 461.252 308 297.5 308Z" fill="#2A8026"></path>
        <path d="M297.5 405.1C187.374 405.1 98.0992 494.374 98.0992 604.5L496.9 604.5C496.9 494.374 407.626 405.1 297.5 405.1Z" fill="#1E6C1A"></path>
        <path d="M297.5 500.465C240.043 500.465 193.465 547.043 193.465 604.5L401.535 604.5C401.535 547.043 354.957 500.465 297.5 500.465Z" fill="#156911"></path>
      </g>
      <g opacity="0.16">
        <path d="M1051.59 180.816C1061.36 177.047 1067.12 176.291 1075.05 175.058C1134.14 165.89 1192.94 167.938 1251.3 180.828C1276.07 186.316 1299.9 194.58 1321.58 207.976C1336.72 217.351 1349.83 228.814 1358.93 244.344C1360.57 247.177 1362.17 249.934 1363.81 252.767C1364.16 253.589 1364.53 254.486 1364.88 255.308C1365.16 256.599 1365.41 257.815 1365.69 259.105C1367.36 266.412 1369.77 273.585 1370.71 281.026C1374.14 308.551 1368.72 334.962 1359.89 360.788C1348.48 394.046 1331.58 424.333 1310.36 452.306C1285.05 485.613 1255.76 514.701 1217.88 533.853C1203.74 541.05 1188.89 545.908 1173.02 547.321C1148.48 549.483 1126.2 542.592 1105.62 529.702C1086.61 517.823 1070.92 502.34 1056.87 485.109C1043.66 468.842 1031.98 451.582 1022.15 433.096C1015.74 421.011 1009.24 408.958 1003.87 396.431C998.086 382.933 993.35 368.993 988.645 355.128C984.023 341.668 981.29 327.676 979.655 313.573C976.994 290.568 978.06 267.841 986.132 245.856C995.35 220.745 1011.7 201.694 1035.06 188.585" fill="#DADADA"></path>
        <path d="M994.169 265.851C1000.91 257.837 1005.59 254.398 1011.94 249.491C1059.28 212.954 1111.78 186.381 1169.11 169.52C1193.46 162.379 1218.32 158.123 1243.77 159.4C1261.55 160.31 1278.57 164.024 1294.03 173.236C1296.83 174.928 1299.57 176.57 1302.37 178.262C1303.07 178.815 1303.83 179.418 1304.53 179.971C1305.4 180.966 1306.2 181.911 1307.07 182.907C1312.06 188.5 1317.63 193.62 1322.05 199.686C1338.32 222.145 1346.32 247.89 1351.05 274.772C1357.09 309.412 1356.9 344.093 1351.81 378.831C1345.71 420.216 1334.08 459.825 1310.13 494.877C1301.22 507.999 1290.56 519.422 1277.33 528.315C1256.89 542.045 1234.05 546.756 1209.8 545.395C1187.41 544.161 1166.2 538.168 1145.58 529.852C1126.17 521.971 1107.61 512.489 1090.09 501.036C1078.63 493.546 1067.13 486.121 1056.38 477.74C1044.8 468.706 1033.93 458.78 1023.12 448.905C1012.58 439.344 1003.43 428.406 995.199 416.841C981.771 397.974 971.741 377.551 968.206 354.4C964.168 327.957 969.303 303.38 983.433 280.632" fill="#72BF44"></path>
      </g>
      <defs>
        <linearGradient id="paint0_linear" x1="0.999781" y1="572.387" x2="1443.8" y2="-88.7058" gradientUnits="userSpaceOnUse">
          <stop offset="0.089305" stop-color="#72BF44"></stop>
          <stop offset="0.694869" stop-color="#20731C"></stop>
          </linearGradient>
          <linearGradient id="paint1_linear" x1="796.5" y1="1009.6" x2="778.565" y2="-17.7208" gradientUnits="userSpaceOnUse">
          <stop offset="0.073989" stop-color="#082607"></stop>
          <stop offset="0.518441" stop-color="#185E14"></stop>
          <stop offset="1" stop-color="#5D973B"></stop>
        </linearGradient>
      </defs>
  </svg>
