<?xml version="1.0" encoding="utf-8"?>
<svg version="1.1" id="logo" xmlns="http://www.w3.org/2000/svg" xmlns:xlink="http://www.w3.org/1999/xlink" x="0px" y="0px"
	 viewBox="0 0 120 120" style="enable-background:new 0 0 120 120;" xml:space="preserve">
<style type="text/css">
	.st0{fill:url(#logo_icon_gradient);}
</style>
<linearGradient id="logo_icon_gradient" gradientUnits="userSpaceOnUse" x1="5.65" y1="55.5" x2="114.05" y2="55.5" gradientTransform="matrix(1 0 0 -1 0 116.1898)">
	<stop  offset="0" style="stop-color:#D7DF23"/>
	<stop  offset="0.9995" style="stop-color:#00AEEF"/>
</linearGradient>
<path class="st0" d="M51.6,2.7C28.3,2.6,7.9,2.9,7.7,2.9h-2v115.7h46.7v-23c7.6,0.5,31.9,0.8,47.8-13.4c9.2-8.2,13.9-19.9,13.9-34.7
	C114.1,8.5,84,2.9,51.6,2.7z M110,47.2L45.6,34.9l37.6-24.6C99.9,15,109.8,25.5,110,47.2z M40.9,38.2l64.7,12.4L51,86.6L40.9,38.2z
	 M9.8,10.1l26.4,27.5L9.8,109.1V10.1z M38,44.5L47.3,89l-34,22.4L38,44.5z M51.5,6.8C61.2,6.9,70,7.4,77.7,9L39.8,33.8l-1.9-0.4
	L12.5,7C19.9,6.9,35,6.8,51.5,6.8z M16,114.6l32.2-21.2l0.1,0.3v20.9C48.3,114.7,16,114.7,16,114.6z M97.4,79.3
	C82.4,92.7,58.2,92,52,91.6l-0.1-0.7l57.9-38.1C108.8,63.9,104.7,72.8,97.4,79.3z"/>
</svg>
