<svg id="Слой_1" data-name="Слой 1" xmlns="http://www.w3.org/2000/svg" viewBox="0 0 120 75.95">
  <defs>
    <style>
      .cls-1 {
        fill: #fff;
      }
    </style>
  </defs>
  <title>dgtek-logo-white</title>
  <path class="cls-1" d="M.44,76V67H7.7a2.31,2.31,0,0,1,1.47.39,1.79,1.79,0,0,1,.45,1.32v1a1.38,1.38,0,0,1-.35,1.07,1.8,1.8,0,0,1-1.13.44,1.91,1.91,0,0,1,1.18.54A1.78,1.78,0,0,1,9.71,73V74.1a1.45,1.45,0,0,1-.63,1.31,3.15,3.15,0,0,1-1.87.44H.44Zm7.65-6.1V69a.82.82,0,0,0-.19-.64,1.38,1.38,0,0,0-.74-.14H2v2.49h5.2a1,1,0,0,0,.74-.2A1.07,1.07,0,0,0,8.09,69.85Zm.05,3.81v-.74A1.27,1.27,0,0,0,8,72.09a1.11,1.11,0,0,0-.79-.24H2v2.88h5.2A1.11,1.11,0,0,0,8,74.49,1.27,1.27,0,0,0,8.14,73.66Z" transform="translate(0 0)"/>
  <path class="cls-1" d="M14.18,76V67h7.26a2.31,2.31,0,0,1,1.47.39,1.79,1.79,0,0,1,.44,1.32v2A1.75,1.75,0,0,1,22.91,72a2,2,0,0,1-1.47.4H20.11l4.13,3.51H22L18.3,72.39H15.65V75.9H14.18Zm6.67-7.81h-5.2v3.17H20.8a1.14,1.14,0,0,0,.79-.19,1.08,1.08,0,0,0,.19-.74V69.06a1,1,0,0,0-.19-.73A1.08,1.08,0,0,0,20.85,68.14Z" transform="translate(0 0)"/>
  <path class="cls-1" d="M38.76,76l4.9-9h1.62l5,9H48.62l-1.13-2.2H41.36L40.23,76ZM42,72.58h4.85L44.4,68Z" transform="translate(0 0)"/>
  <path class="cls-1" d="M58.48,67a11.67,11.67,0,0,1,2.06.15,3.42,3.42,0,0,1,1.37.54,4,4,0,0,1,1.38,1.56,4.71,4.71,0,0,1,.49,2.2,4.81,4.81,0,0,1-.49,2.25,3.64,3.64,0,0,1-1.38,1.56,5.22,5.22,0,0,1-1.37.54,12.87,12.87,0,0,1-2.06.14h-5v-9h5Zm-.2,1.23H55v6.49h3.24a4.6,4.6,0,0,0,3.09-.78,3.19,3.19,0,0,0,.89-2.54,2.9,2.9,0,0,0-.94-2.44A4.92,4.92,0,0,0,58.28,68.19Z" transform="translate(0 0)"/>
  <path class="cls-1" d="M68,76V67h7.26a2.35,2.35,0,0,1,1.47.39,1.83,1.83,0,0,1,.44,1.32v1a1.42,1.42,0,0,1-.34,1.07,1.83,1.83,0,0,1-1.13.44,1.94,1.94,0,0,1,1.18.54A1.84,1.84,0,0,1,77.27,73V74.1a1.45,1.45,0,0,1-.64,1.31,3.11,3.11,0,0,1-1.86.44H68Zm7.6-6.1V69a.82.82,0,0,0-.2-.64,1.34,1.34,0,0,0-.73-.14h-5.2v2.49h5.2a1,1,0,0,0,.73-.2A.81.81,0,0,0,75.6,69.85Zm.1,3.81v-.74a1.21,1.21,0,0,0-.2-.83,1.08,1.08,0,0,0-.78-.24h-5.2v2.88h5.2a1.08,1.08,0,0,0,.78-.24A1.56,1.56,0,0,0,75.7,73.66Z" transform="translate(0 0)"/>
  <path class="cls-1" d="M79.92,76l4.9-9h1.62l5,9H89.78l-1.13-2.2H82.57L81.44,76Zm3.29-3.37h4.85L85.61,68Z" transform="translate(0 0)"/>
  <path class="cls-1" d="M94.73,76V67h.94l6.77,6c.14.15.29.29.49.49s.34.39.54.64a5.41,5.41,0,0,1-.1-.93c0-.3-.05-.74-.05-1.32V66.92h1.37v9h-.83l-6.92-6.25-.15-.15a2.87,2.87,0,0,1-.73-.88c0,.3,0,.59.1.88s0,.69,0,1.08v5.27H94.73Z" transform="translate(0 0)"/>
  <path class="cls-1" d="M114.65,67a11.59,11.59,0,0,1,2.06.15,3.53,3.53,0,0,1,1.38.54,3.86,3.86,0,0,1,1.37,1.56,4.71,4.71,0,0,1,.49,2.2,4.81,4.81,0,0,1-.49,2.25,3.56,3.56,0,0,1-1.37,1.56,5.44,5.44,0,0,1-1.38.54,12.78,12.78,0,0,1-2.06.14h-5v-9h5Zm-.19,1.23h-3.24v6.49h3.24a4.6,4.6,0,0,0,3.09-.78,3.19,3.19,0,0,0,.88-2.54,2.89,2.89,0,0,0-.93-2.44A4.86,4.86,0,0,0,114.46,68.19Z" transform="translate(0 0)"/>
  <path class="cls-1" d="M91.35,9.28l-6.18,7.28C80.85,12,75.5,9.38,69.76,9.38a17.15,17.15,0,0,0-12.51,4.93,16.22,16.22,0,0,0-5,12,16.76,16.76,0,0,0,5.2,12.35,17.84,17.84,0,0,0,12.9,5.08,15.46,15.46,0,0,0,8.39-2.1,14.81,14.81,0,0,0,5.55-6.54H69.66l7.56-9H95.08l0,2.1a24.38,24.38,0,0,1-3.44,12.51,24.22,24.22,0,0,1-8.88,9A25.12,25.12,0,0,1,70,52.85a28.33,28.33,0,0,1-14-3.42,24.94,24.94,0,0,1-9.77-9.72,26.93,26.93,0,0,1-3.58-13.58A25.27,25.27,0,0,1,49.26,8.74C54.51,2.93,61.32,0,69.71,0A31.6,31.6,0,0,1,82.08,2.44,26.33,26.33,0,0,1,91.35,9.28Z" transform="translate(0 0)"/>
  <path class="cls-1" d="M0,.34H11.92c7.7,0,13.39,1,17.12,2.83a22.42,22.42,0,0,1,9.23,9.24A29.89,29.89,0,0,1,41.9,27.35a30.75,30.75,0,0,1-2,11.19A24.11,24.11,0,0,1,34.29,47a19.46,19.46,0,0,1-7.75,4.64c-2.75.88-7.6,1.27-14.42,1.27H0V45L10,33,0,32.19ZM10,33V43.13h4.66c4.61,0,8-.54,10-1.56a11.92,11.92,0,0,0,5.1-5.28,19.26,19.26,0,0,0,2-9.13c0-5.57-1.57-9.92-4.71-13C24.24,11.43,19.67,10,13.44,10H10.06V20.27L0,32.19Z" transform="translate(0 0)"/>
  <path class="cls-1" d="M95.37,51.53v-4.4h6.48V44.54h3.83v2.59h13.78v4.4H105.68v2.25h-3.83V51.53Z" transform="translate(0 0)"/>
  <path class="cls-1" d="M112,24.62V38.73a4.63,4.63,0,0,0,3-1.61,5.11,5.11,0,0,0,1.12-3.37,5.91,5.91,0,0,0-1.71-4.25l1.76-3.71a9,9,0,0,1,2.95,3.32A10.19,10.19,0,0,1,120,33.7a9.25,9.25,0,0,1-2.6,6.74A9,9,0,0,1,110.88,43a9.22,9.22,0,0,1-6.68-2.59A8.73,8.73,0,0,1,101.55,34a9,9,0,0,1,2.65-6.74,9.71,9.71,0,0,1,7-2.59ZM108.47,29a4.72,4.72,0,0,0-2.4,1.71,4.89,4.89,0,0,0-.93,3,5.28,5.28,0,0,0,1,3.23,5.58,5.58,0,0,0,2.3,1.61Z" transform="translate(0 0)"/>
  <path class="cls-1" d="M95.08,21.05V16.66h14l-7.26-6.5V4.64l8.44,7.57,9.17-8.45V9.23l-8.09,7.38h8.09V21H95.08Z" transform="translate(0 0)"/>
  <path class="cls-1" d="M1.77,56.66v5H6.08v-5H7.6V61.4a1.52,1.52,0,0,1-.34,1.17A2.06,2.06,0,0,1,6,62.86H1.91a2,2,0,0,1-1.27-.29A1.45,1.45,0,0,1,.29,61.4V56.66Z" transform="translate(0 0)"/>
  <path class="cls-1" d="M14,62.86v-6.2H15.5v5h4.86v1.17Z" transform="translate(0 0)"/>
  <path class="cls-1" d="M27.82,57.78v5.08H26.3V57.78h-3V56.66h7.56v1.12Z" transform="translate(0 0)"/>
  <path class="cls-1" d="M36.35,62.86v-6.2H42a1.83,1.83,0,0,1,1.12.29,1.08,1.08,0,0,1,.35.93v1.46a1.07,1.07,0,0,1-.35.93,1.67,1.67,0,0,1-1.12.3h-.84l3,2.34H41.9l-2.6-2.34H37.87v2.34H36.35Zm5-5.13H37.83v1.71h3.48a1.32,1.32,0,0,0,.54-.1c.1,0,.15-.19.15-.39v-.73a.48.48,0,0,0-.15-.39C41.75,57.73,41.6,57.73,41.31,57.73Z" transform="translate(0 0)"/>
  <path class="cls-1" d="M48,62.86l3.68-6.2h1.47l3.73,6.2H55.19l-.78-1.37H50.29l-.79,1.37Zm3-2.49h2.85L52.4,57.78Z" transform="translate(0 0)"/>
  <path class="cls-1" d="M75.6,62.86v-6.2h6.62v1.12h-5v1.61h2.75v1.18H77.17v2.29Z" transform="translate(0 0)"/>
  <path class="cls-1" d="M85.27,62.86,89,56.66h1.47l3.73,6.2H92.43l-.79-1.37H87.52l-.78,1.37Zm2.94-2.49h2.84l-1.47-2.59Z" transform="translate(0 0)"/>
  <path class="cls-1" d="M105.09,57.78h-4.27V59.1h4.07a2,2,0,0,1,1.28.29,1.72,1.72,0,0,1,.34,1.18v.83a1.49,1.49,0,0,1-.34,1.17,2.09,2.09,0,0,1-1.28.29h-4a2.27,2.27,0,0,1-1.33-.29,1.49,1.49,0,0,1-.34-1.17v-.2l1.37-.24v.73h4.57V60.27h-4.08A2,2,0,0,1,99.79,60a1.66,1.66,0,0,1-.35-1.17v-.69A1.59,1.59,0,0,1,99.79,57c.24-.24.64-.29,1.27-.29h3.68A2,2,0,0,1,106,57a1.47,1.47,0,0,1,.34,1v.14l-1.32.3v-.64Z" transform="translate(0 0)"/>
  <path class="cls-1" d="M116.37,57.78v5.08h-1.52V57.78h-3V56.66h7.55v1.12Z" transform="translate(0 0)"/>
  <path class="cls-1" d="M35.91,71.12l1.67-.64a9.08,9.08,0,0,0-2.65-3.13A6.48,6.48,0,0,0,25.56,76c-1.57-3.52.69-7.91,4.12-8.6a5.69,5.69,0,0,1,5,1.67,2.34,2.34,0,0,1,.39.53C35.27,70,35.67,70.68,35.91,71.12Z" transform="translate(0 0)"/>
  <path class="cls-1" d="M30.42,73.61l8-2.74c-.34.25-6.42,4.06-6.67,4.2-.59.39-.88.64-1.42.59a.91.91,0,0,1-.88-1A1.13,1.13,0,0,1,30.42,73.61Z" transform="translate(0 0)"/>
</svg>
