<svg xmlns="http://www.w3.org/2000/svg" xmlns:xlink="http://www.w3.org/1999/xlink" version="1.1" id="logo" x="0px" y="0px" viewBox="0 0 494.3 124.7" style="enable-background:new 0 0 494.3 124.7;" xml:space="preserve">
<style type="text/css">
	.st0{fill:none;}
	.st1{fill:url(#logo_gradient);}
	.st2{fill:#324C3B;}
</style>
<g>
	<rect x="-35.3" y="-31.1" class="st0" width="566.9" height="191.3"/>
	<linearGradient id="logo_gradient" gradientUnits="userSpaceOnUse" x1="2.7365" y1="64.5895" x2="111.1852" y2="64.5895">
		<stop offset="0" style="stop-color:#D7DF23"/>
		<stop offset="0.9995" style="stop-color:#00AEEF"/>
	</linearGradient>
	<path class="st1" d="M48.7,6.6C25.4,6.5,5,6.8,4.8,6.8l-2,0v115.7h46.7v-23c7.6,0.5,31.9,0.8,47.8-13.4   c9.2-8.2,13.9-19.9,13.9-34.7C111.2,12.4,81.1,6.8,48.7,6.6z M107.1,51.1L42.7,38.8l37.6-24.6C97,18.9,106.9,29.4,107.1,51.1z    M38,42.1l64.7,12.4l-54.6,36L38,42.1z M6.9,14l26.4,27.5L6.9,113V14z M35.1,48.4l9.3,44.5l-34,22.4L35.1,48.4z M48.6,10.7   c9.7,0.1,18.5,0.6,26.2,2.2L36.9,37.7L35,37.3L9.6,10.9C17,10.8,32.1,10.7,48.6,10.7z M13.1,118.5l32.2-21.2l0.1,0.3v20.9H13.1z    M94.5,83.2c-15,13.4-39.2,12.7-45.4,12.3L49,94.8l57.9-38.1C105.9,67.8,101.8,76.7,94.5,83.2z"/>
	<g>
		<path class="st2" d="M153.9,21.9h7v5.3h0.2c1.3-2,3.2-3.5,5.5-4.6c2.4-1.1,4.8-1.6,7.2-1.6c2.8,0,5.4,0.5,7.7,1.5    c2.3,1,4.3,2.4,5.9,4.1c1.6,1.8,2.9,3.8,3.8,6.2c0.9,2.4,1.3,4.9,1.3,7.6c0,2.7-0.4,5.3-1.3,7.6c-0.9,2.4-2.1,4.4-3.8,6.1    c-1.6,1.7-3.6,3.1-5.9,4.1c-2.3,1-4.9,1.5-7.7,1.5c-2.6,0-5.1-0.6-7.4-1.7c-2.3-1.1-4.1-2.6-5.3-4.5h-0.2v27.1h-7V21.9z     M172.9,27.4c-1.9,0-3.5,0.3-5,1c-1.5,0.6-2.8,1.5-3.8,2.6c-1,1.1-1.8,2.5-2.4,4c-0.6,1.6-0.9,3.3-0.9,5.2c0,1.9,0.3,3.6,0.9,5.2    c0.6,1.6,1.4,2.9,2.4,4c1,1.1,2.3,2,3.8,2.6c1.5,0.6,3.2,1,5,1c1.9,0,3.5-0.3,5-1c1.5-0.6,2.8-1.5,3.8-2.6c1-1.1,1.8-2.5,2.4-4    c0.6-1.6,0.9-3.3,0.9-5.2c0-1.9-0.3-3.6-0.9-5.2c-0.6-1.6-1.4-2.9-2.4-4c-1-1.1-2.3-2-3.8-2.6C176.5,27.8,174.8,27.4,172.9,27.4z"/>
		<path class="st2" d="M200.1,8.7c0-1.4,0.5-2.6,1.5-3.6s2.2-1.5,3.6-1.5s2.6,0.5,3.6,1.5c1,1,1.5,2.2,1.5,3.6    c0,1.4-0.5,2.6-1.5,3.6c-1,1-2.2,1.5-3.6,1.5s-2.6-0.5-3.6-1.5C200.6,11.3,200.1,10.1,200.1,8.7z M201.8,21.9h7v36.7h-7V21.9z"/>
		<path class="st2" d="M219.8,21.9h7v5.7h0.2c0.9-2,2.4-3.6,4.6-4.8c2.2-1.2,4.7-1.8,7.5-1.8c1.8,0,3.4,0.3,5.1,0.8    c1.6,0.5,3,1.4,4.3,2.5c1.2,1.1,2.2,2.6,2.9,4.4c0.7,1.8,1.1,3.9,1.1,6.3v23.6h-7V36.9c0-1.7-0.2-3.2-0.7-4.4    c-0.5-1.2-1.1-2.2-1.9-2.9c-0.8-0.7-1.7-1.3-2.7-1.6c-1-0.3-2.1-0.5-3.1-0.5c-1.4,0-2.8,0.2-4,0.7c-1.2,0.5-2.3,1.2-3.3,2.2    c-0.9,1-1.7,2.3-2.2,3.8c-0.5,1.5-0.8,3.4-0.8,5.5v18.9h-7V21.9z"/>
		<path class="st2" d="M268.2,42.8c0,1.6,0.3,3.1,1,4.4c0.7,1.3,1.6,2.4,2.8,3.4c1.1,0.9,2.5,1.7,4,2.2c1.5,0.5,3,0.8,4.6,0.8    c2.2,0,4.1-0.5,5.7-1.5c1.6-1,3.1-2.3,4.4-4l5.3,4c-3.9,5-9.3,7.5-16.3,7.5c-2.9,0-5.5-0.5-7.9-1.5c-2.4-1-4.3-2.3-6-4.1    c-1.6-1.7-2.9-3.8-3.8-6.1c-0.9-2.4-1.3-4.9-1.3-7.6c0-2.7,0.5-5.3,1.4-7.6c1-2.4,2.3-4.4,4-6.1c1.7-1.7,3.7-3.1,6-4.1    c2.3-1,4.9-1.5,7.6-1.5c3.3,0,6,0.6,8.3,1.7c2.2,1.1,4.1,2.6,5.5,4.5c1.4,1.8,2.5,3.9,3.1,6.2c0.6,2.3,1,4.6,1,7v2.5H268.2z     M290.2,37.2c-0.1-1.6-0.3-3-0.7-4.3c-0.4-1.3-1.1-2.4-2-3.4c-0.9-1-2-1.7-3.3-2.2c-1.3-0.5-2.9-0.8-4.6-0.8c-1.7,0-3.3,0.3-4.7,1    c-1.4,0.6-2.6,1.5-3.6,2.5c-1,1-1.7,2.2-2.3,3.4c-0.5,1.3-0.8,2.5-0.8,3.8H290.2z"/>
		<path class="st2" d="M306.2,26.4c2-1.8,4.2-3.2,6.8-4.1c2.6-0.9,5.2-1.4,7.8-1.4c2.7,0,5,0.3,6.9,1c1.9,0.7,3.5,1.6,4.8,2.7    c1.2,1.1,2.2,2.4,2.8,3.9c0.6,1.5,0.9,3,0.9,4.6v18.8c0,1.3,0,2.5,0.1,3.6c0.1,1.1,0.1,2.1,0.2,3.1h-6.2c-0.2-1.9-0.2-3.7-0.2-5.6    h-0.2c-1.6,2.4-3.4,4.1-5.5,5c-2.1,1-4.6,1.5-7.4,1.5c-1.7,0-3.3-0.2-4.9-0.7c-1.6-0.5-2.9-1.2-4.1-2.1c-1.2-0.9-2.1-2.1-2.8-3.4    c-0.7-1.4-1-3-1-4.8c0-2.4,0.5-4.4,1.6-6c1.1-1.6,2.5-2.9,4.3-3.9c1.8-1,4-1.7,6.4-2.2c2.5-0.4,5.1-0.7,7.9-0.7h5.1v-1.6    c0-0.9-0.2-1.9-0.5-2.8c-0.4-0.9-0.9-1.8-1.6-2.5c-0.7-0.7-1.6-1.3-2.7-1.8c-1.1-0.4-2.4-0.7-3.9-0.7c-1.3,0-2.5,0.1-3.5,0.4    c-1,0.3-1.9,0.6-2.8,1c-0.8,0.4-1.6,0.8-2.2,1.4c-0.7,0.5-1.3,1-1.9,1.5L306.2,26.4z M325.8,40.9c-1.7,0-3.3,0.1-5.1,0.3    c-1.7,0.2-3.3,0.5-4.7,1c-1.4,0.5-2.6,1.2-3.5,2.2c-0.9,0.9-1.4,2.1-1.4,3.6c0,2.1,0.7,3.6,2.1,4.6c1.4,0.9,3.3,1.4,5.8,1.4    c1.9,0,3.5-0.3,4.9-1c1.3-0.6,2.4-1.5,3.3-2.5c0.8-1,1.4-2.2,1.8-3.4c0.4-1.3,0.5-2.5,0.5-3.8v-2.3H325.8z"/>
		<path class="st2" d="M346.2,21.9h7v5.3h0.2c1.3-2,3.2-3.5,5.5-4.6c2.3-1.1,4.8-1.6,7.2-1.6c2.8,0,5.4,0.5,7.7,1.5    c2.3,1,4.3,2.4,5.9,4.1c1.6,1.8,2.9,3.8,3.8,6.2c0.9,2.4,1.3,4.9,1.3,7.6c0,2.7-0.4,5.3-1.3,7.6c-0.9,2.4-2.1,4.4-3.8,6.1    c-1.6,1.7-3.6,3.1-5.9,4.1c-2.3,1-4.9,1.5-7.7,1.5c-2.6,0-5.1-0.6-7.4-1.7s-4.1-2.6-5.3-4.5h-0.2v27.1h-7V21.9z M365.3,27.4    c-1.9,0-3.5,0.3-5,1c-1.5,0.6-2.8,1.5-3.8,2.6c-1,1.1-1.8,2.5-2.4,4c-0.6,1.6-0.9,3.3-0.9,5.2c0,1.9,0.3,3.6,0.9,5.2    c0.6,1.6,1.4,2.9,2.4,4c1,1.1,2.3,2,3.8,2.6c1.5,0.6,3.2,1,5,1c1.9,0,3.5-0.3,5-1s2.8-1.5,3.8-2.6c1-1.1,1.8-2.5,2.4-4    c0.6-1.6,0.9-3.3,0.9-5.2c0-1.9-0.3-3.6-0.9-5.2c-0.6-1.6-1.4-2.9-2.4-4c-1-1.1-2.3-2-3.8-2.6C368.8,27.8,367.2,27.4,365.3,27.4z"/>
		<path class="st2" d="M393.6,21.9h7v5.3h0.2c1.3-2,3.2-3.5,5.5-4.6c2.4-1.1,4.8-1.6,7.2-1.6c2.8,0,5.4,0.5,7.7,1.5    c2.3,1,4.3,2.4,5.9,4.1c1.6,1.8,2.9,3.8,3.8,6.2c0.9,2.4,1.3,4.9,1.3,7.6c0,2.7-0.4,5.3-1.3,7.6c-0.9,2.4-2.1,4.4-3.8,6.1    c-1.6,1.7-3.6,3.1-5.9,4.1c-2.3,1-4.9,1.5-7.7,1.5c-2.6,0-5.1-0.6-7.4-1.7c-2.3-1.1-4.1-2.6-5.3-4.5h-0.2v27.1h-7V21.9z     M412.7,27.4c-1.9,0-3.5,0.3-5,1c-1.5,0.6-2.8,1.5-3.8,2.6c-1,1.1-1.8,2.5-2.4,4c-0.6,1.6-0.9,3.3-0.9,5.2c0,1.9,0.3,3.6,0.9,5.2    c0.6,1.6,1.4,2.9,2.4,4c1,1.1,2.3,2,3.8,2.6c1.5,0.6,3.2,1,5,1c1.9,0,3.5-0.3,5-1c1.5-0.6,2.8-1.5,3.8-2.6c1-1.1,1.8-2.5,2.4-4    c0.6-1.6,0.9-3.3,0.9-5.2c0-1.9-0.3-3.6-0.9-5.2c-0.6-1.6-1.4-2.9-2.4-4c-1-1.1-2.3-2-3.8-2.6C416.2,27.8,414.5,27.4,412.7,27.4z"/>
		<path class="st2" d="M441.5,0h7v58.6h-7V0z"/>
		<path class="st2" d="M464.8,42.8c0,1.6,0.3,3.1,1,4.4c0.7,1.3,1.6,2.4,2.8,3.4c1.1,0.9,2.5,1.7,4,2.2c1.5,0.5,3,0.8,4.7,0.8    c2.2,0,4.1-0.5,5.7-1.5c1.6-1,3.1-2.3,4.4-4l5.3,4c-3.9,5-9.3,7.5-16.3,7.5c-2.9,0-5.5-0.5-7.9-1.5c-2.4-1-4.3-2.3-6-4.1    c-1.6-1.7-2.9-3.8-3.8-6.1c-0.9-2.4-1.3-4.9-1.3-7.6c0-2.7,0.5-5.3,1.4-7.6c1-2.4,2.3-4.4,4-6.1c1.7-1.7,3.7-3.1,6-4.1    c2.3-1,4.9-1.5,7.6-1.5c3.3,0,6,0.6,8.3,1.7c2.2,1.1,4.1,2.6,5.5,4.5c1.4,1.8,2.5,3.9,3.1,6.2c0.6,2.3,1,4.6,1,7v2.5H464.8z     M486.8,37.2c-0.1-1.6-0.3-3-0.7-4.3c-0.4-1.3-1.1-2.4-2-3.4c-0.9-1-2-1.7-3.3-2.2c-1.3-0.5-2.9-0.8-4.6-0.8c-1.7,0-3.3,0.3-4.7,1    c-1.4,0.6-2.6,1.5-3.6,2.5c-1,1-1.7,2.2-2.3,3.4c-0.5,1.3-0.8,2.5-0.8,3.8H486.8z"/>
		<path class="st2" d="M153.9,87h7v5.7h0.2c0.9-2,2.4-3.6,4.6-4.8c2.2-1.2,4.7-1.8,7.5-1.8c1.8,0,3.4,0.3,5.1,0.8    c1.6,0.5,3,1.4,4.3,2.5c1.2,1.1,2.2,2.6,2.9,4.4c0.7,1.8,1.1,3.9,1.1,6.3v23.6h-7V102c0-1.7-0.2-3.2-0.7-4.4s-1.1-2.2-1.9-2.9    c-0.8-0.8-1.7-1.3-2.7-1.6c-1-0.3-2.1-0.5-3.1-0.5c-1.4,0-2.8,0.2-4,0.7c-1.2,0.5-2.3,1.2-3.3,2.2s-1.7,2.3-2.2,3.8    c-0.5,1.5-0.8,3.4-0.8,5.5v18.9h-7V87z"/>
		<path class="st2" d="M202.2,107.9c0,1.6,0.3,3.1,1,4.4c0.7,1.3,1.6,2.4,2.8,3.4c1.1,0.9,2.5,1.7,4,2.2c1.5,0.5,3,0.8,4.7,0.8    c2.2,0,4.1-0.5,5.7-1.5c1.6-1,3.1-2.3,4.4-4l5.3,4c-3.9,5-9.3,7.5-16.3,7.5c-2.9,0-5.5-0.5-7.9-1.5c-2.4-1-4.3-2.3-6-4.1    c-1.6-1.7-2.9-3.8-3.8-6.1c-0.9-2.4-1.3-4.9-1.3-7.6c0-2.7,0.5-5.3,1.4-7.6c1-2.4,2.3-4.4,4-6.1c1.7-1.7,3.7-3.1,6-4.1    c2.3-1,4.9-1.5,7.6-1.5c3.3,0,6,0.6,8.3,1.7c2.2,1.1,4.1,2.6,5.5,4.5c1.4,1.8,2.5,3.9,3.1,6.2c0.6,2.3,1,4.6,1,7v2.5H202.2z     M224.2,102.3c-0.1-1.6-0.3-3-0.7-4.3c-0.4-1.3-1.1-2.4-2-3.4c-0.9-1-2-1.7-3.3-2.2s-2.9-0.8-4.6-0.8c-1.7,0-3.3,0.3-4.7,1    c-1.4,0.6-2.6,1.5-3.6,2.5c-1,1-1.7,2.2-2.3,3.4c-0.5,1.3-0.8,2.5-0.8,3.8H224.2z"/>
		<path class="st2" d="M259.7,93h-10v16.7c0,1,0,2.1,0.1,3.1c0.1,1,0.2,1.9,0.6,2.7c0.3,0.8,0.9,1.4,1.6,1.9    c0.7,0.5,1.7,0.7,3.1,0.7c0.8,0,1.7-0.1,2.6-0.2c0.9-0.2,1.7-0.4,2.4-0.9v6.4c-0.8,0.5-1.9,0.8-3.2,1c-1.3,0.2-2.3,0.3-3.1,0.3    c-2.7,0-4.8-0.4-6.2-1.1c-1.5-0.7-2.6-1.7-3.3-2.9c-0.7-1.2-1.1-2.5-1.2-4c-0.1-1.5-0.2-3-0.2-4.5V93h-8.1v-6h8.1V76.7h7V87h10V93    z"/>
	</g>
</g>
</svg>
